<svg xmlns="http://www.w3.org/2000/svg" xmlns:xlink="http://www.w3.org/1999/xlink" width="727" zoomAndPan="magnify" viewBox="0 0 545.25 334.49999" height="446" preserveAspectRatio="xMidYMid meet" version="1.0"><defs><clipPath id="8b71153e5e"><path d="M 0.03125 0 L 544.46875 0 L 544.46875 333 L 0.03125 333 Z M 0.03125 0 " clip-rule="nonzero"/></clipPath></defs><g clip-path="url(#8b71153e5e)"><path fill="#20b2ab" d="M 544.476562 100.449219 L 544.476562 13.050781 C 541.089844 9.664062 539.195312 7.765625 535.808594 4.378906 L 535.808594 4.386719 C 534.484375 3.066406 533.164062 1.746094 531.472656 0.0546875 L 444.070312 0.0546875 C 441.214844 2.910156 439.410156 4.714844 436.886719 7.238281 L 351.695312 7.238281 L 340.214844 18.714844 C 338.53125 20.398438 336.75 22.175781 334.699219 24.230469 L 209.808594 24.230469 L 192.820312 7.238281 L 107.621094 7.238281 C 105.09375 4.714844 103.292969 2.910156 100.4375 0.0546875 L 13.039062 0.0546875 C 11.34375 1.746094 10.027344 3.066406 8.703125 4.386719 L 8.703125 4.378906 C 5.316406 7.761719 3.417969 9.664062 0.03125 13.050781 L 0.03125 100.449219 C 2.828125 103.246094 4.609375 105.027344 7.054688 107.472656 L 7.054688 225.539062 C 4.609375 227.980469 2.828125 229.765625 0.03125 232.558594 L 0.03125 319.957031 C 3.417969 323.347656 5.316406 325.242188 8.703125 328.628906 L 8.703125 328.621094 C 10.027344 329.941406 11.34375 331.261719 13.039062 332.957031 L 100.4375 332.957031 C 103.296875 330.097656 105.097656 328.296875 107.625 325.769531 L 192.820312 325.769531 L 196.523438 322.066406 C 198.398438 320.191406 200.074219 318.511719 201.761719 316.832031 C 203.082031 315.507812 204.402344 314.183594 205.824219 312.765625 L 209.8125 308.777344 L 334.699219 308.777344 L 351.691406 325.769531 L 436.886719 325.769531 C 439.414062 328.296875 441.21875 330.097656 444.074219 332.957031 L 531.472656 332.957031 C 533.167969 331.261719 534.488281 329.941406 535.808594 328.621094 L 535.808594 328.628906 C 539.199219 325.242188 541.09375 323.347656 544.480469 319.957031 L 544.480469 232.558594 C 541.683594 229.761719 539.902344 227.980469 537.457031 225.535156 L 537.457031 107.472656 C 539.898438 105.027344 541.683594 103.246094 544.480469 100.445312 Z M 534.4375 267.875 C 531.9375 270.375 530.175781 272.136719 527.367188 274.949219 L 527.367188 315.847656 L 486.464844 315.847656 C 483.722656 318.59375 481.972656 320.34375 479.558594 322.753906 L 352.9375 322.753906 L 335.949219 305.761719 L 208.558594 305.761719 L 203.691406 310.636719 C 202.269531 312.054688 200.945312 313.378906 199.628906 314.699219 C 197.945312 316.378906 196.265625 318.058594 194.390625 319.9375 L 191.574219 322.757812 L 64.949219 322.757812 C 62.539062 320.347656 60.789062 318.597656 58.042969 315.851562 L 17.144531 315.851562 L 17.144531 274.949219 C 14.332031 272.140625 12.570312 270.378906 10.074219 267.878906 L 10.074219 65.136719 C 12.570312 62.636719 14.332031 60.875 17.144531 58.066406 L 17.144531 17.164062 L 58.042969 17.164062 C 60.789062 14.417969 62.539062 12.667969 64.949219 10.257812 L 191.574219 10.257812 L 208.5625 27.25 L 335.953125 27.25 L 336.394531 26.808594 C 338.632812 24.5625 340.550781 22.652344 342.351562 20.851562 L 352.945312 10.257812 L 479.558594 10.257812 C 481.972656 12.667969 483.722656 14.417969 486.464844 17.164062 L 527.367188 17.164062 L 527.367188 58.066406 C 530.175781 60.871094 531.9375 62.636719 534.4375 65.136719 Z M 534.4375 267.875 " fill-opacity="1" fill-rule="nonzero"/></g><path fill="#20b2ab" d="M 17.96875 62.957031 L 13.566406 67.355469 L 13.566406 266.253906 L 17.96875 270.65625 Z M 17.96875 62.957031 " fill-opacity="1" fill-rule="nonzero"/><path fill="#20b2ab" d="M 526.542969 62.957031 L 530.945312 67.355469 L 530.945312 266.253906 L 526.542969 270.65625 Z M 526.542969 62.957031 " fill-opacity="1" fill-rule="nonzero"/><path fill="#20b2ab" d="M 333.054688 21.117188 L 211.457031 21.117188 C 206.144531 15.804688 203.164062 12.824219 197.855469 7.515625 C 197.855469 7.515625 346.652344 7.515625 346.652344 7.515625 C 341.339844 12.824219 338.363281 15.804688 333.050781 21.117188 Z M 333.054688 21.117188 " fill-opacity="1" fill-rule="nonzero"/><path fill="#20b2ab" d="M 333.054688 312.371094 L 211.457031 312.371094 C 206.144531 317.683594 203.164062 320.660156 197.855469 325.972656 C 197.855469 325.972656 346.652344 325.972656 346.652344 325.972656 C 341.339844 320.660156 338.363281 317.683594 333.050781 312.371094 Z M 333.054688 312.371094 " fill-opacity="1" fill-rule="nonzero"/></svg>