<svg xmlns="http://www.w3.org/2000/svg" xmlns:xlink="http://www.w3.org/1999/xlink" width="789" zoomAndPan="magnify" viewBox="0 0 591.75 374.999991" height="500" preserveAspectRatio="xMidYMid meet" version="1.0"><defs><clipPath id="fcdb0c8158"><path d="M 0 0.078125 L 166 0.078125 L 166 374.917969 L 0 374.917969 Z M 0 0.078125 " clip-rule="nonzero"/></clipPath><clipPath id="6ac089faee"><path d="M 426 0.078125 L 591.5 0.078125 L 591.5 374.917969 L 426 374.917969 Z M 426 0.078125 " clip-rule="nonzero"/></clipPath></defs><g clip-path="url(#fcdb0c8158)"><path fill="#20b2ab" d="M 54.414062 10.101562 L 64.886719 20.566406 L 122.347656 20.566406 L 132.808594 10.101562 L 165.113281 10.101562 L 165.113281 0.078125 L 14.433594 0.078125 L 14.433594 26.917969 L 0.0703125 41.28125 L 0.0703125 168.457031 L 14.433594 182.820312 L 14.433594 374.921875 L 165.113281 374.921875 L 165.113281 364.898438 L 141.949219 364.898438 L 125.464844 348.421875 L 45.953125 348.421875 L 45.953125 323.246094 L 24.457031 301.757812 L 24.457031 10.101562 Z M 54.414062 10.101562 " fill-opacity="1" fill-rule="nonzero"/></g><g clip-path="url(#6ac089faee)"><path fill="#20b2ab" d="M 537.335938 10.101562 L 526.863281 20.566406 L 469.40625 20.566406 L 458.941406 10.101562 L 426.640625 10.101562 L 426.640625 0.078125 L 577.316406 0.078125 L 577.316406 26.917969 L 591.679688 41.28125 L 591.679688 168.457031 L 577.316406 182.820312 L 577.316406 374.921875 L 426.640625 374.921875 L 426.640625 364.898438 L 449.800781 364.898438 L 466.289062 348.421875 L 545.796875 348.421875 L 545.796875 323.246094 L 567.296875 301.757812 L 567.296875 10.101562 Z M 537.335938 10.101562 " fill-opacity="1" fill-rule="nonzero"/></g></svg>