<svg xmlns="http://www.w3.org/2000/svg" xmlns:xlink="http://www.w3.org/1999/xlink" width="927" zoomAndPan="magnify" viewBox="0 0 695.25 374.999991" height="500" preserveAspectRatio="xMidYMid meet" version="1.0"><defs><clipPath id="a9be6ce415"><path d="M 1 0.203125 L 694 0.203125 L 694 374.796875 L 1 374.796875 Z M 1 0.203125 " clip-rule="nonzero"/></clipPath></defs><g clip-path="url(#a9be6ce415)"><path fill="#20b2ab" d="M 641.402344 0.230469 L 53.355469 0.230469 L 1.289062 52.324219 L 1.289062 322.648438 L 53.355469 374.742188 L 641.402344 374.742188 L 693.472656 322.648438 L 693.472656 52.324219 Z M 640.257812 372.039062 L 229.101562 372.039062 L 219.65625 362.59375 L 77.082031 362.59375 L 31.757812 317.242188 L 31.757812 218.816406 L 4.019531 191.105469 L 4.019531 53.46875 L 54.5 2.960938 L 466.5 2.960938 L 475.949219 12.40625 L 618.523438 12.40625 L 663.847656 57.757812 L 663.847656 156.183594 L 690.769531 183.078125 L 690.769531 321.53125 Z M 640.257812 372.039062 " fill-opacity="1" fill-rule="nonzero"/></g></svg>