<svg xmlns="http://www.w3.org/2000/svg" xmlns:xlink="http://www.w3.org/1999/xlink" width="500" zoomAndPan="magnify" viewBox="0 0 375 112.499997" height="150" preserveAspectRatio="xMidYMid meet" version="1.0"><defs><clipPath id="e86f237144"><path d="M 187.5 0 L 374.167969 0 L 374.167969 112.003906 L 187.5 112.003906 Z M 187.5 0 " clip-rule="nonzero"/></clipPath><clipPath id="2c849a2e53"><path d="M 0.828125 0 L 187.5 0 L 187.5 112.003906 L 0.828125 112.003906 Z M 0.828125 0 " clip-rule="nonzero"/></clipPath></defs><g clip-path="url(#e86f237144)"><path fill="#20b2ab" d="M 201.410156 108.695312 L 193.46875 108.695312 L 187.523438 102.75 L 195.464844 102.75 Z M 299.90625 108.695312 L 206.046875 108.695312 L 200.101562 102.75 L 255.574219 102.75 L 258.953125 106.128906 L 297.339844 106.128906 Z M 207.914062 111.027344 L 302.203125 111.027344 L 303.285156 109.949219 L 365.542969 109.949219 L 366.5625 110.96875 L 303.707031 110.96875 L 302.621094 112.050781 L 208.9375 112.050781 Z M 370.863281 -60.757812 L 370.863281 -68.699219 L 364.917969 -74.644531 L 364.917969 -66.703125 Z M 370.863281 37.738281 L 370.863281 -56.121094 L 364.917969 -62.066406 L 364.917969 -6.59375 L 368.296875 -3.214844 L 368.296875 35.167969 Z M 373.195312 -54.253906 L 373.195312 40.035156 L 372.117188 41.117188 L 372.117188 103.375 L 373.136719 104.394531 L 373.136719 41.539062 L 374.21875 40.457031 L 374.21875 -53.230469 Z M 254.230469 98.5625 L 314.777344 98.5625 L 319.84375 103.628906 L 365.796875 103.628906 L 365.796875 57.675781 L 360.730469 52.609375 L 360.730469 -7.9375 L 365.796875 -2.871094 L 365.796875 36.300781 L 370.863281 41.371094 L 370.863281 108.699219 L 303.539062 108.699219 L 298.46875 103.632812 L 259.296875 103.632812 Z M 254.230469 98.5625 " fill-opacity="1" fill-rule="evenodd"/></g><g clip-path="url(#2c849a2e53)"><path fill="#20b2ab" d="M 173.589844 108.695312 L 181.53125 108.695312 L 187.476562 102.75 L 179.535156 102.75 Z M 75.09375 108.695312 L 168.953125 108.695312 L 174.898438 102.75 L 119.425781 102.75 L 116.046875 106.128906 L 77.660156 106.128906 Z M 167.085938 111.027344 L 72.796875 111.027344 L 71.714844 109.949219 L 9.457031 109.949219 L 8.4375 110.96875 L 71.292969 110.96875 L 72.378906 112.050781 L 166.0625 112.050781 Z M 4.136719 -60.757812 L 4.136719 -68.699219 L 10.082031 -74.644531 L 10.082031 -66.703125 Z M 4.136719 37.738281 L 4.136719 -56.121094 L 10.082031 -62.066406 L 10.082031 -6.59375 L 6.703125 -3.214844 L 6.703125 35.167969 Z M 1.804688 -54.253906 L 1.804688 40.035156 L 2.882812 41.117188 L 2.882812 103.375 L 1.863281 104.394531 L 1.863281 41.539062 L 0.78125 40.457031 L 0.78125 -53.230469 Z M 120.769531 98.5625 L 60.222656 98.5625 L 55.15625 103.628906 L 9.203125 103.628906 L 9.203125 57.675781 L 14.269531 52.609375 L 14.269531 -7.9375 L 9.203125 -2.871094 L 9.203125 36.300781 L 4.136719 41.371094 L 4.136719 108.699219 L 71.460938 108.699219 L 76.53125 103.632812 L 115.703125 103.632812 Z M 120.769531 98.5625 " fill-opacity="1" fill-rule="evenodd"/></g></svg>