<svg xmlns="http://www.w3.org/2000/svg" xmlns:xlink="http://www.w3.org/1999/xlink" width="500" zoomAndPan="magnify" viewBox="0 0 375 112.499997" height="150" preserveAspectRatio="xMidYMid meet" version="1.0"><defs><clipPath id="352113049b"><path d="M 0.828125 11.199219 L 374.167969 11.199219 L 374.167969 64.960938 L 0.828125 64.960938 Z M 0.828125 11.199219 " clip-rule="nonzero"/></clipPath></defs><g clip-path="url(#352113049b)"><path fill="#20b2ab" d="M 374.171875 11.289062 L 210.8125 11.289062 L 204.980469 17.121094 L 164.007812 17.121094 L 145.648438 35.472656 L 109.277344 35.472656 L 104.484375 40.269531 L 80.089844 40.269531 L 73.765625 46.59375 L 45.054688 46.59375 C 44.726562 44.746094 43.121094 43.34375 41.179688 43.34375 C 39.007812 43.34375 37.246094 45.105469 37.246094 47.277344 C 37.246094 49.453125 39.007812 51.214844 41.179688 51.214844 C 43.085938 51.214844 44.675781 49.863281 45.039062 48.0625 L 72.292969 48.0625 L 60.003906 60.355469 L 8.632812 60.355469 C 8.304688 58.515625 6.699219 57.121094 4.765625 57.121094 C 2.59375 57.121094 0.828125 58.882812 0.828125 61.054688 C 0.828125 63.226562 2.59375 64.992188 4.765625 64.992188 C 6.675781 64.992188 8.265625 63.632812 8.625 61.824219 L 60.617188 61.824219 L 74.378906 48.054688 L 98.773438 48.054688 L 105.097656 41.730469 L 141.46875 41.730469 L 146.261719 36.9375 L 187.238281 36.9375 L 205.59375 18.585938 L 335.277344 18.585938 L 335.492188 18.367188 C 335.492188 18.367188 338.316406 15.550781 341.113281 12.753906 L 374.171875 12.753906 Z M 98.160156 46.601562 L 75.855469 46.601562 L 80.703125 41.746094 L 103.003906 41.746094 Z M 140.855469 40.269531 L 106.574219 40.269531 L 109.890625 36.953125 L 144.171875 36.953125 Z M 186.625 35.472656 L 147.738281 35.472656 L 164.621094 18.589844 L 203.5 18.589844 Z M 334.664062 17.121094 L 207.070312 17.121094 L 211.421875 12.765625 L 339.023438 12.765625 C 337.066406 14.722656 335.269531 16.515625 334.664062 17.121094 Z M 334.664062 17.121094 " fill-opacity="1" fill-rule="nonzero"/></g><path fill="#20b2ab" d="M 206.863281 21.011719 L 190.679688 37.199219 L 201.378906 37.199219 L 217.578125 21.011719 Z M 206.863281 21.011719 " fill-opacity="1" fill-rule="nonzero"/><path fill="#20b2ab" d="M 221.136719 21.011719 L 204.949219 37.199219 L 215.65625 37.199219 L 231.84375 21.011719 Z M 221.136719 21.011719 " fill-opacity="1" fill-rule="nonzero"/><path fill="#20b2ab" d="M 235.40625 21.011719 L 219.21875 37.199219 L 229.925781 37.199219 L 246.113281 21.011719 Z M 235.40625 21.011719 " fill-opacity="1" fill-rule="nonzero"/><path fill="#20b2ab" d="M 249.675781 21.011719 L 233.496094 37.199219 L 244.195312 37.199219 L 260.390625 21.011719 Z M 249.675781 21.011719 " fill-opacity="1" fill-rule="nonzero"/><path fill="#20b2ab" d="M 263.953125 21.011719 L 247.765625 37.199219 L 258.464844 37.199219 L 274.660156 21.011719 Z M 263.953125 21.011719 " fill-opacity="1" fill-rule="nonzero"/><path fill="#20b2ab" d="M 262.035156 37.199219 L 272.742188 37.199219 L 288.929688 21.011719 L 278.222656 21.011719 Z M 262.035156 37.199219 " fill-opacity="1" fill-rule="nonzero"/></svg>