<svg xmlns="http://www.w3.org/2000/svg" xmlns:xlink="http://www.w3.org/1999/xlink" width="500" zoomAndPan="magnify" viewBox="0 0 375 112.499997" height="150" preserveAspectRatio="xMidYMid meet" version="1.0"><defs><clipPath id="d6626de3bc"><path d="M 43.808594 1 L 323.8125 1 L 323.8125 111 L 43.808594 111 Z M 43.808594 1 " clip-rule="nonzero"/></clipPath><clipPath id="9097ad7153"><path d="M 281 0.5 L 323.8125 0.5 L 323.8125 16 L 281 16 Z M 281 0.5 " clip-rule="nonzero"/></clipPath><clipPath id="677b023a85"><path d="M 77 95 L 164 95 L 164 111.753906 L 77 111.753906 Z M 77 95 " clip-rule="nonzero"/></clipPath><clipPath id="f0e586ad47"><path d="M 207 96 L 290 96 L 290 111.753906 L 207 111.753906 Z M 207 96 " clip-rule="nonzero"/></clipPath><clipPath id="8b447a04e3"><path d="M 311 98 L 323.8125 98 L 323.8125 111 L 311 111 Z M 311 98 " clip-rule="nonzero"/></clipPath><clipPath id="728257b425"><path d="M 43.808594 1 L 56 1 L 56 13 L 43.808594 13 Z M 43.808594 1 " clip-rule="nonzero"/></clipPath><clipPath id="0e5d2cc1f1"><path d="M 43.808594 104 L 50 104 L 50 111.753906 L 43.808594 111.753906 Z M 43.808594 104 " clip-rule="nonzero"/></clipPath></defs><g clip-path="url(#d6626de3bc)"><path fill="#20b2ab" d="M 51.875 109.644531 L 75.769531 109.644531 L 91.921875 93.5 L 149.085938 93.5 L 165.234375 109.644531 L 202.980469 109.644531 L 219.132812 93.5 L 276.300781 93.5 L 292.445312 109.644531 L 308.726562 109.644531 L 322.726562 95.644531 L 322.726562 18.679688 L 196.808594 18.679688 L 180.660156 2.53125 L 59.183594 2.53125 L 45.183594 16.53125 L 45.183594 102.957031 Z M 76.027344 110.878906 L 51.363281 110.878906 L 43.957031 103.472656 L 43.957031 16.019531 C 48.855469 11.113281 53.761719 6.207031 58.675781 1.300781 L 181.175781 1.300781 L 197.320312 17.445312 L 323.960938 17.445312 L 323.960938 96.160156 C 319.054688 101.066406 314.144531 105.972656 309.238281 110.878906 L 291.941406 110.878906 L 275.792969 94.730469 L 219.640625 94.730469 L 203.492188 110.878906 L 164.726562 110.878906 L 148.582031 94.730469 L 92.429688 94.730469 L 76.28125 110.878906 Z M 76.027344 110.878906 " fill-opacity="1" fill-rule="nonzero"/></g><path fill="#20b2ab" d="M 52.460938 108.230469 L 75.183594 108.230469 L 91.328125 92.078125 L 149.675781 92.078125 L 165.828125 108.230469 L 202.394531 108.230469 L 218.539062 92.078125 L 276.886719 92.078125 L 293.039062 108.230469 L 308.140625 108.230469 L 321.304688 95.058594 L 321.304688 20.097656 L 196.21875 20.097656 L 180.074219 3.953125 L 59.769531 3.953125 L 46.601562 17.121094 L 46.601562 102.371094 Z M 52.460938 108.230469 " fill-opacity="0.302" fill-rule="evenodd"/><g clip-path="url(#9097ad7153)"><path fill="#20b2ab" d="M 322.804688 15.890625 L 297.425781 15.800781 L 297.011719 15.640625 L 281.785156 1.566406 L 282.199219 0.5 L 323.425781 0.597656 L 323.425781 15.898438 Z M 297.671875 14.574219 L 322.191406 14.664062 L 322.191406 1.820312 L 283.773438 1.734375 Z M 297.671875 14.574219 " fill-opacity="1" fill-rule="nonzero"/></g><path fill="#20b2ab" d="M 201.1875 1.167969 L 216.082031 15.707031 L 199.8125 15.707031 L 184.792969 1.167969 Z M 201.1875 1.167969 " fill-opacity="1" fill-rule="evenodd"/><path fill="#20b2ab" d="M 220.601562 1.167969 L 235.488281 15.707031 L 219.226562 15.707031 L 204.199219 1.167969 Z M 220.601562 1.167969 " fill-opacity="1" fill-rule="evenodd"/><path fill="#20b2ab" d="M 240.007812 1.167969 L 254.898438 15.707031 L 238.632812 15.707031 L 223.613281 1.167969 Z M 240.007812 1.167969 " fill-opacity="1" fill-rule="evenodd"/><path fill="#20b2ab" d="M 259.421875 1.167969 L 274.304688 15.707031 L 258.046875 15.707031 L 243.019531 1.167969 Z M 259.421875 1.167969 " fill-opacity="1" fill-rule="evenodd"/><path fill="#20b2ab" d="M 278.828125 1.167969 L 293.71875 15.707031 L 277.453125 15.707031 L 262.433594 1.167969 Z M 278.828125 1.167969 " fill-opacity="1" fill-rule="evenodd"/><g clip-path="url(#677b023a85)"><path fill="#20b2ab" d="M 80.941406 110.257812 L 160.554688 110.257812 L 147.082031 96.71875 L 94.367188 96.773438 Z M 162.035156 111.492188 L 77.980469 111.492188 C 83.273438 106.179688 88.5625 100.859375 93.855469 95.546875 C 111.769531 95.523438 129.679688 95.5 147.585938 95.492188 L 163.515625 111.492188 Z M 162.035156 111.492188 " fill-opacity="1" fill-rule="nonzero"/></g><g clip-path="url(#f0e586ad47)"><path fill="#20b2ab" d="M 207.066406 111.058594 L 289.640625 111.058594 L 274.941406 96.285156 L 221.714844 96.339844 Z M 207.066406 111.058594 " fill-opacity="1" fill-rule="evenodd"/></g><g clip-path="url(#8b447a04e3)"><path fill="#20b2ab" d="M 311.800781 110.730469 L 323.804688 110.730469 L 323.804688 98.71875 Z M 311.800781 110.730469 " fill-opacity="1" fill-rule="evenodd"/></g><g clip-path="url(#728257b425)"><path fill="#20b2ab" d="M 55.375 1.253906 L 43.808594 1.253906 L 43.808594 12.820312 Z M 55.375 1.253906 " fill-opacity="1" fill-rule="evenodd"/></g><path fill="#20b2ab" d="M 80.933594 7.097656 C 79.730469 7.097656 78.75 8.078125 78.75 9.28125 C 78.75 10.484375 79.730469 11.464844 80.933594 11.464844 C 82.136719 11.464844 83.113281 10.484375 83.113281 9.28125 C 83.113281 8.078125 82.136719 7.097656 80.933594 7.097656 Z M 80.933594 7.097656 " fill-opacity="1" fill-rule="evenodd"/><path fill="#20b2ab" d="M 74.910156 7.097656 C 73.703125 7.097656 72.722656 8.078125 72.722656 9.28125 C 72.722656 10.484375 73.703125 11.464844 74.910156 11.464844 C 76.117188 11.464844 77.089844 10.484375 77.089844 9.28125 C 77.089844 8.078125 76.117188 7.097656 74.910156 7.097656 Z M 74.910156 7.097656 " fill-opacity="1" fill-rule="evenodd"/><path fill="#20b2ab" d="M 68.882812 7.097656 C 67.675781 7.097656 66.695312 8.078125 66.695312 9.28125 C 66.695312 10.484375 67.675781 11.464844 68.882812 11.464844 C 70.089844 11.464844 71.0625 10.484375 71.0625 9.28125 C 71.0625 8.078125 70.089844 7.097656 68.882812 7.097656 Z M 68.882812 7.097656 " fill-opacity="1" fill-rule="evenodd"/><path fill="#20b2ab" d="M 62.855469 7.097656 C 61.648438 7.097656 60.667969 8.078125 60.667969 9.28125 C 60.667969 10.484375 61.648438 11.464844 62.855469 11.464844 C 64.0625 11.464844 65.035156 10.484375 65.035156 9.28125 C 65.035156 8.078125 64.0625 7.097656 62.855469 7.097656 Z M 62.855469 7.097656 " fill-opacity="1" fill-rule="evenodd"/><path fill="#20b2ab" d="M 85.570312 9.3125 C 85.570312 9.625 85.820312 9.878906 86.136719 9.878906 L 109.660156 9.878906 C 109.976562 9.878906 110.226562 9.625 110.226562 9.3125 C 110.226562 9 109.976562 8.746094 109.660156 8.746094 L 86.136719 8.746094 C 85.820312 8.746094 85.570312 9 85.570312 9.3125 Z M 85.570312 9.3125 " fill-opacity="1" fill-rule="evenodd"/><path fill="#20b2ab" d="M 112.714844 9.3125 C 112.714844 9.625 112.96875 9.878906 113.28125 9.878906 L 120.066406 9.878906 C 120.382812 9.878906 120.636719 9.625 120.636719 9.3125 C 120.636719 9 120.382812 8.746094 120.066406 8.746094 L 113.28125 8.746094 C 112.96875 8.746094 112.714844 9 112.714844 9.3125 Z M 112.714844 9.3125 " fill-opacity="1" fill-rule="evenodd"/><path fill="#20b2ab" d="M 317.300781 24.105469 C 317.613281 24.105469 317.867188 24.367188 317.867188 24.671875 L 317.867188 48.199219 C 317.867188 48.511719 317.613281 48.765625 317.300781 48.765625 C 316.992188 48.765625 316.734375 48.511719 316.734375 48.199219 L 316.734375 24.671875 C 316.734375 24.367188 316.992188 24.105469 317.300781 24.105469 Z M 317.300781 24.105469 " fill-opacity="1" fill-rule="evenodd"/><path fill="#20b2ab" d="M 317.300781 51.253906 C 317.613281 51.253906 317.867188 51.511719 317.867188 51.820312 L 317.867188 58.605469 C 317.867188 58.917969 317.613281 59.171875 317.300781 59.171875 C 316.992188 59.171875 316.734375 58.917969 316.734375 58.605469 L 316.734375 51.820312 C 316.734375 51.511719 316.992188 51.253906 317.300781 51.253906 Z M 317.300781 51.253906 " fill-opacity="1" fill-rule="evenodd"/><path fill="#20b2ab" d="M 50.695312 98.285156 C 51.003906 98.285156 51.261719 98.03125 51.261719 97.71875 L 51.261719 74.191406 C 51.261719 73.886719 51.003906 73.625 50.695312 73.625 C 50.382812 73.625 50.128906 73.886719 50.128906 74.191406 L 50.128906 97.71875 C 50.128906 98.03125 50.382812 98.285156 50.695312 98.285156 Z M 50.695312 98.285156 " fill-opacity="1" fill-rule="evenodd"/><path fill="#20b2ab" d="M 50.695312 71.136719 C 51.003906 71.136719 51.261719 70.886719 51.261719 70.570312 L 51.261719 63.785156 C 51.261719 63.480469 51.003906 63.21875 50.695312 63.21875 C 50.382812 63.21875 50.128906 63.480469 50.128906 63.785156 L 50.128906 70.570312 C 50.128906 70.886719 50.382812 71.136719 50.695312 71.136719 Z M 50.695312 71.136719 " fill-opacity="1" fill-rule="evenodd"/><g clip-path="url(#0e5d2cc1f1)"><path fill="#20b2ab" d="M 49.890625 111.03125 L 43.855469 111.03125 L 43.855469 104.992188 Z M 49.890625 111.03125 " fill-opacity="1" fill-rule="evenodd"/></g></svg>