<svg xmlns="http://www.w3.org/2000/svg" xmlns:xlink="http://www.w3.org/1999/xlink" width="500" zoomAndPan="magnify" viewBox="0 0 375 112.499997" height="150" preserveAspectRatio="xMidYMid meet" version="1.0"><defs><clipPath id="ed41d39833"><path d="M 11 38 L 364 38 L 364 75.890625 L 11 75.890625 Z M 11 38 " clip-rule="nonzero"/></clipPath><clipPath id="33fb7ba547"><path d="M 0.828125 38 L 374.167969 38 L 374.167969 62 L 0.828125 62 Z M 0.828125 38 " clip-rule="nonzero"/></clipPath><clipPath id="c1927d6dbc"><path d="M 0.828125 36.316406 L 374.167969 36.316406 L 374.167969 60 L 0.828125 60 Z M 0.828125 36.316406 " clip-rule="nonzero"/></clipPath></defs><g clip-path="url(#ed41d39833)"><path fill="#20b2ab" d="M 187.5 38.980469 L 204.765625 38.980469 L 209.3125 43.527344 L 199.714844 60.148438 L 190.78125 75.621094 L 190.78125 75.613281 L 184.210938 75.613281 L 184.210938 75.621094 L 175.277344 60.148438 L 165.679688 43.527344 L 170.226562 38.980469 Z M 363.285156 50.839844 L 208.445312 50.839844 L 195.722656 72.878906 L 350.5625 72.878906 Z M 11.714844 50.839844 L 166.554688 50.839844 L 179.277344 72.878906 L 24.4375 72.878906 Z M 11.714844 50.839844 " fill-opacity="1" fill-rule="evenodd"/></g><g clip-path="url(#33fb7ba547)"><path fill="#099690" d="M 190.726562 38.394531 L 192.144531 41 L 187.5 49.542969 L 182.847656 41 L 184.265625 38.394531 Z M 148.636719 45.667969 L 162.394531 45.667969 L 163.980469 48.410156 L 150.222656 48.410156 Z M 134.1875 45.667969 L 146.675781 45.667969 L 148.257812 48.410156 L 135.769531 48.410156 Z M 119.734375 45.667969 L 132.222656 45.667969 L 133.808594 48.410156 L 121.320312 48.410156 Z M 105.285156 45.667969 L 117.773438 45.667969 L 119.355469 48.410156 L 106.871094 48.410156 Z M 85.347656 45.667969 L 103.328125 45.667969 L 104.914062 48.410156 L 86.929688 48.410156 Z M 226.363281 45.667969 L 212.605469 45.667969 L 211.019531 48.410156 L 224.777344 48.410156 Z M 240.8125 45.667969 L 228.324219 45.667969 L 226.742188 48.410156 L 239.230469 48.410156 Z M 255.265625 45.667969 L 242.777344 45.667969 L 241.191406 48.410156 L 253.679688 48.410156 Z M 269.714844 45.667969 L 257.226562 45.667969 L 255.644531 48.410156 L 268.128906 48.410156 Z M 289.652344 45.667969 L 271.671875 45.667969 L 270.085938 48.410156 L 288.070312 48.410156 Z M 210.039062 50.109375 L 288.875 50.109375 L 291.441406 45.667969 L 374.171875 45.667969 L 367.710938 56.859375 L 288.875 56.859375 L 286.304688 61.300781 L 203.566406 61.300781 Z M 164.960938 50.109375 L 86.125 50.109375 L 83.558594 45.667969 L 0.828125 45.667969 L 7.289062 56.859375 L 86.125 56.859375 L 88.695312 61.300781 L 171.421875 61.300781 Z M 164.960938 50.109375 " fill-opacity="1" fill-rule="evenodd"/></g><g clip-path="url(#c1927d6dbc)"><path fill="#20b2ab" d="M 190.726562 36.375 L 192.144531 38.980469 L 187.5 47.523438 L 182.847656 38.980469 L 184.265625 36.375 Z M 148.636719 43.648438 L 162.394531 43.648438 L 163.980469 46.390625 L 150.222656 46.390625 Z M 134.1875 43.648438 L 146.675781 43.648438 L 148.257812 46.390625 L 135.769531 46.390625 Z M 119.734375 43.648438 L 132.222656 43.648438 L 133.808594 46.390625 L 121.320312 46.390625 Z M 105.285156 43.648438 L 117.773438 43.648438 L 119.355469 46.390625 L 106.871094 46.390625 Z M 85.347656 43.648438 L 103.328125 43.648438 L 104.914062 46.390625 L 86.929688 46.390625 Z M 226.363281 43.648438 L 212.605469 43.648438 L 211.019531 46.390625 L 224.777344 46.390625 Z M 240.8125 43.648438 L 228.324219 43.648438 L 226.742188 46.390625 L 239.230469 46.390625 Z M 255.265625 43.648438 L 242.777344 43.648438 L 241.191406 46.390625 L 253.679688 46.390625 Z M 269.714844 43.648438 L 257.226562 43.648438 L 255.644531 46.390625 L 268.128906 46.390625 Z M 289.652344 43.648438 L 271.671875 43.648438 L 270.085938 46.390625 L 288.070312 46.390625 Z M 210.039062 48.089844 L 288.875 48.089844 L 291.441406 43.648438 L 374.171875 43.648438 L 367.710938 54.839844 L 288.875 54.839844 L 286.304688 59.28125 L 203.566406 59.28125 Z M 164.960938 48.089844 L 86.125 48.089844 L 83.558594 43.648438 L 0.828125 43.648438 L 7.289062 54.839844 L 86.125 54.839844 L 88.695312 59.28125 L 171.421875 59.28125 Z M 164.960938 48.089844 " fill-opacity="1" fill-rule="evenodd"/></g></svg>