<svg xmlns="http://www.w3.org/2000/svg" xmlns:xlink="http://www.w3.org/1999/xlink" width="500" zoomAndPan="magnify" viewBox="0 0 375 112.499997" height="150" preserveAspectRatio="xMidYMid meet" version="1.0"><defs><clipPath id="6f8d5bfb47"><path d="M 2 6 L 180 6 L 180 20.253906 L 2 20.253906 Z M 2 6 " clip-rule="nonzero"/></clipPath><clipPath id="14c7920fa2"><path d="M 0.828125 2.332031 L 187 2.332031 L 187 17 L 0.828125 17 Z M 0.828125 2.332031 " clip-rule="nonzero"/></clipPath><clipPath id="d297d7ab30"><path d="M 195 6 L 373 6 L 373 20.253906 L 195 20.253906 Z M 195 6 " clip-rule="nonzero"/></clipPath><clipPath id="f61bd1ef16"><path d="M 188 2.332031 L 374.167969 2.332031 L 374.167969 17 L 188 17 Z M 188 2.332031 " clip-rule="nonzero"/></clipPath></defs><g clip-path="url(#6f8d5bfb47)"><path fill="#20b2ab" d="M 179.316406 6.304688 L 174.789062 11.28125 L 21.519531 11.28125 L 13.527344 20.0625 L 2.507812 20.0625 L 15.019531 6.304688 Z M 179.316406 6.304688 " fill-opacity="1" fill-rule="nonzero"/></g><g clip-path="url(#14c7920fa2)"><path fill="#20b2ab" d="M 12.875 16.5 L 0.828125 16.5 L 14.253906 2.332031 L 186.007812 2.332031 L 180.90625 7.714844 L 21.203125 7.714844 Z M 1.78125 16.089844 L 12.703125 16.089844 L 21.027344 7.304688 L 180.730469 7.304688 L 185.054688 2.742188 L 14.425781 2.742188 Z M 1.78125 16.089844 " fill-opacity="1" fill-rule="nonzero"/></g><path fill="#20b2ab" d="M 92.875 19.382812 L 19.113281 19.382812 L 24.730469 13.207031 L 98.496094 13.207031 Z M 92.875 19.382812 " fill-opacity="1" fill-rule="nonzero"/><path fill="#20b2ab" d="M 101.421875 13.207031 L 104.828125 13.207031 L 104.828125 19.382812 L 95.804688 19.382812 Z M 101.421875 13.207031 " fill-opacity="1" fill-rule="nonzero"/><path fill="#20b2ab" d="M 106.59375 13.207031 L 108.921875 13.207031 L 108.921875 19.382812 L 106.59375 19.382812 Z M 106.59375 13.207031 " fill-opacity="1" fill-rule="nonzero"/><path fill="#20b2ab" d="M 110.6875 13.207031 L 113.011719 13.207031 L 113.011719 19.382812 L 110.6875 19.382812 Z M 110.6875 13.207031 " fill-opacity="1" fill-rule="nonzero"/><path fill="#20b2ab" d="M 114.777344 13.207031 L 117.101562 13.207031 L 117.101562 19.382812 L 114.777344 19.382812 Z M 114.777344 13.207031 " fill-opacity="1" fill-rule="nonzero"/><path fill="#20b2ab" d="M 118.867188 13.207031 L 121.195312 13.207031 L 121.195312 19.382812 L 118.867188 19.382812 Z M 118.867188 13.207031 " fill-opacity="1" fill-rule="nonzero"/><path fill="#20b2ab" d="M 122.960938 13.207031 L 125.285156 13.207031 L 125.285156 19.382812 L 122.960938 19.382812 Z M 122.960938 13.207031 " fill-opacity="1" fill-rule="nonzero"/><path fill="#20b2ab" d="M 127.050781 13.207031 L 129.378906 13.207031 L 129.378906 19.382812 L 127.050781 19.382812 Z M 127.050781 13.207031 " fill-opacity="1" fill-rule="nonzero"/><path fill="#20b2ab" d="M 131.140625 13.207031 L 133.46875 13.207031 L 133.46875 19.382812 L 131.140625 19.382812 Z M 131.140625 13.207031 " fill-opacity="1" fill-rule="nonzero"/><path fill="#20b2ab" d="M 135.234375 13.207031 L 137.558594 13.207031 L 137.558594 19.382812 L 135.234375 19.382812 Z M 135.234375 13.207031 " fill-opacity="1" fill-rule="nonzero"/><path fill="#20b2ab" d="M 139.324219 13.207031 L 141.652344 13.207031 L 141.652344 19.382812 L 139.324219 19.382812 Z M 139.324219 13.207031 " fill-opacity="1" fill-rule="nonzero"/><path fill="#20b2ab" d="M 143.414062 13.207031 L 145.742188 13.207031 L 145.742188 19.382812 L 143.414062 19.382812 Z M 143.414062 13.207031 " fill-opacity="1" fill-rule="nonzero"/><path fill="#20b2ab" d="M 147.507812 13.207031 L 149.832031 13.207031 L 149.832031 19.382812 L 147.507812 19.382812 Z M 147.507812 13.207031 " fill-opacity="1" fill-rule="nonzero"/><path fill="#20b2ab" d="M 151.597656 13.207031 L 153.925781 13.207031 L 153.925781 19.382812 L 151.597656 19.382812 Z M 151.597656 13.207031 " fill-opacity="1" fill-rule="nonzero"/><path fill="#20b2ab" d="M 155.691406 13.207031 L 158.015625 13.207031 L 158.015625 19.382812 L 155.691406 19.382812 Z M 155.691406 13.207031 " fill-opacity="1" fill-rule="nonzero"/><path fill="#20b2ab" d="M 159.78125 13.207031 L 162.109375 13.207031 L 162.109375 19.382812 L 159.78125 19.382812 Z M 159.78125 13.207031 " fill-opacity="1" fill-rule="nonzero"/><path fill="#20b2ab" d="M 163.871094 13.207031 L 166.199219 13.207031 L 166.199219 19.382812 L 163.871094 19.382812 Z M 163.871094 13.207031 " fill-opacity="1" fill-rule="nonzero"/><path fill="#20b2ab" d="M 175.1875 13.207031 L 169.570312 19.382812 L 167.964844 19.382812 L 167.964844 13.207031 Z M 175.1875 13.207031 " fill-opacity="1" fill-rule="nonzero"/><g clip-path="url(#d297d7ab30)"><path fill="#20b2ab" d="M 195.683594 6.304688 L 200.210938 11.28125 L 353.480469 11.28125 L 361.472656 20.0625 L 372.492188 20.0625 L 359.980469 6.304688 Z M 195.683594 6.304688 " fill-opacity="1" fill-rule="nonzero"/></g><g clip-path="url(#f61bd1ef16)"><path fill="#20b2ab" d="M 374.171875 16.5 L 362.121094 16.5 L 353.796875 7.714844 L 194.09375 7.714844 L 188.992188 2.332031 L 360.746094 2.332031 Z M 362.296875 16.089844 L 373.21875 16.089844 L 360.570312 2.742188 L 189.9375 2.742188 L 194.265625 7.304688 L 353.972656 7.304688 Z M 362.296875 16.089844 " fill-opacity="1" fill-rule="nonzero"/></g><path fill="#20b2ab" d="M 282.125 19.382812 L 355.886719 19.382812 L 350.269531 13.207031 L 276.503906 13.207031 Z M 282.125 19.382812 " fill-opacity="1" fill-rule="nonzero"/><path fill="#20b2ab" d="M 273.578125 13.207031 L 270.171875 13.207031 L 270.171875 19.382812 L 279.195312 19.382812 Z M 273.578125 13.207031 " fill-opacity="1" fill-rule="nonzero"/><path fill="#20b2ab" d="M 266.078125 13.207031 L 268.40625 13.207031 L 268.40625 19.382812 L 266.078125 19.382812 Z M 266.078125 13.207031 " fill-opacity="1" fill-rule="nonzero"/><path fill="#20b2ab" d="M 261.988281 13.207031 L 264.3125 13.207031 L 264.3125 19.382812 L 261.988281 19.382812 Z M 261.988281 13.207031 " fill-opacity="1" fill-rule="nonzero"/><path fill="#20b2ab" d="M 257.898438 13.207031 L 260.222656 13.207031 L 260.222656 19.382812 L 257.898438 19.382812 Z M 257.898438 13.207031 " fill-opacity="1" fill-rule="nonzero"/><path fill="#20b2ab" d="M 253.804688 13.207031 L 256.132812 13.207031 L 256.132812 19.382812 L 253.804688 19.382812 Z M 253.804688 13.207031 " fill-opacity="1" fill-rule="nonzero"/><path fill="#20b2ab" d="M 249.714844 13.207031 L 252.039062 13.207031 L 252.039062 19.382812 L 249.714844 19.382812 Z M 249.714844 13.207031 " fill-opacity="1" fill-rule="nonzero"/><path fill="#20b2ab" d="M 245.621094 13.207031 L 247.949219 13.207031 L 247.949219 19.382812 L 245.621094 19.382812 Z M 245.621094 13.207031 " fill-opacity="1" fill-rule="nonzero"/><path fill="#20b2ab" d="M 241.53125 13.207031 L 243.859375 13.207031 L 243.859375 19.382812 L 241.53125 19.382812 Z M 241.53125 13.207031 " fill-opacity="1" fill-rule="nonzero"/><path fill="#20b2ab" d="M 237.441406 13.207031 L 239.765625 13.207031 L 239.765625 19.382812 L 237.441406 19.382812 Z M 237.441406 13.207031 " fill-opacity="1" fill-rule="nonzero"/><path fill="#20b2ab" d="M 233.347656 13.207031 L 235.675781 13.207031 L 235.675781 19.382812 L 233.347656 19.382812 Z M 233.347656 13.207031 " fill-opacity="1" fill-rule="nonzero"/><path fill="#20b2ab" d="M 229.257812 13.207031 L 231.585938 13.207031 L 231.585938 19.382812 L 229.257812 19.382812 Z M 229.257812 13.207031 " fill-opacity="1" fill-rule="nonzero"/><path fill="#20b2ab" d="M 225.167969 13.207031 L 227.492188 13.207031 L 227.492188 19.382812 L 225.167969 19.382812 Z M 225.167969 13.207031 " fill-opacity="1" fill-rule="nonzero"/><path fill="#20b2ab" d="M 221.074219 13.207031 L 223.402344 13.207031 L 223.402344 19.382812 L 221.074219 19.382812 Z M 221.074219 13.207031 " fill-opacity="1" fill-rule="nonzero"/><path fill="#20b2ab" d="M 216.984375 13.207031 L 219.308594 13.207031 L 219.308594 19.382812 L 216.984375 19.382812 Z M 216.984375 13.207031 " fill-opacity="1" fill-rule="nonzero"/><path fill="#20b2ab" d="M 212.890625 13.207031 L 215.21875 13.207031 L 215.21875 19.382812 L 212.890625 19.382812 Z M 212.890625 13.207031 " fill-opacity="1" fill-rule="nonzero"/><path fill="#20b2ab" d="M 208.800781 13.207031 L 211.128906 13.207031 L 211.128906 19.382812 L 208.800781 19.382812 Z M 208.800781 13.207031 " fill-opacity="1" fill-rule="nonzero"/><path fill="#20b2ab" d="M 199.8125 13.207031 L 205.429688 19.382812 L 207.035156 19.382812 L 207.035156 13.207031 Z M 199.8125 13.207031 " fill-opacity="1" fill-rule="nonzero"/><path fill="#20b2ab" d="M 202.4375 19.625 L 172.21875 19.625 L 187.328125 3.242188 Z M 174.566406 18.597656 L 200.089844 18.597656 L 187.335938 4.757812 Z M 174.566406 18.597656 " fill-opacity="1" fill-rule="nonzero"/><path fill="#20b2ab" d="M 187.328125 7.796875 L 178.644531 17.214844 L 196.011719 17.214844 Z M 187.328125 7.796875 " fill-opacity="1" fill-rule="nonzero"/></svg>