<svg xmlns="http://www.w3.org/2000/svg" xmlns:xlink="http://www.w3.org/1999/xlink" width="500" zoomAndPan="magnify" viewBox="0 0 375 112.499997" height="150" preserveAspectRatio="xMidYMid meet" version="1.0"><defs><clipPath id="d56d700bc2"><path d="M 2 44 L 373 44 L 373 76.585938 L 2 76.585938 Z M 2 44 " clip-rule="nonzero"/></clipPath><clipPath id="13cb62d4f1"><path d="M 173 39.25 L 202 39.25 L 202 56 L 173 56 Z M 173 39.25 " clip-rule="nonzero"/></clipPath></defs><path fill="#20b2ab" d="M 217.722656 55.921875 L 361.996094 55.921875 L 354.273438 69.292969 L 343.660156 75.425781 L 212.519531 75.425781 L 209.488281 70.171875 Z M 157.277344 55.921875 L 13.011719 55.921875 L 20.734375 69.292969 L 31.347656 75.425781 L 162.488281 75.425781 L 165.519531 70.171875 Z M 157.277344 55.921875 " fill-opacity="1" fill-rule="evenodd"/><g clip-path="url(#d56d700bc2)"><path fill="#099690" d="M 157.976562 48.621094 L 68.035156 48.621094 L 68.929688 50.175781 L 134.058594 50.175781 L 136.335938 54.125 L 161.136719 54.125 Z M 372.859375 47.429688 L 309.011719 47.429688 L 306.597656 51.613281 L 242.332031 51.613281 L 239.84375 55.921875 L 212.804688 55.921875 L 207.140625 65.734375 L 237.355469 65.734375 L 239.84375 61.425781 L 304.183594 61.425781 L 306.597656 57.238281 L 367.191406 57.238281 Z M 217.023438 48.621094 L 306.964844 48.621094 L 306.070312 50.175781 L 240.941406 50.175781 L 238.664062 54.125 L 213.863281 54.125 Z M 2.140625 47.429688 L 65.988281 47.429688 L 68.402344 51.613281 L 132.667969 51.613281 L 135.15625 55.921875 L 162.195312 55.921875 L 167.859375 65.734375 L 137.644531 65.734375 L 135.15625 61.425781 L 70.816406 61.425781 L 68.402344 57.238281 L 7.808594 57.238281 Z M 215.21875 44.964844 L 159.78125 44.964844 L 171.566406 65.375 L 164.949219 76.839844 L 210.042969 76.839844 L 203.425781 65.375 Z M 215.21875 44.964844 " fill-opacity="1" fill-rule="evenodd"/></g><path fill="#20b2ab" d="M 157.976562 46.046875 L 68.035156 46.046875 L 68.929688 47.597656 L 134.058594 47.597656 L 136.335938 51.550781 L 161.136719 51.550781 Z M 372.859375 44.851562 L 309.011719 44.851562 L 306.597656 49.039062 L 242.332031 49.039062 L 239.84375 53.347656 L 212.804688 53.347656 L 207.140625 63.15625 L 237.355469 63.15625 L 239.84375 58.847656 L 304.183594 58.847656 L 306.597656 54.664062 L 367.191406 54.664062 Z M 217.023438 46.046875 L 306.964844 46.046875 L 306.070312 47.597656 L 240.941406 47.597656 L 238.664062 51.550781 L 213.863281 51.550781 Z M 2.140625 44.851562 L 65.988281 44.851562 L 68.402344 49.039062 L 132.667969 49.039062 L 135.15625 53.347656 L 162.195312 53.347656 L 167.859375 63.15625 L 137.644531 63.15625 L 135.15625 58.847656 L 70.816406 58.847656 L 68.402344 54.664062 L 7.808594 54.664062 Z M 215.21875 42.394531 L 159.78125 42.394531 L 171.566406 62.808594 L 164.949219 74.269531 L 210.042969 74.269531 L 203.425781 62.808594 Z M 215.21875 42.394531 " fill-opacity="1" fill-rule="evenodd"/><g clip-path="url(#13cb62d4f1)"><path fill="#20b2ab" d="M 183.621094 39.21875 L 187.5 45.941406 L 191.378906 39.21875 L 201.605469 39.21875 L 191.960938 55.921875 L 183.039062 55.921875 L 173.394531 39.21875 Z M 183.621094 39.21875 " fill-opacity="1" fill-rule="evenodd"/></g></svg>