<svg xmlns="http://www.w3.org/2000/svg" xmlns:xlink="http://www.w3.org/1999/xlink" width="500" zoomAndPan="magnify" viewBox="0 0 375 112.499997" height="150" preserveAspectRatio="xMidYMid meet" version="1.0"><defs><clipPath id="4617946dba"><path d="M 0.828125 20 L 374.167969 20 L 374.167969 69.441406 L 0.828125 69.441406 Z M 0.828125 20 " clip-rule="nonzero"/></clipPath><clipPath id="f3e2973291"><path d="M 26 11.199219 L 349 11.199219 L 349 65 L 26 65 Z M 26 11.199219 " clip-rule="nonzero"/></clipPath></defs><g clip-path="url(#4617946dba)"><path fill="#20b2ab" d="M 187.53125 69.324219 L 187.546875 69.324219 L 236.351562 20.523438 L 138.730469 20.523438 Z M 210.523438 65.511719 L 245.4375 30.597656 L 374.226562 30.597656 L 353.679688 51.148438 L 271.695312 51.148438 L 256.414062 65.480469 L 210.542969 65.480469 M 164.554688 65.511719 L 129.640625 30.597656 L 0.855469 30.597656 L 21.402344 51.148438 L 103.386719 51.148438 L 118.667969 65.480469 L 164.539062 65.480469 " fill-opacity="1" fill-rule="evenodd"/></g><path fill="#099690" d="M 89.816406 57.613281 L 84.828125 52.582031 L 59.59375 52.710938 L 64.578125 57.742188 Z M 122.933594 57.613281 L 117.945312 52.582031 L 92.710938 52.710938 L 97.699219 57.742188 Z M 173.5625 66.410156 L 119.960938 12.90625 L 115.769531 12.90625 L 169.273438 66.410156 Z M 180.515625 66.410156 L 126.914062 12.90625 L 122.722656 12.90625 L 176.226562 66.410156 Z M 285.265625 57.613281 L 290.25 52.582031 L 315.488281 52.710938 L 310.5 57.742188 Z M 252.148438 57.613281 L 257.132812 52.582031 L 282.367188 52.710938 L 277.382812 57.742188 Z M 201.515625 66.410156 L 255.117188 12.90625 L 259.3125 12.90625 L 205.808594 66.410156 Z M 194.566406 66.410156 L 248.167969 12.90625 L 252.359375 12.90625 L 198.855469 66.410156 Z M 187.539062 16.6875 L 202.449219 16.6875 L 211.195312 25.53125 L 211.195312 32.566406 L 193.019531 50.742188 L 190.242188 45.945312 L 184.828125 45.945312 L 182.054688 50.742188 L 163.875 32.566406 L 163.875 25.53125 L 172.625 16.6875 Z M 318.382812 57.613281 L 323.371094 52.582031 L 348.605469 52.710938 L 343.617188 57.742188 Z M 56.695312 57.613281 L 51.710938 52.582031 L 26.476562 52.710938 L 31.460938 57.742188 Z M 56.695312 57.613281 " fill-opacity="1" fill-rule="evenodd"/><g clip-path="url(#f3e2973291)"><path fill="#20b2ab" d="M 89.816406 56.117188 L 84.828125 51.082031 L 59.585938 51.210938 L 64.570312 56.246094 Z M 122.933594 56.117188 L 117.945312 51.082031 L 92.710938 51.210938 L 97.699219 56.246094 Z M 173.5625 64.914062 L 119.960938 11.410156 L 115.769531 11.410156 L 169.273438 64.914062 Z M 180.515625 64.914062 L 126.914062 11.410156 L 122.722656 11.410156 L 176.226562 64.914062 Z M 285.265625 56.117188 L 290.25 51.082031 L 315.488281 51.210938 L 310.5 56.246094 Z M 252.148438 56.117188 L 257.132812 51.082031 L 282.367188 51.210938 L 277.382812 56.246094 Z M 201.515625 64.914062 L 255.117188 11.410156 L 259.3125 11.410156 L 205.808594 64.914062 Z M 194.566406 64.914062 L 248.167969 11.410156 L 252.359375 11.410156 L 198.855469 64.914062 Z M 187.539062 15.1875 L 202.449219 15.1875 L 211.195312 24.035156 L 211.195312 31.070312 L 193.019531 49.246094 L 190.242188 44.445312 L 184.828125 44.445312 L 182.054688 49.246094 L 163.875 31.070312 L 163.875 24.035156 L 172.625 15.1875 Z M 318.382812 56.117188 L 323.371094 51.082031 L 348.605469 51.210938 L 343.617188 56.246094 Z M 56.695312 56.117188 L 51.710938 51.082031 L 26.476562 51.210938 L 31.460938 56.246094 Z M 56.695312 56.117188 " fill-opacity="1" fill-rule="evenodd"/></g></svg>