<svg xmlns="http://www.w3.org/2000/svg" xmlns:xlink="http://www.w3.org/1999/xlink" width="500" zoomAndPan="magnify" viewBox="0 0 375 112.499997" height="150" preserveAspectRatio="xMidYMid meet" version="1.0"><defs><clipPath id="3c92a2d1ea"><path d="M 170.917969 0 L 374.015625 0 L 374.015625 112.003906 L 170.917969 112.003906 Z M 170.917969 0 " clip-rule="nonzero"/></clipPath><clipPath id="11e7420407"><path d="M 0.980469 0 L 203.925781 0 L 203.925781 112.003906 L 0.980469 112.003906 Z M 0.980469 0 " clip-rule="nonzero"/></clipPath></defs><g clip-path="url(#3c92a2d1ea)"><path fill="#20b2ab" d="M 186.0625 109.222656 L 177.417969 109.222656 L 170.941406 102.75 L 179.589844 102.75 Z M 293.304688 109.222656 L 191.109375 109.222656 L 184.636719 102.75 L 245.039062 102.75 L 248.714844 106.425781 L 290.507812 106.425781 Z M 193.144531 111.761719 L 295.808594 111.761719 L 296.984375 110.585938 L 364.769531 110.585938 L 365.882812 111.699219 L 297.441406 111.699219 L 296.261719 112.875 L 194.257812 112.875 Z M 370.566406 -75.28125 L 370.566406 -83.925781 L 364.09375 -90.402344 L 364.09375 -81.753906 Z M 370.566406 31.960938 L 370.566406 -70.230469 L 364.09375 -76.707031 L 364.09375 -16.304688 L 367.769531 -12.628906 L 367.769531 29.167969 Z M 373.105469 -68.199219 L 373.105469 34.464844 L 371.929688 35.640625 L 371.929688 103.429688 L 373.042969 104.539062 L 373.042969 36.101562 L 374.21875 34.925781 L 374.21875 -67.085938 Z M 243.574219 98.1875 L 309.496094 98.1875 L 315.015625 103.703125 L 365.046875 103.703125 L 365.046875 53.671875 L 359.53125 48.152344 L 359.53125 -17.769531 L 365.046875 -12.25 L 365.046875 30.398438 L 370.566406 35.917969 L 370.566406 109.226562 L 297.261719 109.226562 L 291.742188 103.710938 L 249.09375 103.710938 Z M 243.574219 98.1875 " fill-opacity="1" fill-rule="evenodd"/></g><g clip-path="url(#11e7420407)"><path fill="#20b2ab" d="M 188.929688 109.222656 L 197.578125 109.222656 L 204.050781 102.75 L 195.40625 102.75 Z M 81.691406 109.222656 L 183.882812 109.222656 L 190.359375 102.75 L 129.957031 102.75 L 126.28125 106.425781 L 84.484375 106.425781 Z M 181.851562 111.761719 L 79.1875 111.761719 L 78.011719 110.585938 L 10.222656 110.585938 L 9.109375 111.699219 L 77.550781 111.699219 L 78.734375 112.875 L 180.738281 112.875 Z M 4.429688 -75.28125 L 4.429688 -83.925781 L 10.902344 -90.402344 L 10.902344 -81.753906 Z M 4.429688 31.960938 L 4.429688 -70.230469 L 10.902344 -76.707031 L 10.902344 -16.304688 L 7.226562 -12.628906 L 7.226562 29.167969 Z M 1.890625 -68.199219 L 1.890625 34.464844 L 3.066406 35.640625 L 3.066406 103.429688 L 1.953125 104.539062 L 1.953125 36.101562 L 0.777344 34.925781 L 0.777344 -67.085938 Z M 131.421875 98.1875 L 65.5 98.1875 L 59.980469 103.703125 L 9.945312 103.703125 L 9.945312 53.671875 L 15.464844 48.152344 L 15.464844 -17.769531 L 9.945312 -12.25 L 9.945312 30.398438 L 4.429688 35.917969 L 4.429688 109.226562 L 77.734375 109.226562 L 83.253906 103.710938 L 125.902344 103.710938 Z M 131.421875 98.1875 " fill-opacity="1" fill-rule="evenodd"/></g></svg>