<svg xmlns="http://www.w3.org/2000/svg" xmlns:xlink="http://www.w3.org/1999/xlink" width="500" zoomAndPan="magnify" viewBox="0 0 375 112.499997" height="150" preserveAspectRatio="xMidYMid meet" version="1.0"><defs><clipPath id="70605357cb"><path d="M 9.164062 5.621094 L 59.816406 5.621094 L 59.816406 106.375 L 9.164062 106.375 Z M 9.164062 5.621094 " clip-rule="nonzero"/></clipPath><clipPath id="f210c8e037"><path d="M 0.828125 7 L 8 7 L 8 105 L 0.828125 105 Z M 0.828125 7 " clip-rule="nonzero"/></clipPath></defs><g clip-path="url(#70605357cb)"><path fill="#20b2ab" d="M 10.558594 8.121094 L 58.613281 55.816406 L 10.558594 103.871094 Z M 9.300781 5.621094 L 9.300781 106.375 L 59.871094 55.804688 L 9.300781 5.621094 " fill-opacity="1" fill-rule="nonzero"/></g><path fill="#20b2ab" d="M 10.558594 38.761719 L 10.558594 73.230469 L 27.859375 55.929688 Z M 10.558594 38.761719 " fill-opacity="1" fill-rule="nonzero"/><g clip-path="url(#f210c8e037)"><path fill="#20b2ab" d="M 7.015625 95.695312 L 3.890625 98.820312 L 3.890625 13.167969 L 7.015625 16.273438 L 7.015625 13.234375 L 0.855469 7.121094 L 0.855469 104.871094 L 7.015625 98.710938 L 7.015625 95.695312 " fill-opacity="1" fill-rule="nonzero"/></g><path fill="#20b2ab" d="M 9.984375 89.566406 L 43.742188 55.808594 L 9.984375 22.308594 L 9.984375 25.347656 L 40.703125 55.832031 L 9.984375 86.554688 L 9.984375 89.566406 " fill-opacity="1" fill-rule="nonzero"/><path fill="#20b2ab" d="M 7.015625 34.507812 L 3.042969 30.5625 L 3.042969 81.425781 L 7.015625 77.453125 L 7.015625 34.507812 " fill-opacity="1" fill-rule="nonzero"/></svg>