<svg xmlns="http://www.w3.org/2000/svg" xmlns:xlink="http://www.w3.org/1999/xlink" width="500" zoomAndPan="magnify" viewBox="0 0 375 112.499997" height="150" preserveAspectRatio="xMidYMid meet" version="1.0"><defs><clipPath id="ccc5173a7f"><path d="M 366 101 L 374.167969 101 L 374.167969 109.761719 L 366 109.761719 Z M 366 101 " clip-rule="nonzero"/></clipPath><clipPath id="fcbe89222b"><path d="M 0.828125 0 L 9 0 L 9 8 L 0.828125 8 Z M 0.828125 0 " clip-rule="nonzero"/></clipPath></defs><path fill="#20b2ab" d="M 370.417969 106.421875 L 233.507812 106.421875 L 131.703125 4.667969 L 4.785156 4.667969 L 4.785156 3.398438 L 132.261719 3.398438 L 234.015625 105.152344 L 370.417969 105.152344 Z M 370.417969 106.421875 " fill-opacity="1" fill-rule="nonzero"/><path fill="#20b2ab" d="M 192.167969 58.386719 L 192.167969 43.320312 L 241.675781 92.828125 L 282.914062 92.675781 L 273.785156 101.804688 L 235.589844 101.804688 Z M 192.167969 58.386719 " fill-opacity="1" fill-rule="nonzero"/><g clip-path="url(#ccc5173a7f)"><path fill="#20b2ab" d="M 374.375 105.8125 C 374.375 106.074219 374.347656 106.332031 374.296875 106.585938 C 374.246094 106.839844 374.171875 107.085938 374.070312 107.328125 C 373.972656 107.566406 373.851562 107.796875 373.707031 108.011719 C 373.5625 108.226562 373.398438 108.425781 373.214844 108.613281 C 373.03125 108.796875 372.832031 108.960938 372.613281 109.101562 C 372.398438 109.246094 372.171875 109.371094 371.929688 109.46875 C 371.691406 109.570312 371.441406 109.644531 371.1875 109.695312 C 370.933594 109.746094 370.675781 109.769531 370.417969 109.769531 C 370.15625 109.769531 369.898438 109.746094 369.644531 109.695312 C 369.390625 109.644531 369.140625 109.570312 368.902344 109.46875 C 368.664062 109.371094 368.433594 109.246094 368.21875 109.101562 C 368.003906 108.960938 367.800781 108.796875 367.617188 108.613281 C 367.433594 108.425781 367.269531 108.226562 367.125 108.011719 C 366.984375 107.796875 366.859375 107.566406 366.761719 107.328125 C 366.660156 107.085938 366.585938 106.839844 366.535156 106.585938 C 366.484375 106.332031 366.460938 106.074219 366.460938 105.8125 C 366.460938 105.554688 366.484375 105.296875 366.535156 105.042969 C 366.585938 104.785156 366.660156 104.539062 366.761719 104.300781 C 366.859375 104.058594 366.984375 103.832031 367.125 103.617188 C 367.269531 103.398438 367.433594 103.199219 367.617188 103.015625 C 367.800781 102.832031 368.003906 102.667969 368.21875 102.523438 C 368.433594 102.378906 368.664062 102.257812 368.902344 102.160156 C 369.140625 102.058594 369.390625 101.984375 369.644531 101.933594 C 369.898438 101.882812 370.15625 101.855469 370.417969 101.855469 C 370.675781 101.855469 370.933594 101.882812 371.1875 101.933594 C 371.441406 101.984375 371.691406 102.058594 371.929688 102.160156 C 372.171875 102.257812 372.398438 102.378906 372.613281 102.523438 C 372.832031 102.667969 373.03125 102.832031 373.214844 103.015625 C 373.398438 103.199219 373.5625 103.398438 373.707031 103.617188 C 373.851562 103.832031 373.972656 104.058594 374.070312 104.300781 C 374.171875 104.539062 374.246094 104.785156 374.296875 105.042969 C 374.347656 105.296875 374.375 105.554688 374.375 105.8125 Z M 374.375 105.8125 " fill-opacity="1" fill-rule="nonzero"/></g><g clip-path="url(#fcbe89222b)"><path fill="#20b2ab" d="M 8.742188 4.007812 C 8.742188 4.265625 8.71875 4.523438 8.667969 4.777344 C 8.617188 5.035156 8.542969 5.28125 8.441406 5.519531 C 8.34375 5.761719 8.21875 5.988281 8.074219 6.207031 C 7.933594 6.421875 7.769531 6.621094 7.585938 6.804688 C 7.398438 6.988281 7.199219 7.152344 6.984375 7.296875 C 6.769531 7.441406 6.539062 7.5625 6.300781 7.664062 C 6.058594 7.761719 5.8125 7.835938 5.558594 7.886719 C 5.304688 7.9375 5.046875 7.964844 4.785156 7.964844 C 4.527344 7.964844 4.269531 7.9375 4.015625 7.886719 C 3.757812 7.835938 3.511719 7.761719 3.273438 7.664062 C 3.03125 7.5625 2.804688 7.441406 2.589844 7.296875 C 2.371094 7.152344 2.171875 6.988281 1.988281 6.804688 C 1.804688 6.621094 1.640625 6.421875 1.496094 6.207031 C 1.351562 5.988281 1.230469 5.761719 1.128906 5.519531 C 1.03125 5.28125 0.957031 5.035156 0.90625 4.777344 C 0.855469 4.523438 0.828125 4.265625 0.828125 4.007812 C 0.828125 3.746094 0.855469 3.488281 0.90625 3.234375 C 0.957031 2.980469 1.03125 2.734375 1.128906 2.492188 C 1.230469 2.253906 1.351562 2.023438 1.496094 1.808594 C 1.640625 1.59375 1.804688 1.394531 1.988281 1.210938 C 2.171875 1.027344 2.371094 0.863281 2.589844 0.71875 C 2.804688 0.574219 3.03125 0.453125 3.273438 0.351562 C 3.511719 0.253906 3.757812 0.175781 4.015625 0.125 C 4.269531 0.0742188 4.527344 0.0507812 4.785156 0.0507812 C 5.046875 0.0507812 5.304688 0.0742188 5.558594 0.125 C 5.8125 0.175781 6.058594 0.253906 6.300781 0.351562 C 6.539062 0.453125 6.769531 0.574219 6.984375 0.71875 C 7.199219 0.863281 7.398438 1.027344 7.585938 1.210938 C 7.769531 1.394531 7.933594 1.59375 8.074219 1.808594 C 8.21875 2.023438 8.34375 2.253906 8.441406 2.492188 C 8.542969 2.734375 8.617188 2.980469 8.667969 3.234375 C 8.71875 3.488281 8.742188 3.746094 8.742188 4.007812 Z M 8.742188 4.007812 " fill-opacity="1" fill-rule="nonzero"/></g></svg>