<svg xmlns="http://www.w3.org/2000/svg" xmlns:xlink="http://www.w3.org/1999/xlink" width="500" zoomAndPan="magnify" viewBox="0 0 375 112.499997" height="150" preserveAspectRatio="xMidYMid meet" version="1.0"><defs><clipPath id="27382fbea6"><path d="M 2 27.300781 L 373 27.300781 L 373 84.796875 L 2 84.796875 Z M 2 27.300781 " clip-rule="nonzero"/></clipPath></defs><path fill="#00ccff" d="M 5.980469 33.308594 L 369.019531 33.308594 L 369.019531 78.691406 L 5.980469 78.691406 Z M 5.980469 33.308594 " fill-opacity="1" fill-rule="evenodd"/><g clip-path="url(#27382fbea6)"><path fill="#20b2ab" d="M 290.109375 80.355469 L 285.066406 80.355469 L 277.378906 72.667969 L 282.421875 72.667969 Z M 299.078125 80.355469 L 294.035156 80.355469 L 286.347656 72.667969 L 291.394531 72.667969 Z M 308.058594 80.355469 L 303.015625 80.355469 L 295.328125 72.667969 L 300.371094 72.667969 Z M 317.03125 80.355469 L 311.988281 80.355469 L 304.300781 72.667969 L 309.34375 72.667969 Z M 326 80.355469 L 320.957031 80.355469 L 313.269531 72.667969 L 318.3125 72.667969 Z M 334.980469 80.355469 L 329.9375 80.355469 L 322.25 72.667969 L 327.292969 72.667969 Z M 350.515625 27.292969 L 372.855469 27.292969 L 372.855469 80.355469 L 338.898438 80.355469 L 331.210938 72.667969 L 365.167969 72.667969 L 365.167969 41.945312 Z M 341.542969 27.292969 L 346.585938 27.292969 L 354.273438 34.980469 L 349.230469 34.980469 Z M 332.570312 27.292969 L 337.617188 27.292969 L 345.304688 34.980469 L 340.257812 34.980469 Z M 323.59375 27.292969 L 328.636719 27.292969 L 336.324219 34.980469 L 331.28125 34.980469 Z M 314.621094 27.292969 L 319.664062 27.292969 L 327.351562 34.980469 L 322.308594 34.980469 Z M 305.652344 27.292969 L 310.695312 27.292969 L 318.382812 34.980469 L 313.335938 34.980469 Z M 296.671875 27.292969 L 301.714844 27.292969 L 309.402344 34.980469 L 304.359375 34.980469 Z M 84.890625 80.355469 L 89.933594 80.355469 L 97.621094 72.667969 L 92.578125 72.667969 Z M 75.921875 80.355469 L 80.964844 80.355469 L 88.652344 72.667969 L 83.605469 72.667969 Z M 66.949219 80.355469 L 71.992188 80.355469 L 79.679688 72.667969 L 74.636719 72.667969 Z M 57.96875 80.355469 L 63.011719 80.355469 L 70.699219 72.667969 L 65.65625 72.667969 Z M 49 80.355469 L 54.042969 80.355469 L 61.730469 72.667969 L 56.6875 72.667969 Z M 40.019531 80.355469 L 45.0625 80.355469 L 52.75 72.667969 L 47.707031 72.667969 Z M 24.484375 27.292969 L 2.136719 27.292969 L 2.136719 80.355469 L 36.09375 80.355469 L 43.777344 72.667969 L 9.824219 72.667969 L 9.824219 41.945312 L 16.789062 34.980469 Z M 33.457031 27.292969 L 28.414062 27.292969 L 20.726562 34.980469 L 25.769531 34.980469 Z M 42.429688 27.292969 L 37.382812 27.292969 L 29.695312 34.980469 L 34.742188 34.980469 Z M 51.40625 27.292969 L 46.363281 27.292969 L 38.675781 34.980469 L 43.71875 34.980469 Z M 60.378906 27.292969 L 55.335938 27.292969 L 47.648438 34.980469 L 52.691406 34.980469 Z M 69.347656 27.292969 L 64.304688 27.292969 L 56.617188 34.980469 L 61.664062 34.980469 Z M 78.328125 27.292969 L 73.285156 27.292969 L 65.597656 34.980469 L 70.640625 34.980469 Z M 191.34375 68.3125 L 269.09375 68.3125 L 271.269531 70.484375 L 273.441406 72.660156 L 281.128906 80.347656 L 270.101562 80.347656 L 265.746094 84.703125 C 213.230469 84.703125 161.753906 84.703125 109.238281 84.703125 L 104.882812 80.347656 L 93.855469 80.347656 L 101.539062 72.660156 L 105.886719 68.3125 Z M 187.5 27.292969 L 292.742188 27.292969 L 300.429688 34.980469 L 74.570312 34.980469 L 82.257812 27.292969 Z M 187.5 27.292969 " fill-opacity="1" fill-rule="nonzero"/></g><path fill="#20b2ab" d="M 194.136719 44.882812 L 192.953125 43.699219 L 191.773438 44.882812 L 191.476562 44.882812 L 191.476562 44.578125 L 192.660156 43.394531 L 191.476562 42.214844 L 191.476562 41.910156 L 191.773438 41.910156 L 192.953125 43.09375 L 194.136719 41.910156 L 194.441406 41.910156 L 194.441406 42.214844 L 193.257812 43.394531 L 194.441406 44.578125 L 194.441406 44.882812 Z M 190.570312 44.882812 L 189.386719 43.699219 L 188.203125 44.882812 L 187.902344 44.882812 L 187.902344 44.578125 L 189.085938 43.394531 L 187.902344 42.214844 L 187.902344 41.910156 L 188.203125 41.910156 L 189.386719 43.09375 L 190.570312 41.910156 L 190.875 41.910156 L 190.875 42.214844 L 189.691406 43.394531 L 190.875 44.578125 L 190.875 44.882812 Z M 201.261719 44.882812 L 200.078125 43.699219 L 198.894531 44.882812 L 198.59375 44.882812 L 198.59375 44.578125 L 199.777344 43.394531 L 198.59375 42.214844 L 198.59375 41.910156 L 198.894531 41.910156 L 200.078125 43.09375 L 201.261719 41.910156 L 201.554688 41.910156 L 201.554688 42.214844 L 200.375 43.394531 L 201.554688 44.578125 L 201.554688 44.882812 Z M 177.304688 44.882812 L 178.488281 43.699219 L 179.671875 44.882812 L 179.972656 44.882812 L 179.972656 44.578125 L 178.789062 43.394531 L 179.972656 42.214844 L 179.972656 41.910156 L 179.671875 41.910156 L 178.488281 43.09375 L 177.304688 41.910156 L 177 41.910156 L 177 42.214844 L 178.183594 43.394531 L 177 44.578125 L 177 44.882812 Z M 180.863281 44.882812 L 182.046875 43.699219 L 183.226562 44.882812 L 183.523438 44.882812 L 183.523438 44.578125 L 182.339844 43.394531 L 183.523438 42.214844 L 183.523438 41.910156 L 183.226562 41.910156 L 182.046875 43.09375 L 180.863281 41.910156 L 180.558594 41.910156 L 180.558594 42.214844 L 181.742188 43.394531 L 180.558594 44.578125 L 180.558594 44.882812 Z M 184.429688 44.882812 L 185.613281 43.699219 L 186.796875 44.882812 L 187.097656 44.882812 L 187.097656 44.578125 L 185.914062 43.394531 L 187.097656 42.214844 L 187.097656 41.910156 L 186.796875 41.910156 L 185.613281 43.09375 L 184.429688 41.910156 L 184.125 41.910156 L 184.125 42.214844 L 185.308594 43.394531 L 184.125 44.578125 L 184.125 44.882812 Z M 173.738281 44.882812 L 174.921875 43.699219 L 176.105469 44.882812 L 176.40625 44.882812 L 176.40625 44.578125 L 175.222656 43.394531 L 176.40625 42.214844 L 176.40625 41.910156 L 176.105469 41.910156 L 174.921875 43.09375 L 173.738281 41.910156 L 173.445312 41.910156 L 173.445312 42.214844 L 174.625 43.394531 L 173.445312 44.578125 L 173.445312 44.882812 Z M 314.226562 40.507812 L 316.476562 42.757812 L 316.726562 42.757812 L 316.726562 42.507812 L 314.46875 40.25 L 314.21875 40.25 L 314.21875 40.507812 Z M 312.96875 40.507812 L 315.226562 42.757812 L 315.476562 42.757812 L 315.476562 42.507812 L 313.21875 40.25 L 312.96875 40.25 Z M 311.703125 40.507812 L 313.957031 42.757812 L 314.210938 42.757812 L 314.210938 42.507812 L 311.960938 40.25 L 311.703125 40.25 Z M 322.175781 40.507812 L 324.433594 42.757812 L 324.683594 42.757812 L 324.683594 42.507812 L 322.433594 40.25 L 322.183594 40.25 L 322.183594 40.507812 Z M 320.914062 40.507812 L 323.171875 42.757812 L 323.425781 42.757812 L 323.425781 42.507812 L 321.167969 40.25 L 320.914062 40.25 Z M 319.648438 40.507812 L 321.90625 42.757812 L 322.15625 42.757812 L 322.15625 42.507812 L 319.898438 40.25 L 319.648438 40.25 Z M 318.390625 40.507812 L 320.648438 42.757812 L 320.898438 42.757812 L 320.898438 42.507812 L 318.648438 40.25 L 318.398438 40.25 L 318.398438 40.507812 Z M 328.863281 40.507812 L 331.121094 42.757812 L 331.371094 42.757812 L 331.371094 42.507812 L 329.113281 40.25 L 328.863281 40.25 Z M 327.605469 40.507812 L 329.863281 42.757812 L 330.113281 42.757812 L 330.113281 42.507812 L 327.855469 40.25 L 327.605469 40.25 Z M 326.335938 40.507812 L 328.59375 42.757812 L 328.847656 42.757812 L 328.847656 42.507812 L 326.589844 40.25 L 326.335938 40.25 Z M 325.078125 40.507812 L 327.335938 42.757812 L 327.585938 42.757812 L 327.585938 42.507812 L 325.328125 40.25 L 325.078125 40.25 Z M 335.550781 40.507812 L 337.808594 42.757812 L 338.058594 42.757812 L 338.058594 42.507812 L 335.804688 40.25 L 335.550781 40.25 Z M 334.292969 40.507812 L 336.550781 42.757812 L 336.800781 42.757812 L 336.800781 42.507812 L 334.542969 40.25 L 334.292969 40.25 Z M 333.023438 40.507812 L 335.28125 42.757812 L 335.535156 42.757812 L 335.535156 42.507812 L 333.277344 40.25 L 333.023438 40.25 Z M 331.765625 40.507812 L 334.023438 42.757812 L 334.277344 42.757812 L 334.277344 42.507812 L 332.027344 40.25 L 331.773438 40.25 L 331.773438 40.507812 Z M 342.238281 40.507812 L 344.496094 42.757812 L 344.75 42.757812 L 344.75 42.507812 L 342.492188 40.25 L 342.238281 40.25 Z M 340.980469 40.507812 L 343.238281 42.757812 L 343.488281 42.757812 L 343.488281 42.507812 L 341.234375 40.25 L 340.980469 40.25 Z M 339.714844 40.507812 L 341.972656 42.757812 L 342.222656 42.757812 L 342.222656 42.507812 L 339.964844 40.25 L 339.714844 40.25 Z M 338.453125 40.507812 L 340.710938 42.757812 L 340.964844 42.757812 L 340.964844 42.507812 L 338.707031 40.25 L 338.453125 40.25 Z M 348.929688 40.507812 L 351.183594 42.757812 L 351.4375 42.757812 L 351.4375 42.507812 L 349.179688 40.25 L 348.929688 40.25 Z M 347.660156 40.507812 L 349.910156 42.757812 L 350.160156 42.757812 L 350.160156 42.507812 L 347.902344 40.25 L 347.652344 40.25 L 347.652344 40.507812 Z M 346.402344 40.507812 L 348.660156 42.757812 L 348.910156 42.757812 L 348.910156 42.507812 L 346.664062 40.25 L 346.410156 40.25 L 346.410156 40.507812 Z M 345.144531 40.507812 L 347.402344 42.757812 L 347.652344 42.757812 L 347.652344 42.507812 L 345.402344 40.25 L 345.152344 40.25 L 345.152344 40.507812 Z M 355.617188 40.507812 L 357.875 42.757812 L 358.125 42.757812 L 358.125 42.507812 L 355.867188 40.25 L 355.617188 40.25 Z M 354.347656 40.507812 L 356.605469 42.757812 L 356.859375 42.757812 L 356.859375 42.507812 L 354.601562 40.25 L 354.347656 40.25 Z M 353.089844 40.507812 L 355.347656 42.757812 L 355.601562 42.757812 L 355.601562 42.507812 L 353.34375 40.25 L 353.089844 40.25 Z M 351.832031 40.507812 L 354.089844 42.757812 L 354.339844 42.757812 L 354.339844 42.507812 L 352.082031 40.25 L 351.832031 40.25 Z M 315.484375 40.507812 L 317.742188 42.757812 L 317.996094 42.757812 L 317.996094 42.507812 L 315.738281 40.25 L 315.484375 40.25 Z M 60.773438 40.507812 L 58.515625 42.757812 L 58.261719 42.757812 L 58.261719 42.507812 L 60.519531 40.25 L 60.773438 40.25 Z M 62.03125 40.507812 L 59.773438 42.757812 L 59.523438 42.757812 L 59.523438 42.507812 L 61.78125 40.25 L 62.03125 40.25 Z M 63.296875 40.507812 L 61.050781 42.757812 L 60.796875 42.757812 L 60.796875 42.507812 L 63.054688 40.25 L 63.308594 40.25 L 63.308594 40.507812 Z M 52.824219 40.507812 L 50.566406 42.757812 L 50.316406 42.757812 L 50.316406 42.507812 L 52.574219 40.25 L 52.824219 40.25 Z M 54.085938 40.507812 L 51.828125 42.757812 L 51.574219 42.757812 L 51.574219 42.507812 L 53.832031 40.25 L 54.085938 40.25 Z M 55.351562 40.507812 L 53.09375 42.757812 L 52.84375 42.757812 L 52.84375 42.507812 L 55.101562 40.25 L 55.351562 40.25 Z M 56.609375 40.507812 L 54.351562 42.757812 L 54.101562 42.757812 L 54.101562 42.507812 L 56.351562 40.25 L 56.601562 40.25 L 56.601562 40.507812 Z M 46.136719 40.507812 L 43.878906 42.757812 L 43.628906 42.757812 L 43.628906 42.507812 L 45.878906 40.25 L 46.128906 40.25 L 46.128906 40.507812 Z M 47.394531 40.507812 L 45.136719 42.757812 L 44.886719 42.757812 L 44.886719 42.507812 L 47.144531 40.25 L 47.394531 40.25 Z M 48.664062 40.507812 L 46.40625 42.757812 L 46.152344 42.757812 L 46.152344 42.507812 L 48.410156 40.25 L 48.664062 40.25 Z M 49.921875 40.507812 L 47.664062 42.757812 L 47.414062 42.757812 L 47.414062 42.507812 L 49.671875 40.25 L 49.921875 40.25 Z M 39.449219 40.507812 L 37.191406 42.757812 L 36.941406 42.757812 L 36.941406 42.507812 L 39.195312 40.25 L 39.449219 40.25 Z M 40.707031 40.507812 L 38.449219 42.757812 L 38.199219 42.757812 L 38.199219 42.507812 L 40.457031 40.25 L 40.707031 40.25 Z M 41.976562 40.507812 L 39.71875 42.757812 L 39.464844 42.757812 L 39.464844 42.507812 L 41.722656 40.25 L 41.976562 40.25 Z M 43.234375 40.507812 L 40.976562 42.757812 L 40.722656 42.757812 L 40.722656 42.507812 L 42.980469 40.25 L 43.234375 40.25 Z M 32.761719 40.507812 L 30.503906 42.757812 L 30.25 42.757812 L 30.25 42.507812 L 32.507812 40.25 L 32.761719 40.25 Z M 34.019531 40.507812 L 31.761719 42.757812 L 31.511719 42.757812 L 31.511719 42.507812 L 33.765625 40.25 L 34.019531 40.25 Z M 35.285156 40.507812 L 33.027344 42.757812 L 32.777344 42.757812 L 32.777344 42.507812 L 35.035156 40.25 L 35.285156 40.25 Z M 36.546875 40.507812 L 34.296875 42.757812 L 34.042969 42.757812 L 34.042969 42.507812 L 36.292969 40.25 L 36.546875 40.25 Z M 26.070312 40.507812 L 23.816406 42.757812 L 23.5625 42.757812 L 23.5625 42.507812 L 25.8125 40.25 L 26.0625 40.25 L 26.0625 40.507812 Z M 27.339844 40.507812 L 25.082031 42.757812 L 24.828125 42.757812 L 24.828125 42.507812 L 27.085938 40.25 L 27.339844 40.25 Z M 28.597656 40.507812 L 26.339844 42.757812 L 26.089844 42.757812 L 26.089844 42.507812 L 28.347656 40.25 L 28.597656 40.25 Z M 29.855469 40.507812 L 27.597656 42.757812 L 27.347656 42.757812 L 27.347656 42.507812 L 29.605469 40.25 L 29.855469 40.25 Z M 19.382812 40.507812 L 17.125 42.757812 L 16.875 42.757812 L 16.875 42.507812 L 19.132812 40.25 L 19.382812 40.25 Z M 20.652344 40.507812 L 18.394531 42.757812 L 18.140625 42.757812 L 18.140625 42.507812 L 20.398438 40.25 L 20.652344 40.25 Z M 21.910156 40.507812 L 19.652344 42.757812 L 19.398438 42.757812 L 19.398438 42.507812 L 21.65625 40.25 L 21.910156 40.25 Z M 23.167969 40.507812 L 20.910156 42.757812 L 20.660156 42.757812 L 20.660156 42.507812 L 22.90625 40.25 L 23.160156 40.25 L 23.160156 40.507812 Z M 59.515625 40.507812 L 57.257812 42.757812 L 57.003906 42.757812 L 57.003906 42.507812 L 59.253906 40.25 L 59.503906 40.25 L 59.503906 40.507812 Z M 197.695312 44.882812 L 196.511719 43.699219 L 195.328125 44.882812 L 195.027344 44.882812 L 195.027344 44.578125 L 196.210938 43.394531 L 195.027344 42.214844 L 195.027344 41.910156 L 195.328125 41.910156 L 196.511719 43.09375 L 197.695312 41.910156 L 198 41.910156 L 198 42.214844 L 196.816406 43.394531 L 198 44.578125 L 198 44.882812 Z M 197.695312 44.882812 " fill-opacity="1" fill-rule="evenodd"/><path fill="#00bfff" d="M 181.375 37.261719 L 17.738281 37.261719 L 17.453125 37.539062 L 12.382812 42.609375 L 12.109375 42.894531 L 12.109375 70.386719 L 100.617188 70.386719 L 104.964844 66.039062 L 270.042969 66.039062 L 274.390625 70.386719 L 362.902344 70.386719 L 362.902344 42.894531 L 357.261719 37.253906 L 181.375 37.253906 Z M 14.03125 43.683594 L 18.535156 39.175781 L 356.457031 39.175781 L 360.960938 43.683594 L 360.960938 61.683594 L 273.820312 61.683594 L 271.109375 64.394531 L 270.824219 64.109375 L 104.175781 64.109375 L 103.890625 64.394531 L 101.179688 61.683594 L 14.03125 61.683594 Z M 14.03125 43.683594 " fill-opacity="1" fill-rule="nonzero"/></svg>