<svg xmlns="http://www.w3.org/2000/svg" xmlns:xlink="http://www.w3.org/1999/xlink" width="500" zoomAndPan="magnify" viewBox="0 0 375 112.499997" height="150" preserveAspectRatio="xMidYMid meet" version="1.0"><defs><clipPath id="43c5deefdc"><path d="M 0.828125 31.5625 L 374.167969 31.5625 L 374.167969 80.097656 L 0.828125 80.097656 Z M 0.828125 31.5625 " clip-rule="nonzero"/></clipPath></defs><g clip-path="url(#43c5deefdc)"><path fill="#20b2ab" d="M 302.996094 47.28125 L 318.707031 62.992188 L 344.222656 62.992188 L 328.507812 47.28125 Z M 332.988281 47.28125 L 348.703125 62.992188 L 374.214844 62.992188 L 358.503906 47.28125 Z M 176.410156 41.367188 L 278.425781 41.367188 L 272.511719 47.28125 L 109.835938 47.28125 L 106.878906 44.324219 L 54.503906 44.324219 L 51.546875 41.367188 Z M 305.757812 64.644531 L 313.820312 72.710938 L 284.988281 72.710938 L 267.230469 54.953125 L 143.203125 54.953125 L 140.675781 52.425781 L 95.867188 52.425781 L 93.339844 49.898438 L 275.136719 49.898438 L 289.898438 64.660156 L 305.757812 64.660156 Z M 342.335938 73.230469 L 349.472656 80.367188 L 323.960938 80.367188 L 308.246094 64.652344 L 319.71875 64.652344 L 328.304688 73.238281 L 342.335938 73.238281 Z M 300.835938 47.28125 L 316.550781 62.992188 L 291.039062 62.992188 L 275.324219 47.28125 L 284.152344 38.453125 L 68.746094 38.453125 L 65.296875 35.007812 L 4.300781 35.007812 L 0.851562 31.566406 L 316.558594 31.566406 Z M 300.835938 47.28125 " fill-opacity="1" fill-rule="evenodd"/></g></svg>