<svg xmlns="http://www.w3.org/2000/svg" xmlns:xlink="http://www.w3.org/1999/xlink" width="500" zoomAndPan="magnify" viewBox="0 0 375 112.499997" height="150" preserveAspectRatio="xMidYMid meet" version="1.0"><defs><clipPath id="7a73088c80"><path d="M 0.828125 0 L 241.84375 0 L 241.84375 112.003906 L 0.828125 112.003906 Z M 0.828125 0 " clip-rule="nonzero"/></clipPath></defs><g clip-path="url(#7a73088c80)"><path fill="#20b2ab" d="M 223.882812 107.726562 L 234.136719 107.726562 L 241.8125 100.050781 L 231.558594 100.050781 Z M 96.714844 107.726562 L 217.898438 107.726562 L 225.574219 100.050781 L 153.953125 100.050781 L 149.589844 104.410156 L 100.03125 104.410156 Z M 215.488281 110.738281 L 93.746094 110.738281 L 92.351562 109.34375 L 11.96875 109.34375 L 10.648438 110.664062 L 91.808594 110.664062 L 93.207031 112.058594 L 214.167969 112.058594 Z M 5.097656 -111.058594 L 5.097656 -121.3125 L 12.773438 -128.988281 L 12.773438 -118.734375 Z M 5.097656 16.109375 L 5.097656 -105.074219 L 12.773438 -112.75 L 12.773438 -41.125 L 8.414062 -36.765625 L 8.414062 12.796875 Z M 2.085938 -102.664062 L 2.085938 19.078125 L 3.480469 20.472656 L 3.480469 100.855469 L 2.160156 102.175781 L 2.160156 21.015625 L 0.769531 19.621094 L 0.769531 -101.34375 Z M 155.6875 94.640625 L 77.515625 94.640625 L 70.972656 101.183594 L 11.640625 101.183594 L 11.640625 41.851562 L 18.183594 35.308594 L 18.183594 -42.863281 L 11.640625 -36.320312 L 11.640625 14.257812 L 5.097656 20.800781 L 5.097656 107.734375 L 92.023438 107.734375 L 98.566406 101.191406 L 149.144531 101.191406 Z M 155.6875 94.640625 " fill-opacity="1" fill-rule="evenodd"/></g></svg>