<svg xmlns="http://www.w3.org/2000/svg" xmlns:xlink="http://www.w3.org/1999/xlink" width="500" zoomAndPan="magnify" viewBox="0 0 375 112.499997" height="150" preserveAspectRatio="xMidYMid meet" version="1.0"><defs><filter x="0%" y="0%" width="100%" height="100%" id="6a44fc64fc"><feColorMatrix values="0 0 0 0 1 0 0 0 0 1 0 0 0 0 1 0 0 0 1 0" color-interpolation-filters="sRGB"/></filter><clipPath id="adcb63ac99"><path d="M 40.449219 0 L 334.644531 0 L 334.644531 20 L 40.449219 20 Z M 40.449219 0 " clip-rule="nonzero"/></clipPath><clipPath id="c694936086"><path d="M 40.449219 92 L 334.644531 92 L 334.644531 112.003906 L 40.449219 112.003906 Z M 40.449219 92 " clip-rule="nonzero"/></clipPath><clipPath id="9719e480ae"><path d="M 40.449219 29 L 334.644531 29 L 334.644531 83 L 40.449219 83 Z M 40.449219 29 " clip-rule="nonzero"/></clipPath><mask id="8c2ff54569"><g filter="url(#6a44fc64fc)"><rect x="-37.5" width="450" fill="#000000" y="-11.25" height="134.999996" fill-opacity="0.3"/></g></mask><clipPath id="bb492e5ff7"><path d="M 0.449219 0.628906 L 294.625 0.628906 L 294.625 53.433594 L 0.449219 53.433594 Z M 0.449219 0.628906 " clip-rule="nonzero"/></clipPath><clipPath id="adb439631c"><rect x="0" width="295" y="0" height="54"/></clipPath></defs><g clip-path="url(#adcb63ac99)"><path fill="#20b2ab" d="M 322.957031 15.773438 L 315.5 8.316406 L 258.457031 8.316406 L 250.136719 0 L 220.863281 0 L 214.1875 6.675781 L 214.1875 15.773438 L 143.144531 15.773438 L 138.9375 11.5625 L 95.574219 11.5625 L 91.203125 7.195312 L 60.695312 7.195312 L 52.117188 15.773438 L 40.582031 15.773438 L 40.582031 19.132812 L 334.367188 19.132812 L 334.367188 15.773438 Z M 322.957031 15.773438 " fill-opacity="1" fill-rule="nonzero"/></g><path fill="#20b2ab" d="M 144.71875 6.675781 L 151.015625 6.675781 L 151.015625 12.972656 L 144.71875 12.972656 Z M 144.71875 6.675781 " fill-opacity="1" fill-rule="nonzero"/><path fill="#20b2ab" d="M 154.519531 6.675781 L 160.816406 6.675781 L 160.816406 12.972656 L 154.519531 12.972656 Z M 154.519531 6.675781 " fill-opacity="1" fill-rule="nonzero"/><path fill="#20b2ab" d="M 164.324219 6.675781 L 170.621094 6.675781 L 170.621094 12.972656 L 164.324219 12.972656 Z M 164.324219 6.675781 " fill-opacity="1" fill-rule="nonzero"/><path fill="#20b2ab" d="M 174.132812 6.675781 L 180.429688 6.675781 L 180.429688 12.972656 L 174.132812 12.972656 Z M 174.132812 6.675781 " fill-opacity="1" fill-rule="nonzero"/><path fill="#20b2ab" d="M 183.933594 6.675781 L 190.230469 6.675781 L 190.230469 12.972656 L 183.933594 12.972656 Z M 183.933594 6.675781 " fill-opacity="1" fill-rule="nonzero"/><path fill="#20b2ab" d="M 193.738281 6.675781 L 200.035156 6.675781 L 200.035156 12.972656 L 193.738281 12.972656 Z M 193.738281 6.675781 " fill-opacity="1" fill-rule="nonzero"/><path fill="#20b2ab" d="M 203.542969 6.675781 L 209.839844 6.675781 L 209.839844 12.972656 L 203.542969 12.972656 Z M 203.542969 6.675781 " fill-opacity="1" fill-rule="nonzero"/><g clip-path="url(#c694936086)"><path fill="#20b2ab" d="M 51.992188 96.226562 L 59.449219 103.683594 L 116.492188 103.683594 L 124.8125 112.003906 L 154.085938 112.003906 L 160.765625 105.328125 L 160.765625 96.226562 L 231.808594 96.226562 L 236.015625 100.4375 L 279.375 100.4375 L 283.75 104.808594 L 314.253906 104.808594 L 322.835938 96.226562 L 334.367188 96.226562 L 334.367188 92.867188 L 40.582031 92.867188 L 40.582031 96.226562 Z M 51.992188 96.226562 " fill-opacity="1" fill-rule="nonzero"/></g><path fill="#20b2ab" d="M 223.941406 99.035156 L 230.238281 99.035156 L 230.238281 105.328125 L 223.941406 105.328125 Z M 223.941406 99.035156 " fill-opacity="1" fill-rule="nonzero"/><path fill="#20b2ab" d="M 214.132812 99.035156 L 220.429688 99.035156 L 220.429688 105.328125 L 214.132812 105.328125 Z M 214.132812 99.035156 " fill-opacity="1" fill-rule="nonzero"/><path fill="#20b2ab" d="M 204.328125 99.035156 L 210.625 99.035156 L 210.625 105.328125 L 204.328125 105.328125 Z M 204.328125 99.035156 " fill-opacity="1" fill-rule="nonzero"/><path fill="#20b2ab" d="M 194.527344 99.035156 L 200.824219 99.035156 L 200.824219 105.328125 L 194.527344 105.328125 Z M 194.527344 99.035156 " fill-opacity="1" fill-rule="nonzero"/><path fill="#20b2ab" d="M 184.71875 99.035156 L 191.015625 99.035156 L 191.015625 105.328125 L 184.71875 105.328125 Z M 184.71875 99.035156 " fill-opacity="1" fill-rule="nonzero"/><path fill="#20b2ab" d="M 174.917969 99.035156 L 181.214844 99.035156 L 181.214844 105.328125 L 174.917969 105.328125 Z M 174.917969 99.035156 " fill-opacity="1" fill-rule="nonzero"/><path fill="#20b2ab" d="M 165.113281 99.035156 L 171.410156 99.035156 L 171.410156 105.328125 L 165.113281 105.328125 Z M 165.113281 99.035156 " fill-opacity="1" fill-rule="nonzero"/><g clip-path="url(#9719e480ae)"><g mask="url(#8c2ff54569)"><g transform="matrix(1, 0, 0, 1, 40, 29)"><g clip-path="url(#adb439631c)"><g clip-path="url(#bb492e5ff7)"><path fill="#20b2ab" d="M 0.582031 0.683594 L 294.367188 0.683594 L 294.367188 53.316406 L 0.582031 53.316406 Z M 0.582031 0.683594 " fill-opacity="1" fill-rule="nonzero"/></g></g></g></g></g></svg>