<svg xmlns="http://www.w3.org/2000/svg" xmlns:xlink="http://www.w3.org/1999/xlink" width="500" zoomAndPan="magnify" viewBox="0 0 375 112.499997" height="150" preserveAspectRatio="xMidYMid meet" version="1.0"><path fill="#00ccff" d="M 160.324219 73.671875 L 113.863281 73.671875 L 78.53125 109.003906 L 43.195312 109.003906 L 43.195312 38.332031 L 261.191406 38.332031 L 296.523438 3 L 331.863281 3 L 331.863281 73.671875 Z M 160.324219 73.671875 " fill-opacity="1" fill-rule="evenodd"/><path fill="#00bfff" d="M 138.527344 65.382812 L 143.105469 65.382812 L 141.609375 66.882812 L 137.03125 66.882812 Z M 130.886719 65.382812 L 135.46875 65.382812 L 133.972656 66.882812 L 129.390625 66.882812 Z M 123.25 65.382812 L 127.828125 65.382812 L 126.332031 66.882812 L 121.75 66.882812 Z M 115.609375 65.382812 L 120.191406 65.382812 L 118.695312 66.882812 L 114.113281 66.882812 Z M 236.53125 46.617188 L 231.949219 46.617188 L 233.445312 45.121094 L 238.027344 45.121094 Z M 244.171875 46.617188 L 239.589844 46.617188 L 241.085938 45.121094 L 245.667969 45.121094 Z M 251.808594 46.617188 L 247.226562 46.617188 L 248.726562 45.121094 L 253.304688 45.121094 Z M 259.449219 46.617188 L 254.867188 46.617188 L 256.363281 45.121094 L 260.945312 45.121094 Z M 177.753906 65.382812 L 244.785156 65.382812 L 245.570312 64.601562 L 265.746094 64.601562 L 266.53125 65.382812 L 323.585938 65.382812 L 323.585938 61.144531 L 322.148438 59.707031 L 322.148438 16.714844 L 323.585938 15.277344 L 323.585938 11.277344 L 299.960938 11.277344 L 264.84375 46.394531 L 264.625 46.617188 L 262.511719 46.617188 L 299.347656 9.78125 L 325.085938 9.78125 L 325.085938 15.898438 L 324.867188 16.121094 L 323.648438 17.335938 L 323.648438 59.09375 L 324.867188 60.308594 L 325.085938 60.53125 L 325.085938 66.886719 L 144.675781 66.886719 L 146.171875 65.390625 L 177.753906 65.390625 Z M 172.761719 46.617188 L 130.273438 46.617188 L 129.488281 47.402344 L 109.308594 47.402344 L 108.527344 46.617188 L 51.480469 46.617188 L 51.480469 50.859375 L 52.917969 52.296875 L 52.917969 95.285156 L 51.480469 96.722656 L 51.480469 100.722656 L 75.101562 100.722656 L 110.441406 65.382812 L 112.550781 65.382812 L 103.816406 74.121094 L 75.9375 101.996094 L 75.714844 102.21875 L 49.976562 102.21875 L 49.976562 96.105469 L 51.414062 94.667969 L 51.414062 52.910156 L 49.976562 51.472656 L 49.976562 45.113281 L 230.375 45.113281 L 228.878906 46.609375 L 172.761719 46.609375 Z M 172.761719 46.617188 " fill-opacity="1" fill-rule="nonzero"/><path fill="#20b2ab" d="M 142.910156 35.339844 L 165.773438 35.339844 L 171.761719 41.324219 L 148.902344 41.324219 Z M 116.988281 35.339844 L 139.851562 35.339844 L 145.839844 41.324219 L 122.972656 41.324219 Z M 91.066406 35.339844 L 113.929688 35.339844 L 119.914062 41.324219 L 97.050781 41.324219 Z M 65.144531 35.339844 L 88.007812 35.339844 L 93.992188 41.324219 L 71.128906 41.324219 Z M 232.148438 76.664062 L 209.28125 76.664062 L 203.296875 70.675781 L 226.15625 70.675781 Z M 258.070312 76.664062 L 235.203125 76.664062 L 229.21875 70.675781 L 252.082031 70.675781 Z M 283.992188 76.664062 L 261.128906 76.664062 L 255.140625 70.675781 L 278.007812 70.675781 Z M 309.914062 76.664062 L 287.050781 76.664062 L 281.0625 70.675781 L 303.929688 70.675781 Z M 174.820312 41.324219 L 168.832031 35.339844 L 259.949219 35.339844 L 294.40625 0.882812 L 295.285156 0.0078125 L 334.851562 0.0078125 L 334.851562 76.65625 L 312.972656 76.65625 L 306.988281 70.671875 L 328.863281 70.671875 L 328.863281 61.078125 L 327.183594 59.398438 L 327.183594 17.023438 L 328.863281 15.34375 L 328.863281 5.984375 L 297.761719 5.984375 L 262.429688 41.316406 L 174.820312 41.316406 Z M 187.527344 76.664062 L 115.105469 76.664062 L 79.773438 111.996094 L 40.199219 111.996094 L 40.199219 35.34375 L 62.078125 35.34375 L 68.0625 41.332031 L 46.1875 41.332031 L 46.1875 50.921875 L 47.867188 52.601562 L 47.867188 94.980469 L 46.1875 96.660156 L 46.1875 106.011719 L 77.289062 106.011719 L 112.625 70.675781 L 200.230469 70.675781 L 206.21875 76.664062 Z M 187.527344 76.664062 " fill-opacity="1" fill-rule="nonzero"/><path fill="#20b2ab" d="M 58.171875 59.25 L 56.558594 60.863281 L 58.171875 62.476562 L 58.171875 62.882812 L 57.765625 62.882812 L 56.152344 61.269531 L 54.539062 62.882812 L 54.132812 62.882812 L 54.132812 62.476562 L 55.746094 60.863281 L 54.132812 59.25 L 54.132812 58.84375 L 54.539062 58.84375 L 56.152344 60.457031 L 57.765625 58.84375 L 58.171875 58.84375 Z M 58.171875 64.125 L 56.558594 65.738281 L 58.171875 67.351562 L 58.171875 67.761719 L 57.765625 67.761719 L 56.152344 66.148438 L 54.53125 67.761719 L 54.125 67.761719 L 54.125 67.359375 L 55.738281 65.742188 L 54.125 64.128906 L 54.125 63.726562 L 54.53125 63.726562 L 56.144531 65.339844 L 57.757812 63.726562 L 58.164062 63.726562 L 58.164062 64.125 Z M 58.171875 69 L 56.558594 70.613281 L 58.171875 72.226562 L 58.171875 72.632812 L 57.765625 72.632812 L 56.152344 71.015625 L 54.539062 72.632812 L 54.132812 72.632812 L 54.132812 72.226562 L 55.746094 70.613281 L 54.132812 69 L 54.132812 68.59375 L 54.539062 68.59375 L 56.152344 70.207031 L 57.765625 68.59375 L 58.171875 68.59375 Z M 61.589844 94.867188 L 56.535156 99.917969 L 55.96875 99.917969 L 55.96875 99.351562 L 61.027344 94.300781 L 61.59375 94.300781 L 61.59375 94.867188 Z M 64.417969 94.867188 L 59.367188 99.917969 L 58.796875 99.917969 L 58.796875 99.351562 L 63.847656 94.300781 L 64.417969 94.300781 Z M 67.242188 94.867188 L 62.191406 99.917969 L 61.621094 99.917969 L 61.621094 99.351562 L 66.671875 94.300781 L 67.242188 94.300781 Z M 70.070312 94.867188 L 65.019531 99.917969 L 64.449219 99.917969 L 64.449219 99.351562 L 69.5 94.300781 L 70.070312 94.300781 Z M 76.167969 94.867188 L 71.117188 99.917969 L 70.546875 99.917969 L 70.546875 99.351562 L 75.605469 94.300781 L 76.171875 94.300781 L 76.171875 94.867188 Z M 78.996094 94.867188 L 73.945312 99.917969 L 73.375 99.917969 L 73.375 99.351562 L 78.429688 94.300781 L 78.996094 94.300781 Z M 73.335938 94.867188 L 68.285156 99.917969 L 67.71875 99.917969 L 67.71875 99.351562 L 72.769531 94.300781 L 73.335938 94.300781 Z M 58.765625 94.867188 L 53.714844 99.917969 L 53.144531 99.917969 L 53.144531 99.351562 L 58.195312 94.300781 L 58.765625 94.300781 Z M 316.886719 52.753906 L 318.5 51.140625 L 316.886719 49.523438 L 316.886719 49.121094 L 317.292969 49.121094 L 318.90625 50.734375 L 320.519531 49.121094 L 320.925781 49.121094 L 320.925781 49.523438 L 319.3125 51.140625 L 320.925781 52.753906 L 320.925781 53.160156 L 320.519531 53.160156 L 318.90625 51.542969 L 317.292969 53.160156 L 316.886719 53.160156 Z M 316.886719 47.878906 L 318.5 46.265625 L 316.886719 44.652344 L 316.886719 44.238281 L 317.292969 44.238281 L 318.90625 45.851562 L 320.519531 44.238281 L 320.925781 44.238281 L 320.925781 44.644531 L 319.3125 46.257812 L 320.925781 47.871094 L 320.925781 48.277344 L 320.519531 48.277344 L 318.90625 46.664062 L 317.292969 48.277344 L 316.886719 48.277344 Z M 316.886719 43.003906 L 318.5 41.390625 L 316.886719 39.777344 L 316.886719 39.371094 L 317.292969 39.371094 L 318.90625 40.984375 L 320.519531 39.371094 L 320.925781 39.371094 L 320.925781 39.777344 L 319.3125 41.390625 L 320.925781 43.003906 L 320.925781 43.410156 L 320.519531 43.410156 L 318.90625 41.796875 L 317.292969 43.410156 L 316.886719 43.410156 Z M 313.46875 17.132812 L 318.519531 12.082031 L 319.089844 12.082031 L 319.089844 12.652344 L 314.039062 17.703125 L 313.46875 17.703125 Z M 310.640625 17.132812 L 315.691406 12.082031 L 316.257812 12.082031 L 316.257812 12.652344 L 311.207031 17.703125 L 310.640625 17.703125 Z M 307.808594 17.132812 L 312.863281 12.082031 L 313.429688 12.082031 L 313.429688 12.652344 L 308.378906 17.703125 L 307.808594 17.703125 Z M 304.988281 17.132812 L 310.039062 12.082031 L 310.605469 12.082031 L 310.605469 12.652344 L 305.554688 17.703125 L 304.988281 17.703125 Z M 298.890625 17.132812 L 303.941406 12.082031 L 304.511719 12.082031 L 304.511719 12.652344 L 299.453125 17.703125 L 298.882812 17.703125 L 298.882812 17.132812 Z M 296.0625 17.132812 L 301.113281 12.082031 L 301.679688 12.082031 L 301.679688 12.652344 L 296.628906 17.703125 L 296.0625 17.703125 Z M 301.71875 17.132812 L 306.769531 12.082031 L 307.339844 12.082031 L 307.339844 12.652344 L 302.289062 17.703125 L 301.71875 17.703125 Z M 316.292969 17.132812 L 321.34375 12.082031 L 321.910156 12.082031 L 321.910156 12.652344 L 316.859375 17.703125 L 316.292969 17.703125 Z M 316.886719 57.628906 L 318.5 56.015625 L 316.886719 54.398438 L 316.886719 53.996094 L 317.292969 53.996094 L 318.90625 55.609375 L 320.519531 53.996094 L 320.925781 53.996094 L 320.925781 54.398438 L 319.3125 56.015625 L 320.925781 57.628906 L 320.925781 58.035156 L 320.519531 58.035156 L 318.90625 56.417969 L 317.292969 58.035156 L 316.886719 58.035156 Z M 58.171875 54.375 L 56.558594 55.988281 L 58.171875 57.601562 L 58.171875 58.007812 L 57.765625 58.007812 L 56.152344 56.394531 L 54.539062 58.007812 L 54.132812 58.007812 L 54.132812 57.601562 L 55.746094 55.988281 L 54.132812 54.375 L 54.132812 53.96875 L 54.539062 53.96875 L 56.152344 55.582031 L 57.765625 53.96875 L 58.171875 53.96875 Z M 58.171875 54.375 " fill-opacity="1" fill-rule="evenodd"/></svg>