<svg xmlns="http://www.w3.org/2000/svg" xmlns:xlink="http://www.w3.org/1999/xlink" width="500" zoomAndPan="magnify" viewBox="0 0 375 374.999991" height="500" preserveAspectRatio="xMidYMid meet" version="1.0"><defs><clipPath id="7cdf4f63aa"><path d="M 61.519531 17.582031 L 313 17.582031 L 313 356 L 61.519531 356 Z M 61.519531 17.582031 " clip-rule="nonzero"/></clipPath><clipPath id="c9faa80cfb"><path d="M 61.519531 124 L 270 124 L 270 314 L 61.519531 314 Z M 61.519531 124 " clip-rule="nonzero"/></clipPath><clipPath id="9c2c3a451a"><path d="M 183 17.582031 L 281 17.582031 L 281 80 L 183 80 Z M 183 17.582031 " clip-rule="nonzero"/></clipPath></defs><g clip-path="url(#7cdf4f63aa)"><path fill="#20b2ab" d="M 108.886719 255.253906 C 108.460938 255.332031 108.035156 255.410156 107.609375 255.488281 C 107.265625 253.601562 106.53125 251.691406 106.648438 249.832031 C 107.082031 243.09375 108.027344 236.382812 108.363281 229.640625 C 109.324219 210.347656 115.027344 192.574219 127.289062 177.699219 C 152.890625 146.648438 189.765625 140.039062 225.699219 164.539062 C 228.152344 166.210938 230.535156 168.464844 232.011719 170.996094 C 237.195312 179.890625 242.765625 188.691406 246.722656 198.144531 C 253.082031 213.335938 254.917969 229.613281 254.636719 246.003906 C 254.457031 256.691406 252.136719 266.84375 243.550781 274.425781 C 242.535156 275.320312 241.5625 276.476562 241.082031 277.710938 C 240.597656 278.949219 240.753906 280.4375 240.632812 281.816406 C 242.050781 281.761719 243.585938 282.015625 244.863281 281.5625 C 246.09375 281.121094 247.15625 280.050781 248.136719 279.09375 C 254.0625 273.308594 257.527344 266.21875 258.996094 258.132812 C 261.308594 245.367188 260.796875 232.628906 259.136719 219.800781 C 255.433594 191.148438 241.882812 167.460938 219.835938 149.894531 C 198.03125 132.519531 172.5 128.996094 146.640625 141.164062 C 137.058594 145.675781 128.808594 153.039062 120.003906 159.175781 C 110.457031 165.835938 101.90625 173.550781 95.367188 183.285156 C 93.914062 185.453125 92.324219 187.640625 91.4375 190.054688 C 85.859375 205.316406 80.691406 220.722656 74.925781 235.910156 C 71.1875 245.757812 72.582031 254.71875 77.324219 263.742188 C 80.78125 270.324219 83.972656 277.074219 86.777344 283.957031 C 93.492188 300.460938 101.386719 316.164062 115.121094 328.09375 C 122.929688 334.878906 130.898438 341.492188 138.976562 347.957031 C 141.523438 349.996094 144.515625 351.710938 147.582031 352.777344 C 149.425781 353.417969 151.800781 352.519531 153.933594 352.308594 C 152.582031 350.792969 151.507812 348.796875 149.835938 347.828125 C 127.09375 334.652344 108.613281 317.449219 97.449219 293.195312 C 92.03125 281.425781 86.75 269.597656 81.089844 257.949219 C 77.960938 251.511719 77.941406 245.3125 80.449219 238.769531 C 82.617188 233.113281 84.453125 227.328125 86.425781 221.59375 C 89.058594 213.925781 91.320312 206.105469 94.421875 198.632812 C 96.609375 193.359375 99.921875 188.550781 102.730469 183.53125 C 103.132812 183.746094 103.53125 183.953125 103.929688 184.160156 C 103.628906 185.167969 103.492188 186.261719 103.003906 187.164062 C 97.269531 197.691406 94.054688 209.046875 92.046875 220.777344 C 89.953125 233.015625 87.695312 245.230469 89.753906 257.765625 C 92.777344 276.171875 102.15625 291.839844 111.109375 307.671875 C 115.941406 316.222656 122.683594 323.070312 131.011719 328.351562 C 138.582031 333.152344 145.964844 338.261719 153.660156 342.847656 C 157.035156 344.851562 160.867188 346.445312 164.699219 347.265625 C 177.371094 349.976562 190.128906 352.308594 202.875 354.667969 C 210.609375 356.097656 218.292969 355.738281 225.707031 352.949219 C 226.90625 352.5 227.714844 351.011719 228.707031 350.007812 C 227.417969 349.191406 226.203125 348.179688 224.804688 347.640625 C 224.019531 347.332031 222.929688 347.859375 221.976562 347.90625 C 216.628906 348.164062 211.152344 349.234375 205.957031 348.460938 C 192.332031 346.421875 178.792969 343.746094 165.296875 340.941406 C 161.480469 340.144531 157.6875 338.441406 154.332031 336.421875 C 147.25 332.152344 140.363281 327.539062 133.589844 322.792969 C 129.996094 320.277344 126.195312 317.664062 123.539062 314.269531 C 107.964844 294.371094 96.175781 272.675781 95.972656 246.621094 C 95.796875 223.984375 101.824219 202.703125 110.921875 181.984375 C 115.722656 171.050781 122.769531 162.964844 132.621094 156.820312 C 134.722656 155.507812 136.664062 153.933594 138.699219 152.511719 C 158.238281 138.835938 179.167969 135.972656 201.519531 144.511719 C 203.4375 145.246094 205.175781 146.4375 206.996094 147.421875 C 206.820312 147.808594 206.644531 148.199219 206.472656 148.59375 C 204.511719 148.140625 202.578125 147.546875 200.597656 147.273438 C 192.445312 146.144531 184.175781 143.6875 176.140625 144.296875 C 148.9375 146.363281 129.671875 161.484375 115.765625 184.085938 C 107.105469 198.160156 104.296875 213.960938 102.363281 230.136719 C 100.828125 242.933594 100.414062 255.441406 104.613281 267.761719 C 118.859375 309.550781 146.316406 335.871094 191.207031 342.144531 C 208.941406 344.621094 226.417969 345.414062 243.320312 338.242188 C 246.15625 337.042969 248.882812 335.265625 251.195312 333.226562 C 258.3125 326.957031 265.285156 320.523438 272.164062 313.996094 C 283.972656 302.789062 293.988281 290.324219 295.8125 273.449219 C 297.042969 262.078125 297.226562 250.597656 297.875 239.167969 C 297.972656 237.511719 298.054688 235.855469 298.144531 234.203125 C 298.5625 234.183594 298.980469 234.164062 299.394531 234.148438 C 299.738281 236.785156 300.441406 239.429688 300.363281 242.054688 C 300.066406 251.683594 299.4375 261.304688 299.128906 270.9375 C 299.085938 272.285156 300.136719 273.671875 300.683594 275.035156 C 301.980469 274.003906 303.96875 273.210938 304.4375 271.882812 C 305.480469 268.929688 305.890625 265.722656 306.332031 262.585938 C 308.015625 250.589844 305.664062 238.84375 303.199219 227.292969 C 296.519531 195.957031 283.304688 167.175781 267.148438 139.707031 C 265.121094 136.25 261.859375 133.304688 258.636719 130.804688 C 245.015625 120.238281 230.101562 112.050781 213.449219 107.230469 C 204.703125 104.703125 195.976562 102.125 187.296875 99.382812 C 149.667969 87.492188 116.121094 97.324219 84.722656 118.582031 C 83.148438 119.648438 81.476562 120.960938 80.613281 122.570312 C 79.9375 123.839844 80.433594 125.742188 80.410156 127.363281 C 81.878906 127.117188 83.585938 127.273438 84.769531 126.558594 C 90.972656 122.789062 96.746094 118.191406 103.226562 115.015625 C 117.359375 108.085938 131.902344 101.765625 147.832031 100.582031 C 175.726562 98.519531 200.941406 108.273438 225.730469 119.410156 C 227.085938 120.019531 228.113281 121.371094 229.285156 122.378906 C 229.066406 122.757812 228.84375 123.140625 228.628906 123.519531 C 226.308594 122.605469 224 121.664062 221.667969 120.773438 C 209.453125 116.101562 197.460938 110.667969 184.960938 106.949219 C 165.675781 101.214844 145.703125 99.480469 126.992188 108.167969 C 109.289062 116.386719 92.546875 126.6875 75.480469 136.242188 C 74.472656 136.808594 74.328125 138.90625 73.785156 140.289062 C 75.238281 140.734375 76.929688 141.867188 78.101562 141.472656 C 80.664062 140.613281 83.039062 139.09375 85.351562 137.621094 C 94.652344 131.703125 103.660156 125.273438 113.246094 119.871094 C 120.152344 115.976562 127.761719 113.304688 135.15625 110.335938 C 136.65625 109.734375 138.605469 110.25 140.347656 110.25 C 140.386719 110.617188 140.429688 110.988281 140.46875 111.355469 C 138.957031 111.917969 137.445312 112.488281 135.925781 113.039062 C 129.972656 115.210938 123.75 116.839844 118.117188 119.648438 C 100.816406 128.273438 86.171875 140.757812 71.5 153.097656 C 69.925781 154.421875 69.660156 157.292969 68.789062 159.449219 C 70.871094 158.9375 73.402344 159.007812 74.953125 157.808594 C 81.496094 152.75 87.785156 147.359375 94.09375 142.003906 C 105.328125 132.46875 117.355469 124.300781 131.597656 119.867188 C 148.460938 114.621094 165.640625 110.398438 183.285156 113.925781 C 201.316406 117.53125 218.511719 124.003906 234.5625 133.214844 C 246.675781 140.167969 255.863281 149.574219 260.957031 162.875 C 262.714844 167.453125 265.902344 171.46875 268.109375 175.90625 C 271.515625 182.765625 275.726562 189.472656 277.679688 196.761719 C 283.378906 218.011719 284.0625 239.824219 282.636719 261.699219 C 282.386719 265.527344 281.796875 269.40625 280.785156 273.101562 C 272.773438 302.417969 236.703125 324.8125 205.394531 319.59375 C 194.675781 317.804688 184.15625 314.820312 173.527344 312.441406 C 170.957031 311.867188 167.21875 310.085938 166.234375 313.359375 C 165.1875 316.84375 169.230469 317.792969 171.929688 318.484375 C 179.539062 320.4375 187.203125 322.183594 194.871094 323.894531 C 214.351562 328.25 233 325.980469 250.675781 316.589844 C 275.078125 303.628906 289.222656 284.058594 289.148438 255.710938 C 289.121094 244.675781 288.683594 233.625 287.890625 222.617188 C 286.386719 201.867188 282.296875 181.863281 269.234375 164.785156 C 267.820312 162.933594 266.550781 160.871094 265.695312 158.714844 C 260.515625 145.667969 250.988281 136.621094 239.320312 129.429688 C 237.976562 128.605469 236.953125 127.257812 235.785156 126.15625 C 236.046875 125.796875 236.316406 125.4375 236.582031 125.078125 C 238.972656 126.253906 241.414062 127.332031 243.742188 128.617188 C 254.171875 134.367188 263.417969 141.039062 267.929688 152.96875 C 271.230469 161.699219 275.972656 169.875 279.859375 178.394531 C 282.816406 184.878906 286.683594 191.28125 287.992188 198.132812 C 292.289062 220.578125 293.398438 243.195312 290.582031 266.082031 C 287.050781 294.707031 271.273438 312.960938 244.886719 322.480469 C 220.640625 331.230469 196.34375 329.257812 172.234375 321.179688 C 166.53125 319.269531 161.910156 316.085938 158.101562 311.523438 C 152.53125 304.847656 146.402344 298.570312 141.441406 291.46875 C 136.191406 283.957031 131.070312 276.078125 127.582031 267.660156 C 118.574219 245.90625 121.3125 223.558594 126.140625 201.328125 C 126.429688 200 126.933594 198.648438 127.625 197.476562 C 134.351562 186.101562 142.464844 175.882812 153.316406 168.148438 C 161.382812 162.402344 170.296875 158.960938 180.398438 159.648438 C 184.796875 159.945312 189.179688 160.554688 193.558594 161.117188 C 211.457031 163.410156 224.667969 172.308594 232.433594 188.824219 C 233.546875 191.1875 234.652344 193.5625 235.742188 195.9375 C 241.292969 208.027344 244.570312 220.574219 243.339844 234.019531 C 241.964844 249.007812 230.652344 262.488281 216.304688 265.410156 C 213.082031 266.066406 209.214844 265.242188 206.035156 264.054688 C 200.507812 261.992188 195.402344 258.8125 189.902344 256.660156 C 185.160156 254.804688 181.640625 251.832031 180.242188 247.140625 C 177.054688 236.464844 173.695312 225.777344 171.585938 214.863281 C 169.6875 205.050781 171.566406 195.511719 179.183594 188.101562 C 184.078125 183.34375 189.984375 181.730469 196.652344 183.671875 C 203.289062 185.609375 208.164062 190.238281 212.234375 195.355469 C 220.730469 206.035156 223.730469 218.371094 219.503906 231.492188 C 216.277344 241.507812 207.539062 243.34375 199.613281 236.457031 C 194.566406 232.066406 191.484375 226.484375 189.628906 220.089844 C 188.878906 217.511719 187.5 215.113281 186.40625 212.636719 C 185.976562 212.761719 185.546875 212.886719 185.117188 213.015625 C 184.890625 213.882812 184.472656 214.75 184.472656 215.621094 C 184.441406 225.953125 187.710938 234.894531 195.945312 241.535156 C 208.042969 251.292969 221.0625 247.316406 224.910156 232.289062 C 229.097656 215.941406 224.675781 201.085938 214.710938 187.976562 C 208.089844 179.257812 198.007812 176.128906 187.757812 174.023438 C 177.820312 171.976562 168.765625 173.996094 162.820312 182.726562 C 159.484375 187.628906 157.058594 193.355469 155.253906 199.042969 C 151.59375 210.570312 149.894531 222.488281 151.96875 234.558594 C 154.332031 248.332031 165.011719 257.664062 171.3125 269.351562 C 171.78125 270.222656 173.867188 270.222656 175.203125 270.625 C 175.550781 269.136719 176.589844 267.371094 176.132812 266.1875 C 172.515625 256.867188 171.410156 246.546875 165.0625 238.289062 C 163.390625 236.113281 162.117188 233.628906 160.675781 231.277344 C 157.550781 226.183594 156.804688 220.617188 158.113281 214.921875 C 159.53125 208.757812 161.113281 202.589844 163.214844 196.636719 C 165.558594 190.007812 168.539062 183.578125 175.621094 180.503906 C 177.027344 179.890625 178.59375 179.648438 180.082031 179.234375 C 177.746094 182.03125 175.050781 183.691406 172.683594 185.734375 C 165.535156 191.914062 165.03125 200.464844 165.292969 208.921875 C 165.953125 230.367188 173.667969 249.882812 183.082031 268.699219 C 187.371094 277.269531 194.5 280.015625 203.6875 277.421875 C 216.378906 273.839844 228.4375 268.773438 237.5625 258.589844 C 238.777344 257.238281 240.1875 256.058594 241.503906 254.796875 C 241.828125 255.027344 242.152344 255.257812 242.476562 255.484375 C 242.023438 256.671875 241.847656 258.101562 241.066406 259.003906 C 235.671875 265.234375 230.945312 272.425781 224.464844 277.230469 C 216.484375 283.140625 206.742188 286.867188 196.414062 284.195312 C 190.675781 282.710938 185.433594 279.355469 179.863281 277.101562 C 178.597656 276.585938 176.902344 277.140625 175.402344 277.203125 C 175.777344 278.664062 175.65625 280.738281 176.597656 281.492188 C 184.492188 287.796875 192.902344 292.691406 203.71875 291.515625 C 214.558594 290.332031 223.484375 285.488281 232.125 279.132812 C 241.011719 272.589844 246.429688 264.207031 248.21875 253.585938 C 252.175781 230.105469 249.308594 207.582031 238.238281 186.238281 C 230.042969 170.429688 218.5625 159.144531 200.054688 156.816406 C 198.011719 156.558594 196.015625 155.925781 193.992188 155.503906 C 182.035156 153.011719 169.902344 151.753906 158.824219 157.902344 C 151.082031 162.199219 143.546875 167.390625 137.148438 173.476562 C 128.367188 181.832031 121.125 191.765625 118.851562 204.113281 C 117.304688 212.5 116.359375 221.0625 115.945312 229.589844 C 114.09375 267.613281 130.039062 297.429688 159.167969 320.753906 C 163.019531 323.835938 167.988281 325.972656 172.785156 327.324219 C 180.859375 329.59375 189.242188 330.757812 197.4375 332.613281 C 205.910156 334.535156 214.386719 334.929688 222.914062 333.335938 C 229.011719 332.195312 235.054688 330.792969 241.128906 329.53125 C 243.046875 329.136719 244.980469 328.832031 246.902344 328.484375 C 247.066406 328.875 247.226562 329.265625 247.390625 329.65625 C 246.03125 330.636719 244.808594 332.027344 243.289062 332.523438 C 237.679688 334.359375 232.035156 337.019531 226.300781 337.308594 C 215.472656 337.84375 204.570312 336.652344 193.703125 336.734375 C 180.742188 336.832031 169.421875 332.269531 158.722656 325.597656 C 136.734375 311.898438 121.6875 292.480469 112.316406 268.539062 C 111.601562 266.714844 111.542969 263.945312 112.441406 262.308594 C 115.519531 256.699219 114.523438 251.101562 113.292969 245.421875 C 113.066406 244.355469 112.226562 243.421875 111.453125 242.042969 C 106.878906 246.214844 110.453125 251.21875 108.886719 255.253906 Z M 208.890625 263.070312 C 210.96875 262.878906 213.164062 262.996094 215.171875 262.433594 C 227.738281 258.925781 234.328125 249.898438 236.742188 237.683594 C 239.945312 221.460938 235.585938 206.109375 229.632812 191.320312 C 222.644531 173.976562 207.25 167.488281 190.550781 163.546875 C 175.75 160.058594 162.839844 164.3125 151.390625 174.101562 C 143.257812 181.054688 137.210938 189.339844 132.988281 199.148438 C 125.574219 216.355469 123.675781 234.320312 128.539062 252.152344 C 132.839844 267.898438 141.167969 282.085938 151.480469 294.929688 C 158.132812 303.214844 166.730469 308.289062 176.945312 310.90625 C 187.382812 313.578125 197.828125 313.769531 208.546875 312.609375 C 236.175781 309.613281 255.121094 295.671875 265.167969 269.636719 C 268.808594 260.195312 270.1875 250.484375 269.925781 240.457031 C 269.277344 215.808594 266.199219 191.878906 251.777344 170.714844 C 241.140625 155.109375 227.945312 142.292969 211.257812 133.691406 C 188.058594 121.734375 164.136719 122.863281 140.339844 132.324219 C 129.070312 136.804688 117.773438 141.273438 106.8125 146.433594 C 101.546875 148.910156 96.367188 152.332031 92.308594 156.464844 C 79.691406 169.300781 70.597656 184.59375 63.921875 201.253906 C 62.417969 205.011719 62.027344 209.273438 61.53125 213.355469 C 61.390625 214.503906 62.703125 215.832031 63.347656 217.074219 C 64.359375 216.007812 65.863281 215.109375 66.292969 213.84375 C 67.789062 209.421875 68.492188 204.699219 70.265625 200.40625 C 75.730469 187.171875 83.421875 175.230469 92.726562 164.378906 C 98.492188 157.65625 105.777344 153.089844 114.082031 149.910156 C 122.949219 146.507812 131.6875 142.746094 140.375 138.910156 C 159.753906 130.355469 179.488281 128.503906 199.558594 135.960938 C 230.234375 147.363281 249.167969 170.054688 258.707031 200.542969 C 265.222656 221.359375 266.828125 242.765625 259.972656 264.109375 C 253.644531 283.824219 242.433594 298.917969 221.179688 303.769531 C 213.449219 305.535156 205.402344 306.109375 197.460938 306.703125 C 188.871094 307.347656 181.640625 303.804688 175.253906 298.234375 C 164.125 288.527344 155.691406 276.894531 150.421875 263.117188 C 149.078125 259.601562 148.675781 255.660156 148.269531 251.867188 C 147.871094 248.140625 148.601562 244.226562 147.828125 240.613281 C 144.734375 226.210938 144.199219 212.21875 152.144531 198.984375 C 153.609375 196.539062 154.835938 193.859375 155.59375 191.128906 C 155.996094 189.675781 155.160156 187.878906 154.882812 186.234375 C 153.363281 186.8125 151.15625 186.945312 150.449219 188.042969 C 148.105469 191.691406 145.972656 195.550781 144.355469 199.574219 C 139.121094 212.585938 136.941406 226.371094 138.152344 240.152344 C 140.0625 261.921875 149.625 280.511719 165.253906 295.867188 C 167.347656 297.929688 169.636719 299.78125 171.835938 301.726562 C 171.511719 302.117188 171.191406 302.503906 170.871094 302.890625 C 169.519531 302.085938 168.128906 301.347656 166.832031 300.46875 C 159.515625 295.488281 153.691406 289.058594 149.351562 281.40625 C 139.816406 264.582031 130.75 247.914062 132.234375 227.191406 C 133.734375 206.332031 142.898438 190.015625 158.058594 176.84375 C 172.183594 164.570312 200.542969 166.402344 213.414062 180.214844 C 228.054688 195.933594 233.980469 214.820312 230.796875 236.195312 C 230.449219 238.507812 228.382812 241.179688 226.347656 242.492188 C 222.449219 245.003906 217.898438 246.484375 213.792969 248.707031 C 207.144531 252.308594 201.140625 251.386719 195.316406 246.894531 C 182.5625 237.058594 177.417969 212.53125 185.246094 198.527344 C 187.976562 193.640625 190.757812 192.292969 196.332031 192.734375 C 197.621094 192.839844 198.972656 192.085938 200.300781 191.722656 C 199.5625 190.265625 199.195312 188.308594 198.019531 187.441406 C 193.984375 184.445312 189.371094 185.089844 185.308594 188.84375 C 179.789062 193.941406 176.738281 200.476562 176 207.746094 C 174.445312 223.066406 177.957031 237.09375 188.53125 248.769531 C 195.148438 256.082031 203.15625 258.332031 212.488281 254.433594 C 215.921875 253 219.273438 251.375 222.695312 249.910156 C 223.546875 249.546875 224.519531 249.453125 225.4375 249.234375 C 225.585938 249.5625 225.742188 249.890625 225.894531 250.222656 C 224.769531 251.085938 223.75 252.175781 222.496094 252.777344 C 219.148438 254.386719 215.695312 255.773438 212.300781 257.28125 C 210.085938 258.261719 207.988281 259.359375 208.890625 263.070312 Z M 272.65625 85.4375 C 272.265625 85.828125 271.871094 86.210938 271.476562 86.597656 C 270.277344 85.601562 269 84.679688 267.882812 83.59375 C 260.550781 76.441406 252.914062 69.695312 243.574219 65.199219 C 229.292969 58.324219 215.25 50.882812 200.664062 44.734375 C 187.632812 39.246094 174.15625 34.652344 160.5625 30.769531 C 155.773438 29.402344 150.023438 31.136719 144.777344 31.898438 C 143.800781 32.039062 143.128906 34.292969 142.320312 35.570312 C 143.609375 36.007812 144.945312 36.933594 146.183594 36.816406 C 155.699219 35.917969 165.167969 36.710938 173.847656 40.421875 C 197.53125 50.542969 220.960938 61.261719 244.457031 71.8125 C 246.089844 72.542969 247.464844 73.847656 249.667969 75.382812 C 248.261719 75.382812 247.828125 75.492188 247.484375 75.363281 C 245.421875 74.589844 243.363281 73.78125 241.324219 72.945312 C 219.644531 64.085938 198.078125 54.945312 176.25 46.46875 C 164.925781 42.070312 153.078125 39.136719 140.691406 40.046875 C 138.84375 40.179688 136.867188 40.699219 135.292969 41.625 C 134.371094 42.167969 134.121094 43.863281 133.570312 45.042969 C 134.746094 45.492188 136 46.480469 137.078125 46.3125 C 147.597656 44.679688 157.898438 46.097656 167.613281 49.796875 C 195.039062 60.230469 222.277344 71.164062 249.554688 81.980469 C 268.847656 89.628906 285.015625 100.910156 294.003906 120.53125 C 294.558594 121.746094 296.617188 122.273438 297.972656 123.121094 C 298.351562 121.425781 298.925781 119.738281 299.027344 118.023438 C 299.078125 117.191406 298.316406 116.261719 297.808594 115.449219 C 292.230469 106.582031 286.785156 97.625 280.976562 88.910156 C 277.617188 83.871094 273.796875 79.121094 269.945312 74.4375 C 262.03125 64.804688 252.460938 57.21875 241.003906 52.199219 C 220.679688 43.296875 200.367188 34.378906 179.921875 25.769531 C 175.417969 23.871094 170.410156 23.082031 165.558594 22.148438 C 164.496094 21.945312 163.132812 23.320312 161.90625 23.96875 C 162.667969 25.148438 163.179688 26.730469 164.257812 27.402344 C 165.726562 28.308594 167.628906 28.507812 169.339844 29.019531 C 173.6875 30.3125 178.171875 31.269531 182.351562 32.972656 C 196.003906 38.539062 209.605469 44.253906 223.125 50.140625 C 236.929688 56.152344 250.558594 62.609375 261.707031 73.039062 C 265.714844 76.789062 269.027344 81.285156 272.65625 85.4375 Z M 200.851562 92.902344 C 200.753906 93.160156 200.660156 93.417969 200.558594 93.679688 C 198.382812 93.050781 196.222656 92.351562 194.027344 91.804688 C 184.023438 89.308594 174.136719 85.808594 163.976562 84.613281 C 143.722656 82.230469 123.777344 84.78125 104.636719 92.179688 C 98.101562 94.703125 92.277344 98.445312 88.496094 104.53125 C 87.585938 105.996094 87.878906 108.210938 87.617188 110.082031 C 89.375 109.503906 91.660156 109.4375 92.796875 108.265625 C 98.097656 102.78125 104.253906 98.976562 111.496094 96.554688 C 135.878906 88.414062 160.332031 87.28125 185.121094 94.730469 C 196.066406 98.019531 207.449219 99.976562 218.175781 103.8125 C 233.859375 109.425781 247.523438 118.976562 260.914062 128.707031 C 273.179688 137.621094 280.339844 150.261719 285.320312 164.265625 C 287.679688 170.882812 289.648438 177.636719 292.101562 184.222656 C 297.953125 199.964844 305.035156 215.324219 305.839844 232.535156 C 305.917969 234.234375 307.71875 235.851562 308.71875 237.503906 C 309.382812 237.328125 310.050781 237.15625 310.710938 236.980469 C 310.984375 233.960938 311.898438 230.835938 311.398438 227.949219 C 310.164062 220.773438 308.859375 213.515625 306.546875 206.636719 C 301.414062 191.351562 295.390625 176.371094 290.207031 161.105469 C 284.089844 143.082031 273.007812 129.269531 256.914062 119.265625 C 246.265625 112.648438 235.820312 105.707031 225.128906 99.164062 C 219.058594 95.445312 212.753906 92.085938 206.40625 88.847656 C 203.109375 87.164062 199.425781 86.25 196.039062 84.722656 C 177.375 76.300781 157.972656 72.484375 137.585938 75.789062 C 126.328125 77.613281 115.144531 79.949219 104.007812 82.421875 C 100.820312 83.128906 95.695312 84.824219 97.15625 88.472656 C 98.65625 92.21875 103.105469 89.285156 106.21875 88.121094 C 109.5625 86.875 112.84375 85.296875 116.300781 84.542969 C 144.273438 78.445312 171.652344 79.953125 198.167969 91.414062 C 199.105469 91.816406 199.960938 92.402344 200.851562 92.902344 Z M 275.5625 239.953125 C 275.320312 240 275.082031 240.042969 274.839844 240.089844 C 274.539062 245.042969 274.269531 250.003906 273.929688 254.957031 C 272.332031 278.054688 257.636719 292.679688 240.855469 305.921875 C 239.804688 306.75 238.445312 307.332031 237.136719 307.679688 C 229.050781 309.828125 220.917969 311.824219 212.84375 314.019531 C 211.542969 314.371094 210.4375 315.445312 209.242188 316.179688 C 210.550781 316.910156 211.910156 318.328125 213.167969 318.246094 C 224.632812 317.503906 236.300781 316.632812 245.976562 309.734375 C 257.304688 301.652344 266.144531 291 273.863281 279.460938 C 274.679688 278.238281 275.171875 276.726562 275.550781 275.28125 C 285.0625 238.878906 281.699219 203.84375 263.078125 170.960938 C 249.320312 146.667969 230.402344 128.101562 202.289062 120.785156 C 172.324219 112.992188 143.992188 117.496094 116.195312 130.273438 C 94.882812 140.070312 80.667969 157.34375 66.253906 174.609375 C 64.871094 176.265625 62.941406 178.894531 65.746094 180.609375 C 66.71875 181.199219 69.71875 179.695312 70.96875 178.375 C 75.214844 173.863281 79.117188 169.019531 83.117188 164.277344 C 108.210938 134.503906 140.796875 121.402344 179.050781 123.160156 C 214.835938 124.808594 244.925781 142.460938 262.351562 184.089844 C 265.371094 191.3125 268.925781 198.5 270.585938 206.0625 C 273.027344 217.191406 273.976562 228.640625 275.5625 239.953125 Z M 164.40625 64.789062 C 164.371094 65.351562 164.339844 65.917969 164.304688 66.480469 C 163.503906 66.609375 162.707031 66.832031 161.902344 66.855469 C 159.835938 66.910156 157.753906 67.015625 155.699219 66.855469 C 140.113281 65.648438 124.847656 67.132812 110.007812 72.214844 C 108.601562 72.699219 107.066406 73.21875 106.015625 74.1875 C 105.257812 74.886719 104.722656 76.503906 105.011719 77.425781 C 105.210938 78.070312 107.011719 78.65625 108.007812 78.535156 C 110.457031 78.230469 112.878906 77.589844 115.269531 76.925781 C 147.589844 67.960938 178.804688 70.75 209.148438 85.132812 C 226.140625 93.191406 242.378906 102.457031 257.933594 112.996094 C 274.527344 124.234375 287.519531 138.664062 296.011719 156.804688 C 301.589844 168.71875 304.925781 181.382812 306.003906 194.589844 C 306.222656 197.269531 306.667969 200.710938 310.335938 200.339844 C 311.203125 200.25 312.574219 196.089844 312.183594 194.109375 C 310.1875 183.992188 308.5 173.695312 305.199219 163.972656 C 297.070312 140.011719 281.351562 121.628906 260.613281 107.511719 C 237.957031 92.089844 214.046875 79.058594 187.835938 70.566406 C 185 69.652344 182.546875 67.628906 179.792969 66.394531 C 174.941406 64.214844 170.15625 61.199219 165.050781 60.410156 C 154.867188 58.839844 144.492188 58.242188 134.175781 57.832031 C 129.136719 57.632812 123.976562 58.398438 119.003906 59.390625 C 114.476562 60.292969 112.9375 63.113281 114.058594 67.851562 C 121.878906 63.78125 130.207031 62.519531 138.824219 63.097656 C 147.351562 63.675781 155.878906 64.226562 164.40625 64.789062 Z M 139.949219 47.375 C 139.875 47.738281 139.800781 48.097656 139.730469 48.460938 C 138.902344 48.460938 138.054688 48.351562 137.25 48.480469 C 133.734375 49.046875 130.203125 49.550781 126.753906 50.382812 C 126.007812 50.5625 125.570312 52 124.992188 52.859375 C 125.863281 53.371094 126.691406 54.011719 127.628906 54.347656 C 128.230469 54.566406 128.992188 54.339844 129.679688 54.300781 C 142.757812 53.542969 155.6875 54.742188 168.042969 59.046875 C 181.8125 63.84375 195.367188 69.289062 208.898438 74.738281 C 218.601562 78.644531 228.445312 82.402344 237.644531 87.3125 C 262.8125 100.753906 284.816406 117.769531 298.132812 144.011719 C 298.894531 145.527344 301.152344 146.285156 302.714844 147.394531 C 302.976562 145.613281 304.042969 143.394531 303.359375 142.113281 C 299.957031 135.730469 296.894531 128.902344 292.242188 123.488281 C 276.289062 104.898438 257.925781 88.917969 235.144531 79.320312 C 212.824219 69.914062 190.09375 61.414062 167.265625 53.300781 C 158.558594 50.203125 149.078125 49.285156 139.949219 47.375 Z M 120.988281 152.96875 C 118.890625 152.710938 118.34375 152.539062 117.828125 152.605469 C 117.15625 152.691406 116.457031 152.859375 115.859375 153.164062 C 103.625 159.445312 92.363281 167.414062 85.925781 179.628906 C 78.957031 192.839844 72.925781 206.742188 68.277344 220.933594 C 61.550781 241.460938 62.117188 261.941406 73.726562 281.171875 C 75.703125 284.445312 76.757812 288.261719 78.511719 291.6875 C 81.894531 298.277344 85.386719 304.816406 89.035156 311.257812 C 89.882812 312.746094 91.378906 314.078125 92.890625 314.898438 C 93.839844 315.414062 95.378906 314.839844 96.648438 314.753906 C 96.46875 313.648438 96.574219 312.378906 96.050781 311.472656 C 93.992188 307.898438 91.394531 304.597656 89.621094 300.894531 C 84.386719 289.972656 79.460938 278.902344 74.390625 267.902344 C 70.085938 258.578125 69.328125 248.75 70.582031 238.757812 C 72.988281 219.617188 80.242188 202.058594 89.140625 185.1875 C 91.65625 180.414062 95.304688 175.976562 99.265625 172.28125 C 104.878906 167.039062 111.316406 162.691406 117.285156 157.820312 C 118.589844 156.753906 119.40625 155.085938 120.988281 152.96875 Z M 211.882812 223.632812 C 211.464844 223.835938 211.050781 224.035156 210.632812 224.238281 C 209.441406 221.871094 208.039062 219.585938 207.097656 217.121094 C 205.238281 212.238281 203.75 207.210938 201.882812 202.332031 C 200.171875 197.855469 197.132812 195.929688 193.554688 196.625 C 189.914062 197.335938 188.148438 200.175781 188.40625 205.289062 C 188.789062 212.800781 191.675781 219.539062 195.699219 225.683594 C 198.148438 229.429688 201.136719 233.039062 204.582031 235.863281 C 209.246094 239.6875 215.148438 237.632812 217.222656 231.917969 C 217.957031 229.882812 218.316406 227.636719 218.4375 225.460938 C 219.074219 214.144531 214.597656 204.503906 208.097656 195.6875 C 207.21875 194.492188 204.480469 193.410156 203.34375 193.925781 C 200.863281 195.046875 201.953125 197.402344 203.042969 199.230469 C 204.734375 202.058594 206.816406 204.679688 208.230469 207.628906 C 210.636719 212.65625 213.421875 217.707031 211.882812 223.632812 Z M 187.449219 17.863281 C 186.160156 18.964844 184.9375 20.015625 183.710938 21.066406 C 184.726562 22.140625 185.550781 23.605469 186.792969 24.203125 C 188.882812 25.203125 191.335938 25.425781 193.453125 26.371094 C 210.15625 33.851562 226.839844 41.359375 243.46875 48.992188 C 251.714844 52.777344 258.757812 58.167969 264.597656 65.214844 C 268.199219 69.554688 272.183594 73.597656 276.207031 77.554688 C 277.324219 78.648438 279.210938 78.960938 280.742188 79.628906 C 280.515625 77.886719 280.75 75.882812 279.945312 74.464844 C 278.671875 72.230469 276.730469 70.367188 275.019531 68.390625 C 273.488281 66.621094 271.734375 65.027344 270.339844 63.15625 C 264.28125 55.039062 256.648438 48.78125 247.605469 44.371094 C 232.632812 37.074219 217.589844 29.910156 202.449219 22.96875 C 197.863281 20.863281 192.851562 19.667969 187.449219 17.863281 Z M 154.710938 251.863281 C 154.203125 251.972656 153.695312 252.085938 153.183594 252.199219 C 153.183594 254.175781 152.753906 256.273438 153.253906 258.113281 C 157.976562 275.519531 167.007812 289.464844 184.082031 297.371094 C 201.351562 305.371094 217.566406 303.3125 233.230469 293.40625 C 235.175781 292.179688 236.875 290.445312 238.355469 288.667969 C 238.984375 287.921875 239.261719 285.855469 238.78125 285.441406 C 237.914062 284.691406 236.324219 284.394531 235.113281 284.542969 C 234.175781 284.660156 233.324219 285.707031 232.476562 286.398438 C 210.3125 304.464844 177.117188 297.121094 164.765625 271.398438 C 162.257812 266.175781 159.867188 260.90625 157.320312 255.703125 C 156.644531 254.328125 155.589844 253.136719 154.710938 251.863281 Z M 221.652344 19.175781 C 219.03125 20.339844 217.128906 21.179688 215.222656 22.027344 C 216.402344 23.351562 217.324219 25.128906 218.789062 25.929688 C 226.628906 30.234375 234.558594 34.382812 242.574219 38.347656 C 243.875 38.992188 245.769531 38.4375 247.390625 38.433594 C 246.832031 37.039062 246.65625 35.21875 245.652344 34.324219 C 241.847656 30.9375 238.015625 27.480469 233.738281 24.765625 C 230.011719 22.398438 225.675781 20.988281 221.652344 19.175781 Z M 280.523438 315.285156 C 280.148438 314.445312 279.929688 313.074219 279.355469 312.898438 C 278.507812 312.644531 277.117188 312.933594 276.445312 313.535156 C 271.332031 318.128906 266.21875 322.746094 261.382812 327.636719 C 260.335938 328.695312 260.421875 330.871094 259.984375 332.535156 C 261.773438 332.601562 264.222656 333.453125 265.234375 332.601562 C 270.019531 328.554688 274.5 324.132812 278.886719 319.640625 C 279.839844 318.664062 279.957031 316.871094 280.523438 315.285156 Z M 85.800781 239.691406 C 81.25 242.886719 80.109375 248.316406 81.957031 253.097656 C 82.621094 254.808594 84.230469 256.152344 85.410156 257.664062 C 85.960938 257.390625 86.519531 257.121094 87.074219 256.851562 C 86.648438 251.128906 86.226562 245.410156 85.800781 239.691406 Z M 85.800781 239.691406 " fill-opacity="1" fill-rule="nonzero"/></g><path fill="#20b2ab" d="M 108.886719 255.253906 C 110.453125 251.21875 106.882812 246.214844 111.449219 242.042969 C 112.222656 243.421875 113.058594 244.355469 113.289062 245.421875 C 114.519531 251.097656 115.515625 256.699219 112.4375 262.308594 C 111.539062 263.945312 111.597656 266.714844 112.3125 268.539062 C 121.683594 292.480469 136.730469 311.894531 158.71875 325.597656 C 169.417969 332.265625 180.738281 336.828125 193.699219 336.730469 C 204.566406 336.648438 215.46875 337.84375 226.296875 337.304688 C 232.03125 337.019531 237.675781 334.355469 243.285156 332.523438 C 244.804688 332.023438 246.027344 330.632812 247.386719 329.652344 C 247.222656 329.265625 247.0625 328.871094 246.898438 328.484375 C 244.976562 328.832031 243.042969 329.132812 241.125 329.53125 C 235.050781 330.789062 229.007812 332.195312 222.910156 333.332031 C 214.382812 334.929688 205.90625 334.53125 197.433594 332.613281 C 189.234375 330.757812 180.855469 329.59375 172.78125 327.320312 C 167.984375 325.972656 163.015625 323.835938 159.164062 320.75 C 130.035156 297.425781 114.09375 267.613281 115.941406 229.585938 C 116.355469 221.0625 117.300781 212.5 118.847656 204.109375 C 121.121094 191.765625 128.363281 181.832031 137.144531 173.476562 C 143.542969 167.386719 151.074219 162.199219 158.820312 157.898438 C 169.898438 151.75 182.027344 153.007812 193.988281 155.503906 C 196.011719 155.925781 198.007812 156.558594 200.050781 156.816406 C 218.558594 159.140625 230.039062 170.429688 238.234375 186.234375 C 249.304688 207.578125 252.171875 230.101562 248.214844 253.582031 C 246.425781 264.203125 241.007812 272.589844 232.121094 279.132812 C 223.480469 285.488281 214.554688 290.332031 203.714844 291.511719 C 192.898438 292.691406 184.488281 287.792969 176.59375 281.492188 C 175.652344 280.738281 175.773438 278.664062 175.398438 277.203125 C 176.898438 277.140625 178.59375 276.585938 179.859375 277.097656 C 185.429688 279.355469 190.671875 282.710938 196.410156 284.195312 C 206.738281 286.867188 216.480469 283.140625 224.460938 277.230469 C 230.941406 272.425781 235.667969 265.230469 241.0625 259.003906 C 241.84375 258.101562 242.019531 256.671875 242.472656 255.484375 C 242.148438 255.257812 241.824219 255.027344 241.5 254.796875 C 240.183594 256.054688 238.773438 257.234375 237.558594 258.589844 C 228.433594 268.773438 216.375 273.839844 203.683594 277.421875 C 194.496094 280.011719 187.367188 277.269531 183.078125 268.699219 C 173.664062 249.878906 165.949219 230.363281 165.289062 208.921875 C 165.027344 200.464844 165.53125 191.910156 172.679688 185.734375 C 175.046875 183.6875 177.742188 182.03125 180.078125 179.234375 C 178.585938 179.648438 177.019531 179.890625 175.617188 180.5 C 168.535156 183.578125 165.554688 190.007812 163.210938 196.632812 C 161.109375 202.585938 159.527344 208.753906 158.109375 214.917969 C 156.800781 220.613281 157.550781 226.179688 160.671875 231.277344 C 162.113281 233.628906 163.386719 236.113281 165.058594 238.289062 C 171.40625 246.542969 172.511719 256.867188 176.128906 266.1875 C 176.585938 267.371094 175.546875 269.132812 175.199219 270.625 C 173.863281 270.21875 171.777344 270.222656 171.308594 269.351562 C 165.003906 257.664062 154.328125 248.332031 151.964844 234.558594 C 149.890625 222.484375 151.589844 210.566406 155.25 199.042969 C 157.054688 193.355469 159.480469 187.625 162.816406 182.726562 C 168.761719 173.996094 177.816406 171.976562 187.753906 174.019531 C 198.003906 176.128906 208.082031 179.257812 214.707031 187.976562 C 224.671875 201.085938 229.09375 215.9375 224.90625 232.289062 C 221.058594 247.3125 208.039062 251.292969 195.941406 241.535156 C 187.707031 234.894531 184.4375 225.953125 184.46875 215.617188 C 184.46875 214.75 184.886719 213.882812 185.113281 213.015625 C 185.542969 212.886719 185.972656 212.761719 186.402344 212.636719 C 187.496094 215.113281 188.875 217.511719 189.625 220.089844 C 191.480469 226.484375 194.5625 232.066406 199.609375 236.453125 C 207.535156 243.339844 216.273438 241.507812 219.5 231.492188 C 223.726562 218.371094 220.726562 206.035156 212.230469 195.355469 C 208.15625 190.238281 203.285156 185.609375 196.648438 183.671875 C 189.980469 181.726562 184.070312 183.34375 179.179688 188.101562 C 171.5625 195.507812 169.683594 205.050781 171.582031 214.863281 C 173.691406 225.773438 177.050781 236.464844 180.238281 247.136719 C 181.636719 251.832031 185.15625 254.804688 189.898438 256.65625 C 195.398438 258.808594 200.503906 261.988281 206.03125 264.054688 C 209.210938 265.242188 213.078125 266.066406 216.300781 265.410156 C 230.648438 262.488281 241.960938 249.003906 243.335938 234.019531 C 244.566406 220.574219 241.289062 208.027344 235.738281 195.9375 C 234.644531 193.558594 233.542969 191.1875 232.429688 188.820312 C 224.664062 172.308594 211.449219 163.410156 193.554688 161.113281 C 189.175781 160.554688 184.792969 159.945312 180.390625 159.644531 C 170.292969 158.957031 161.378906 162.402344 153.3125 168.148438 C 142.460938 175.882812 134.347656 186.097656 127.621094 197.476562 C 126.929688 198.648438 126.429688 199.996094 126.136719 201.328125 C 121.308594 223.558594 118.570312 245.90625 127.578125 267.65625 C 131.066406 276.078125 136.1875 283.953125 141.4375 291.46875 C 146.398438 298.570312 152.527344 304.847656 158.097656 311.519531 C 161.90625 316.085938 166.527344 319.269531 172.230469 321.175781 C 196.335938 329.257812 220.636719 331.230469 244.882812 322.480469 C 271.269531 312.960938 287.046875 294.707031 290.578125 266.078125 C 293.394531 243.195312 292.285156 220.578125 287.988281 198.132812 C 286.679688 191.28125 282.8125 184.878906 279.855469 178.394531 C 275.96875 169.875 271.226562 161.699219 267.925781 152.96875 C 263.414062 141.035156 254.167969 134.367188 243.738281 128.613281 C 241.410156 127.328125 238.96875 126.25 236.578125 125.078125 C 236.3125 125.4375 236.042969 125.792969 235.78125 126.152344 C 236.949219 127.257812 237.972656 128.605469 239.316406 129.429688 C 250.984375 136.617188 260.511719 145.667969 265.691406 158.714844 C 266.546875 160.871094 267.816406 162.933594 269.230469 164.78125 C 282.292969 181.863281 286.382812 201.867188 287.886719 222.617188 C 288.679688 233.621094 289.117188 244.675781 289.144531 255.710938 C 289.21875 284.058594 275.074219 303.628906 250.671875 316.585938 C 232.996094 325.976562 214.347656 328.246094 194.867188 323.894531 C 187.199219 322.179688 179.535156 320.4375 171.921875 318.484375 C 169.226562 317.792969 165.183594 316.84375 166.230469 313.355469 C 167.214844 310.082031 170.953125 311.867188 173.523438 312.441406 C 184.152344 314.820312 194.671875 317.804688 205.390625 319.59375 C 236.699219 324.808594 272.769531 302.417969 280.78125 273.101562 C 281.792969 269.402344 282.382812 265.527344 282.632812 261.695312 C 284.058594 239.824219 283.375 218.007812 277.675781 196.757812 C 275.722656 189.472656 271.511719 182.761719 268.105469 175.902344 C 265.898438 171.464844 262.710938 167.453125 260.953125 162.871094 C 255.859375 149.574219 246.671875 140.164062 234.558594 133.214844 C 218.507812 124 201.3125 117.527344 183.28125 113.921875 C 165.636719 110.394531 148.457031 114.621094 131.59375 119.867188 C 117.351562 124.300781 105.324219 132.46875 94.089844 142.003906 C 87.78125 147.355469 81.492188 152.746094 74.949219 157.808594 C 73.398438 159.007812 70.867188 158.9375 68.785156 159.445312 C 69.660156 157.292969 69.921875 154.421875 71.496094 153.097656 C 86.167969 140.753906 100.8125 128.273438 118.113281 119.648438 C 123.746094 116.839844 129.972656 115.210938 135.921875 113.039062 C 137.441406 112.484375 138.953125 111.917969 140.464844 111.355469 C 140.425781 110.988281 140.382812 110.617188 140.34375 110.246094 C 138.601562 110.246094 136.652344 109.730469 135.152344 110.332031 C 127.757812 113.300781 120.148438 115.976562 113.242188 119.867188 C 103.65625 125.273438 94.648438 131.699219 85.347656 137.621094 C 83.035156 139.089844 80.65625 140.609375 78.097656 141.472656 C 76.925781 141.867188 75.234375 140.730469 73.78125 140.289062 C 74.324219 138.90625 74.46875 136.804688 75.472656 136.242188 C 92.542969 126.6875 109.285156 116.386719 126.984375 108.164062 C 145.699219 99.476562 165.671875 101.210938 184.957031 106.949219 C 197.457031 110.667969 209.449219 116.097656 221.664062 120.773438 C 223.996094 121.664062 226.304688 122.601562 228.621094 123.519531 C 228.839844 123.136719 229.0625 122.757812 229.28125 122.375 C 228.105469 121.371094 227.082031 120.019531 225.726562 119.40625 C 200.9375 108.269531 175.722656 98.515625 147.824219 100.582031 C 131.902344 101.761719 117.355469 108.085938 103.222656 115.015625 C 96.742188 118.191406 90.96875 122.789062 84.765625 126.558594 C 83.585938 127.273438 81.875 127.117188 80.40625 127.363281 C 80.429688 125.742188 79.929688 123.839844 80.609375 122.566406 C 81.472656 120.960938 83.144531 119.648438 84.71875 118.582031 C 116.117188 97.324219 149.664062 87.492188 187.292969 99.382812 C 195.96875 102.125 204.699219 104.699219 213.441406 107.230469 C 230.097656 112.046875 245.011719 120.234375 258.632812 130.804688 C 261.855469 133.300781 265.117188 136.25 267.144531 139.703125 C 283.300781 167.175781 296.515625 195.953125 303.195312 227.289062 C 305.660156 238.839844 308.011719 250.589844 306.328125 262.582031 C 305.886719 265.71875 305.476562 268.925781 304.433594 271.882812 C 303.964844 273.210938 301.976562 274 300.679688 275.035156 C 300.132812 273.667969 299.082031 272.28125 299.121094 270.933594 C 299.433594 261.304688 300.0625 251.683594 300.359375 242.054688 C 300.4375 239.429688 299.734375 236.785156 299.390625 234.148438 C 298.976562 234.164062 298.558594 234.183594 298.140625 234.199219 C 298.050781 235.855469 297.96875 237.511719 297.871094 239.164062 C 297.222656 250.597656 297.039062 262.074219 295.808594 273.445312 C 293.984375 290.324219 283.96875 302.785156 272.160156 313.992188 C 265.28125 320.519531 258.308594 326.957031 251.191406 333.226562 C 248.878906 335.265625 246.152344 337.042969 243.316406 338.242188 C 226.414062 345.410156 208.9375 344.621094 191.203125 342.140625 C 146.3125 335.871094 118.855469 309.550781 104.609375 267.757812 C 100.40625 255.4375 100.824219 242.929688 102.359375 230.136719 C 104.292969 213.960938 107.101562 198.160156 115.761719 184.085938 C 129.667969 161.484375 148.933594 146.363281 176.136719 144.296875 C 184.171875 143.683594 192.441406 146.140625 200.589844 147.269531 C 202.574219 147.546875 204.507812 148.140625 206.46875 148.589844 C 206.640625 148.199219 206.816406 147.808594 206.992188 147.417969 C 205.171875 146.4375 203.433594 145.242188 201.515625 144.511719 C 179.164062 135.972656 158.234375 138.835938 138.695312 152.511719 C 136.660156 153.933594 134.71875 155.507812 132.617188 156.820312 C 122.765625 162.964844 115.71875 171.050781 110.917969 181.980469 C 101.820312 202.699219 95.792969 223.980469 95.96875 246.621094 C 96.171875 272.675781 107.960938 294.367188 123.535156 314.269531 C 126.191406 317.664062 129.992188 320.277344 133.585938 322.792969 C 140.359375 327.539062 147.246094 332.152344 154.328125 336.417969 C 157.6875 338.441406 161.476562 340.144531 165.292969 340.9375 C 178.785156 343.746094 192.328125 346.421875 205.953125 348.457031 C 211.148438 349.230469 216.621094 348.164062 221.972656 347.90625 C 222.925781 347.859375 224.011719 347.332031 224.800781 347.636719 C 226.199219 348.179688 227.414062 349.191406 228.703125 350.003906 C 227.710938 351.011719 226.902344 352.496094 225.703125 352.949219 C 218.289062 355.738281 210.605469 356.097656 202.871094 354.664062 C 190.125 352.304688 177.367188 349.972656 164.695312 347.261719 C 160.863281 346.445312 157.03125 344.851562 153.65625 342.84375 C 145.960938 338.261719 138.578125 333.152344 131.007812 328.351562 C 122.679688 323.070312 115.9375 316.222656 111.105469 307.671875 C 102.152344 291.839844 92.773438 276.171875 89.75 257.761719 C 87.691406 245.230469 89.949219 233.015625 92.042969 220.777344 C 94.050781 209.042969 97.265625 197.691406 103 187.160156 C 103.488281 186.261719 103.625 185.167969 103.925781 184.160156 C 103.523438 183.953125 103.125 183.742188 102.726562 183.53125 C 99.917969 188.550781 96.605469 193.355469 94.417969 198.632812 C 91.316406 206.105469 89.054688 213.925781 86.417969 221.59375 C 84.449219 227.328125 82.613281 233.109375 80.445312 238.769531 C 77.9375 245.3125 77.957031 251.507812 81.085938 257.949219 C 86.742188 269.597656 92.027344 281.425781 97.445312 293.195312 C 108.609375 317.449219 127.089844 334.648438 149.832031 347.828125 C 151.503906 348.792969 152.578125 350.789062 153.929688 352.308594 C 151.796875 352.519531 149.421875 353.417969 147.578125 352.777344 C 144.511719 351.710938 141.519531 349.996094 138.972656 347.957031 C 130.890625 341.492188 122.925781 334.875 115.117188 328.089844 C 101.382812 316.164062 93.488281 300.457031 86.769531 283.957031 C 83.96875 277.074219 80.777344 270.320312 77.320312 263.742188 C 72.578125 254.71875 71.183594 245.753906 74.921875 235.910156 C 80.6875 220.722656 85.855469 205.3125 91.433594 190.054688 C 92.316406 187.640625 93.910156 185.449219 95.363281 183.285156 C 101.898438 173.546875 110.449219 165.835938 120 159.175781 C 128.804688 153.039062 137.054688 145.671875 146.636719 141.164062 C 172.496094 128.992188 198.027344 132.515625 219.832031 149.890625 C 241.878906 167.457031 255.429688 191.144531 259.132812 219.800781 C 260.792969 232.628906 261.304688 245.367188 258.992188 258.128906 C 257.519531 266.21875 254.058594 273.308594 248.132812 279.089844 C 247.152344 280.046875 246.089844 281.121094 244.859375 281.558594 C 243.582031 282.015625 242.046875 281.761719 240.628906 281.816406 C 240.75 280.433594 240.59375 278.945312 241.078125 277.707031 C 241.558594 276.472656 242.527344 275.320312 243.546875 274.425781 C 252.132812 266.84375 254.453125 256.6875 254.632812 246.003906 C 254.914062 229.613281 253.078125 213.335938 246.71875 198.140625 C 242.761719 188.691406 237.191406 179.890625 232.007812 170.996094 C 230.53125 168.464844 228.148438 166.207031 225.695312 164.535156 C 189.761719 140.035156 152.886719 146.648438 127.285156 177.699219 C 115.023438 192.574219 109.320312 210.34375 108.359375 229.640625 C 108.023438 236.382812 107.078125 243.09375 106.644531 249.832031 C 106.527344 251.6875 107.261719 253.597656 107.605469 255.484375 C 108.035156 255.410156 108.460938 255.332031 108.886719 255.253906 Z M 187.910156 261.605469 C 189.273438 268.300781 193.589844 272.054688 198.035156 271.261719 C 199.179688 271.058594 200.476562 270.035156 201.035156 269.019531 C 201.285156 268.570312 200.09375 266.765625 199.195312 266.335938 C 195.820312 264.714844 192.289062 263.402344 187.910156 261.605469 Z M 164.066406 249.835938 C 164.59375 249.53125 165.121094 249.234375 165.644531 248.933594 C 163.949219 246.082031 162.257812 243.230469 160.5625 240.382812 C 160.085938 240.660156 159.613281 240.933594 159.136719 241.210938 C 160.78125 244.085938 162.425781 246.960938 164.066406 249.835938 Z M 164.066406 249.835938 " fill-opacity="1" fill-rule="evenodd"/><g clip-path="url(#c9faa80cfb)"><path fill="#20b2ab" d="M 208.890625 263.070312 C 207.988281 259.359375 210.085938 258.261719 212.300781 257.28125 C 215.695312 255.773438 219.148438 254.382812 222.496094 252.773438 C 223.75 252.171875 224.769531 251.085938 225.894531 250.222656 C 225.742188 249.890625 225.585938 249.5625 225.4375 249.234375 C 224.519531 249.453125 223.546875 249.542969 222.695312 249.910156 C 219.273438 251.375 215.921875 252.996094 212.488281 254.433594 C 203.15625 258.332031 195.148438 256.078125 188.53125 248.769531 C 177.957031 237.09375 174.445312 223.066406 176 207.742188 C 176.738281 200.472656 179.789062 193.941406 185.308594 188.84375 C 189.371094 185.089844 193.984375 184.445312 198.019531 187.4375 C 199.195312 188.308594 199.5625 190.265625 200.300781 191.722656 C 198.972656 192.085938 197.621094 192.839844 196.332031 192.734375 C 190.757812 192.292969 187.976562 193.640625 185.246094 198.523438 C 177.417969 212.527344 182.5625 237.058594 195.316406 246.890625 C 201.140625 251.386719 207.144531 252.308594 213.792969 248.707031 C 217.898438 246.484375 222.449219 245.003906 226.347656 242.492188 C 228.382812 241.179688 230.449219 238.507812 230.796875 236.195312 C 233.980469 214.820312 228.054688 195.933594 213.414062 180.214844 C 200.542969 166.398438 172.183594 164.570312 158.058594 176.84375 C 142.898438 190.015625 133.734375 206.332031 132.238281 227.191406 C 130.75 247.914062 139.816406 264.582031 149.351562 281.402344 C 153.6875 289.058594 159.515625 295.484375 166.832031 300.464844 C 168.128906 301.347656 169.523438 302.085938 170.871094 302.890625 C 171.191406 302.503906 171.511719 302.117188 171.835938 301.726562 C 169.636719 299.78125 167.34375 297.925781 165.253906 295.867188 C 149.625 280.507812 140.0625 261.921875 138.152344 240.152344 C 136.941406 226.371094 139.121094 212.585938 144.355469 199.574219 C 145.972656 195.550781 148.105469 191.691406 150.449219 188.042969 C 151.15625 186.941406 153.363281 186.808594 154.882812 186.234375 C 155.160156 187.875 155.996094 189.675781 155.59375 191.125 C 154.835938 193.859375 153.609375 196.539062 152.144531 198.984375 C 144.203125 212.21875 144.734375 226.210938 147.828125 240.613281 C 148.601562 244.226562 147.875 248.136719 148.269531 251.867188 C 148.675781 255.65625 149.078125 259.597656 150.421875 263.117188 C 155.691406 276.894531 164.125 288.527344 175.253906 298.234375 C 181.644531 303.804688 188.871094 307.34375 197.460938 306.703125 C 205.402344 306.105469 213.449219 305.535156 221.179688 303.769531 C 242.433594 298.917969 253.644531 283.824219 259.972656 264.109375 C 266.828125 242.765625 265.222656 221.359375 258.707031 200.539062 C 249.167969 170.050781 230.234375 147.363281 199.558594 135.960938 C 179.488281 128.5 159.753906 130.355469 140.375 138.90625 C 131.6875 142.742188 122.949219 146.507812 114.082031 149.90625 C 105.777344 153.089844 98.492188 157.65625 92.726562 164.375 C 83.421875 175.230469 75.730469 187.171875 70.265625 200.40625 C 68.492188 204.699219 67.789062 209.421875 66.292969 213.84375 C 65.863281 215.109375 64.359375 216.007812 63.347656 217.074219 C 62.703125 215.828125 61.390625 214.503906 61.53125 213.355469 C 62.027344 209.273438 62.417969 205.011719 63.921875 201.253906 C 70.597656 184.59375 79.691406 169.300781 92.308594 156.460938 C 96.367188 152.332031 101.546875 148.910156 106.8125 146.433594 C 117.773438 141.273438 129.070312 136.804688 140.339844 132.324219 C 164.136719 122.863281 188.058594 121.734375 211.257812 133.691406 C 227.945312 142.292969 241.140625 155.105469 251.777344 170.714844 C 266.199219 191.875 269.277344 215.808594 269.925781 240.457031 C 270.1875 250.484375 268.808594 260.195312 265.167969 269.636719 C 255.121094 295.671875 236.175781 309.613281 208.546875 312.609375 C 197.828125 313.769531 187.382812 313.578125 176.945312 310.90625 C 166.730469 308.289062 158.132812 303.214844 151.480469 294.925781 C 141.167969 282.082031 132.839844 267.898438 128.539062 252.152344 C 123.675781 234.316406 125.574219 216.355469 132.988281 199.144531 C 137.210938 189.339844 143.261719 181.054688 151.390625 174.101562 C 162.839844 164.308594 175.75 160.058594 190.550781 163.546875 C 207.25 167.488281 222.644531 173.976562 229.632812 191.320312 C 235.585938 206.109375 239.945312 221.460938 236.742188 237.683594 C 234.328125 249.898438 227.738281 258.925781 215.171875 262.433594 C 213.164062 262.996094 210.96875 262.878906 208.890625 263.070312 Z M 208.890625 263.070312 " fill-opacity="1" fill-rule="evenodd"/></g><path fill="#20b2ab" d="M 272.65625 85.4375 C 269.027344 81.285156 265.714844 76.789062 261.707031 73.039062 C 250.558594 62.609375 236.929688 56.152344 223.125 50.140625 C 209.605469 44.253906 196.003906 38.539062 182.351562 32.972656 C 178.171875 31.269531 173.6875 30.3125 169.339844 29.019531 C 167.628906 28.507812 165.726562 28.308594 164.257812 27.402344 C 163.179688 26.730469 162.667969 25.148438 161.90625 23.96875 C 163.132812 23.320312 164.496094 21.945312 165.558594 22.148438 C 170.410156 23.082031 175.417969 23.871094 179.921875 25.769531 C 200.367188 34.378906 220.683594 43.296875 241.003906 52.199219 C 252.460938 57.21875 262.03125 64.804688 269.945312 74.4375 C 273.796875 79.121094 277.617188 83.871094 280.976562 88.910156 C 286.789062 97.625 292.230469 106.582031 297.808594 115.449219 C 298.316406 116.261719 299.078125 117.191406 299.027344 118.023438 C 298.925781 119.738281 298.351562 121.425781 297.972656 123.121094 C 296.613281 122.273438 294.558594 121.746094 294.003906 120.53125 C 285.011719 100.910156 268.847656 89.628906 249.554688 81.980469 C 222.277344 71.164062 195.039062 60.230469 167.613281 49.796875 C 157.898438 46.097656 147.597656 44.679688 137.078125 46.3125 C 136 46.480469 134.746094 45.492188 133.570312 45.042969 C 134.121094 43.863281 134.371094 42.167969 135.292969 41.625 C 136.867188 40.699219 138.84375 40.179688 140.691406 40.046875 C 153.078125 39.136719 164.925781 42.070312 176.25 46.46875 C 198.078125 54.945312 219.644531 64.085938 241.324219 72.945312 C 243.363281 73.78125 245.421875 74.589844 247.484375 75.363281 C 247.828125 75.492188 248.261719 75.382812 249.667969 75.382812 C 247.464844 73.847656 246.089844 72.542969 244.457031 71.8125 C 220.957031 61.261719 197.53125 50.542969 173.847656 40.421875 C 165.167969 36.710938 155.699219 35.917969 146.183594 36.816406 C 144.945312 36.933594 143.609375 36.007812 142.320312 35.570312 C 143.128906 34.292969 143.800781 32.039062 144.777344 31.898438 C 150.023438 31.136719 155.773438 29.402344 160.5625 30.769531 C 174.15625 34.652344 187.632812 39.246094 200.664062 44.734375 C 215.25 50.882812 229.292969 58.324219 243.574219 65.199219 C 252.914062 69.695312 260.550781 76.4375 267.882812 83.59375 C 269 84.683594 270.277344 85.601562 271.476562 86.597656 C 271.871094 86.210938 272.265625 85.828125 272.65625 85.4375 Z M 272.65625 85.4375 " fill-opacity="1" fill-rule="evenodd"/><path fill="#20b2ab" d="M 200.851562 92.902344 C 199.960938 92.402344 199.105469 91.816406 198.171875 91.414062 C 171.652344 79.953125 144.273438 78.445312 116.300781 84.542969 C 112.84375 85.296875 109.5625 86.875 106.222656 88.121094 C 103.109375 89.285156 98.65625 92.21875 97.15625 88.472656 C 95.695312 84.824219 100.820312 83.128906 104.007812 82.421875 C 115.144531 79.949219 126.332031 77.609375 137.589844 75.785156 C 157.972656 72.484375 177.378906 76.300781 196.039062 84.722656 C 199.425781 86.25 203.109375 87.164062 206.40625 88.847656 C 212.753906 92.085938 219.058594 95.445312 225.128906 99.160156 C 235.820312 105.707031 246.265625 112.648438 256.914062 119.265625 C 273.007812 129.265625 284.09375 143.082031 290.210938 161.101562 C 295.390625 176.371094 301.417969 191.351562 306.550781 206.632812 C 308.859375 213.515625 310.164062 220.773438 311.402344 227.949219 C 311.898438 230.832031 310.984375 233.960938 310.714844 236.980469 C 310.050781 237.15625 309.386719 237.328125 308.722656 237.503906 C 307.71875 235.851562 305.917969 234.230469 305.839844 232.535156 C 305.035156 215.324219 297.957031 199.964844 292.101562 184.222656 C 289.652344 177.636719 287.679688 170.882812 285.324219 164.265625 C 280.339844 150.261719 273.183594 137.621094 260.917969 128.707031 C 247.523438 118.976562 233.859375 109.425781 218.175781 103.8125 C 207.449219 99.972656 196.066406 98.019531 185.121094 94.730469 C 160.335938 87.277344 135.882812 88.410156 111.5 96.554688 C 104.257812 98.976562 98.097656 102.78125 92.796875 108.265625 C 91.660156 109.4375 89.375 109.503906 87.617188 110.082031 C 87.878906 108.210938 87.585938 105.996094 88.496094 104.53125 C 92.28125 98.441406 98.101562 94.703125 104.636719 92.179688 C 123.78125 84.777344 143.722656 82.230469 163.980469 84.613281 C 174.136719 85.808594 184.027344 89.308594 194.027344 91.804688 C 196.222656 92.351562 198.382812 93.046875 200.558594 93.679688 C 200.660156 93.421875 200.753906 93.160156 200.851562 92.902344 Z M 200.851562 92.902344 " fill-opacity="1" fill-rule="evenodd"/><path fill="#20b2ab" d="M 275.5625 239.953125 C 273.976562 228.640625 273.027344 217.191406 270.589844 206.0625 C 268.929688 198.496094 265.375 191.3125 262.351562 184.089844 C 244.925781 142.460938 214.835938 124.808594 179.050781 123.160156 C 140.800781 121.402344 108.210938 134.503906 83.117188 164.277344 C 79.117188 169.019531 75.21875 173.863281 70.96875 178.375 C 69.722656 179.695312 66.71875 181.199219 65.75 180.609375 C 62.941406 178.894531 64.871094 176.265625 66.253906 174.609375 C 80.671875 157.34375 94.882812 140.070312 116.195312 130.273438 C 143.992188 117.496094 172.324219 112.992188 202.289062 120.785156 C 230.402344 128.101562 249.320312 146.667969 263.082031 170.960938 C 281.699219 203.84375 285.0625 238.878906 275.550781 275.28125 C 275.175781 276.726562 274.679688 278.238281 273.863281 279.460938 C 266.144531 291 257.308594 301.652344 245.976562 309.734375 C 236.304688 316.632812 224.632812 317.503906 213.171875 318.246094 C 211.910156 318.328125 210.554688 316.910156 209.242188 316.179688 C 210.4375 315.445312 211.542969 314.371094 212.847656 314.019531 C 220.921875 311.828125 229.050781 309.828125 237.136719 307.679688 C 238.445312 307.332031 239.804688 306.75 240.859375 305.921875 C 257.640625 292.679688 272.335938 278.054688 273.929688 254.957031 C 274.269531 250.003906 274.539062 245.042969 274.839844 240.089844 C 275.082031 240.042969 275.320312 240 275.5625 239.953125 Z M 275.5625 239.953125 " fill-opacity="1" fill-rule="evenodd"/><path fill="#20b2ab" d="M 164.40625 64.789062 C 155.878906 64.226562 147.351562 63.675781 138.824219 63.101562 C 130.207031 62.519531 121.878906 63.78125 114.058594 67.851562 C 112.933594 63.113281 114.476562 60.292969 119.003906 59.390625 C 123.976562 58.398438 129.136719 57.636719 134.175781 57.835938 C 144.496094 58.242188 154.867188 58.839844 165.050781 60.414062 C 170.15625 61.203125 174.941406 64.214844 179.792969 66.394531 C 182.546875 67.628906 185 69.652344 187.835938 70.570312 C 214.046875 79.058594 237.957031 92.089844 260.613281 107.511719 C 281.351562 121.628906 297.070312 140.011719 305.199219 163.972656 C 308.5 173.699219 310.1875 183.992188 312.183594 194.109375 C 312.574219 196.09375 311.203125 200.25 310.335938 200.339844 C 306.667969 200.714844 306.222656 197.273438 306.003906 194.589844 C 304.925781 181.382812 301.589844 168.71875 296.011719 156.804688 C 287.519531 138.664062 274.527344 124.234375 257.933594 112.996094 C 242.378906 102.460938 226.140625 93.191406 209.148438 85.136719 C 178.804688 70.75 147.589844 67.960938 115.269531 76.925781 C 112.882812 77.589844 110.457031 78.230469 108.007812 78.535156 C 107.011719 78.660156 105.210938 78.070312 105.011719 77.425781 C 104.722656 76.503906 105.257812 74.886719 106.015625 74.1875 C 107.066406 73.21875 108.601562 72.699219 110.007812 72.21875 C 124.847656 67.132812 140.113281 65.652344 155.699219 66.855469 C 157.753906 67.015625 159.835938 66.910156 161.902344 66.855469 C 162.707031 66.832031 163.503906 66.613281 164.304688 66.484375 C 164.339844 65.917969 164.375 65.351562 164.40625 64.789062 Z M 164.40625 64.789062 " fill-opacity="1" fill-rule="evenodd"/><path fill="#20b2ab" d="M 139.949219 47.375 C 149.078125 49.285156 158.558594 50.203125 167.265625 53.300781 C 190.09375 61.414062 212.824219 69.914062 235.144531 79.320312 C 257.925781 88.917969 276.289062 104.898438 292.246094 123.484375 C 296.894531 128.902344 299.957031 135.726562 303.359375 142.113281 C 304.042969 143.394531 302.976562 145.609375 302.714844 147.394531 C 301.152344 146.285156 298.894531 145.523438 298.132812 144.007812 C 284.820312 117.769531 262.8125 100.753906 237.644531 87.3125 C 228.445312 82.398438 218.601562 78.644531 208.902344 74.738281 C 195.367188 69.285156 181.8125 63.839844 168.042969 59.042969 C 155.6875 54.742188 142.757812 53.542969 129.679688 54.300781 C 128.992188 54.339844 128.230469 54.566406 127.628906 54.347656 C 126.691406 54.011719 125.867188 53.371094 124.992188 52.859375 C 125.570312 52 126.007812 50.5625 126.753906 50.382812 C 130.203125 49.550781 133.738281 49.042969 137.25 48.480469 C 138.058594 48.351562 138.902344 48.460938 139.730469 48.460938 C 139.800781 48.097656 139.875 47.738281 139.949219 47.375 Z M 139.949219 47.375 " fill-opacity="1" fill-rule="evenodd"/><path fill="#20b2ab" d="M 120.988281 152.96875 C 119.40625 155.085938 118.589844 156.753906 117.285156 157.816406 C 111.316406 162.6875 104.878906 167.039062 99.265625 172.277344 C 95.300781 175.976562 91.65625 180.410156 89.136719 185.183594 C 80.242188 202.058594 72.988281 219.613281 70.582031 238.753906 C 69.328125 248.75 70.085938 258.574219 74.390625 267.898438 C 79.460938 278.902344 84.382812 289.972656 89.621094 300.894531 C 91.394531 304.597656 93.992188 307.894531 96.050781 311.472656 C 96.574219 312.375 96.464844 313.648438 96.648438 314.75 C 95.378906 314.835938 93.839844 315.410156 92.890625 314.894531 C 91.378906 314.074219 89.882812 312.746094 89.035156 311.253906 C 85.386719 304.8125 81.894531 298.277344 78.511719 291.683594 C 76.753906 288.261719 75.703125 284.445312 73.722656 281.167969 C 62.117188 261.941406 61.550781 241.457031 68.277344 220.929688 C 72.925781 206.742188 78.957031 192.839844 85.921875 179.625 C 92.363281 167.414062 103.621094 159.445312 115.855469 153.164062 C 116.457031 152.855469 117.15625 152.6875 117.828125 152.605469 C 118.34375 152.542969 118.890625 152.710938 120.988281 152.96875 Z M 120.988281 152.96875 " fill-opacity="1" fill-rule="evenodd"/><path fill="#20b2ab" d="M 211.882812 223.632812 C 213.421875 217.707031 210.636719 212.65625 208.230469 207.628906 C 206.816406 204.679688 204.734375 202.058594 203.042969 199.230469 C 201.953125 197.402344 200.863281 195.046875 203.34375 193.925781 C 204.480469 193.410156 207.21875 194.492188 208.097656 195.683594 C 214.597656 204.503906 219.074219 214.144531 218.4375 225.460938 C 218.316406 227.632812 217.957031 229.882812 217.222656 231.917969 C 215.148438 237.628906 209.246094 239.6875 204.585938 235.863281 C 201.136719 233.039062 198.148438 229.429688 195.699219 225.683594 C 191.675781 219.539062 188.789062 212.796875 188.40625 205.285156 C 188.148438 200.175781 189.914062 197.335938 193.554688 196.625 C 197.132812 195.929688 200.171875 197.855469 201.882812 202.332031 C 203.75 207.210938 205.238281 212.238281 207.101562 217.121094 C 208.039062 219.585938 209.441406 221.871094 210.632812 224.238281 C 211.050781 224.035156 211.464844 223.835938 211.882812 223.632812 Z M 209.464844 232.484375 C 209.835938 232.113281 210.210938 231.742188 210.582031 231.375 C 210.019531 230.542969 209.601562 229.546875 208.871094 228.90625 C 203.21875 223.976562 200.039062 217.796875 199.117188 210.382812 C 198.949219 209.03125 198.703125 207.589844 198.066406 206.417969 C 197.296875 204.992188 196.078125 203.808594 195.050781 202.519531 C 194.617188 204.078125 193.605469 205.734375 193.847656 207.183594 C 195.105469 214.773438 198.007812 221.714844 203.34375 227.386719 C 205.148438 229.308594 207.410156 230.796875 209.464844 232.484375 Z M 209.464844 232.484375 " fill-opacity="1" fill-rule="evenodd"/><g clip-path="url(#9c2c3a451a)"><path fill="#20b2ab" d="M 187.449219 17.863281 C 192.851562 19.667969 197.863281 20.863281 202.449219 22.96875 C 217.585938 29.910156 232.628906 37.074219 247.601562 44.371094 C 256.648438 48.78125 264.277344 55.039062 270.339844 63.15625 C 271.734375 65.027344 273.488281 66.621094 275.019531 68.390625 C 276.730469 70.367188 278.671875 72.230469 279.945312 74.464844 C 280.75 75.882812 280.515625 77.886719 280.742188 79.628906 C 279.210938 78.960938 277.324219 78.648438 276.207031 77.554688 C 272.183594 73.597656 268.199219 69.554688 264.597656 65.214844 C 258.757812 58.167969 251.714844 52.777344 243.46875 48.992188 C 226.835938 41.359375 210.152344 33.851562 193.453125 26.371094 C 191.335938 25.425781 188.878906 25.207031 186.792969 24.203125 C 185.550781 23.605469 184.722656 22.140625 183.710938 21.066406 C 184.9375 20.015625 186.160156 18.964844 187.449219 17.863281 Z M 187.449219 17.863281 " fill-opacity="1" fill-rule="evenodd"/></g><path fill="#20b2ab" d="M 154.710938 251.863281 C 155.589844 253.136719 156.644531 254.328125 157.320312 255.707031 C 159.867188 260.90625 162.257812 266.179688 164.765625 271.402344 C 177.117188 297.121094 210.308594 304.46875 232.476562 286.398438 C 233.324219 285.707031 234.175781 284.660156 235.113281 284.542969 C 236.324219 284.394531 237.914062 284.691406 238.78125 285.441406 C 239.261719 285.855469 238.984375 287.921875 238.355469 288.671875 C 236.875 290.445312 235.175781 292.179688 233.230469 293.410156 C 217.566406 303.316406 201.351562 305.371094 184.082031 297.371094 C 167.007812 289.464844 157.976562 275.523438 153.253906 258.113281 C 152.753906 256.273438 153.183594 254.179688 153.183594 252.199219 C 153.695312 252.085938 154.203125 251.972656 154.710938 251.863281 Z M 154.710938 251.863281 " fill-opacity="1" fill-rule="evenodd"/><path fill="#20b2ab" d="M 221.652344 19.175781 C 225.675781 20.988281 230.011719 22.394531 233.738281 24.765625 C 238.015625 27.480469 241.847656 30.9375 245.652344 34.324219 C 246.65625 35.21875 246.835938 37.039062 247.390625 38.433594 C 245.769531 38.4375 243.875 38.992188 242.574219 38.347656 C 234.558594 34.382812 226.628906 30.234375 218.789062 25.929688 C 217.324219 25.128906 216.402344 23.351562 215.222656 22.027344 C 217.128906 21.179688 219.03125 20.339844 221.652344 19.175781 Z M 221.652344 19.175781 " fill-opacity="1" fill-rule="evenodd"/><path fill="#20b2ab" d="M 280.523438 315.285156 C 279.957031 316.871094 279.839844 318.664062 278.882812 319.640625 C 274.5 324.132812 270.019531 328.554688 265.230469 332.601562 C 264.222656 333.453125 261.773438 332.601562 259.984375 332.535156 C 260.421875 330.871094 260.332031 328.695312 261.382812 327.636719 C 266.214844 322.746094 271.328125 318.128906 276.445312 313.535156 C 277.117188 312.933594 278.507812 312.644531 279.355469 312.898438 C 279.929688 313.074219 280.148438 314.445312 280.523438 315.285156 Z M 280.523438 315.285156 " fill-opacity="1" fill-rule="evenodd"/><path fill="#20b2ab" d="M 85.800781 239.691406 C 86.222656 245.410156 86.648438 251.128906 87.074219 256.851562 C 86.519531 257.121094 85.964844 257.390625 85.410156 257.664062 C 84.230469 256.152344 82.621094 254.808594 81.957031 253.097656 C 80.109375 248.316406 81.25 242.886719 85.800781 239.691406 Z M 85.800781 239.691406 " fill-opacity="1" fill-rule="evenodd"/><path fill="#20b2ab" d="M 187.910156 261.605469 C 192.285156 263.402344 195.820312 264.714844 199.199219 266.335938 C 200.09375 266.765625 201.285156 268.570312 201.035156 269.019531 C 200.476562 270.035156 199.179688 271.058594 198.039062 271.261719 C 193.589844 272.054688 189.273438 268.300781 187.910156 261.605469 Z M 187.910156 261.605469 " fill-opacity="1" fill-rule="evenodd"/><path fill="#20b2ab" d="M 164.066406 249.835938 C 162.425781 246.960938 160.78125 244.085938 159.136719 241.210938 C 159.613281 240.933594 160.085938 240.65625 160.5625 240.382812 C 162.257812 243.230469 163.949219 246.082031 165.644531 248.933594 C 165.117188 249.234375 164.59375 249.53125 164.066406 249.835938 Z M 164.066406 249.835938 " fill-opacity="1" fill-rule="evenodd"/><path fill="#20b2ab" d="M 209.464844 232.484375 C 207.410156 230.796875 205.148438 229.308594 203.34375 227.390625 C 198.007812 221.714844 195.105469 214.773438 193.847656 207.183594 C 193.605469 205.734375 194.617188 204.082031 195.050781 202.519531 C 196.074219 203.808594 197.296875 204.992188 198.066406 206.417969 C 198.703125 207.589844 198.949219 209.03125 199.117188 210.382812 C 200.039062 217.796875 203.21875 223.976562 208.871094 228.90625 C 209.601562 229.546875 210.019531 230.542969 210.582031 231.375 C 210.210938 231.742188 209.835938 232.113281 209.464844 232.484375 Z M 209.464844 232.484375 " fill-opacity="1" fill-rule="evenodd"/></svg>