<svg xmlns="http://www.w3.org/2000/svg" xmlns:xlink="http://www.w3.org/1999/xlink" width="500" zoomAndPan="magnify" viewBox="0 0 375 374.999991" height="500" preserveAspectRatio="xMidYMid meet" version="1.0"><defs><clipPath id="f5d5c1d040"><path d="M 58.195312 68 L 316 68 L 316 185 L 58.195312 185 Z M 58.195312 68 " clip-rule="nonzero"/></clipPath><clipPath id="f4d9e5e277"><path d="M 58.195312 169 L 100 169 L 100 211 L 58.195312 211 Z M 58.195312 169 " clip-rule="nonzero"/></clipPath><clipPath id="d3902b1f75"><path d="M 310 188 L 316.945312 188 L 316.945312 197 L 310 197 Z M 310 188 " clip-rule="nonzero"/></clipPath></defs><path fill="#20b2ab" d="M 182.402344 314.414062 C 195.765625 310.648438 208.683594 305.949219 219.796875 297.453125 C 225.597656 293.019531 231.117188 288.128906 235.683594 282.390625 C 242.949219 273.265625 247.917969 263.320312 246.765625 251.050781 C 245.304688 235.488281 245.40625 219.585938 238.730469 205.0625 C 228.191406 182.136719 214.117188 162.0625 189.980469 151.570312 C 179.738281 147.117188 170.210938 148.308594 161.644531 156.71875 C 149.296875 168.84375 144.660156 183.03125 145.277344 200.265625 C 146.074219 222.390625 144.78125 232.695312 118.835938 242.933594 C 103.097656 249.140625 86.117188 250.613281 70.113281 255.804688 C 68.789062 256.230469 67.554688 256.03125 66.929688 254.511719 C 66.023438 252.300781 68.074219 251.738281 69.171875 251.359375 C 75.835938 249.0625 82.507812 246.695312 89.332031 244.96875 C 99.308594 242.445312 109.136719 239.507812 118.511719 235.3125 C 129.265625 230.496094 139.164062 222.945312 136.964844 205.601562 C 134.15625 183.449219 142.339844 165.171875 156.835938 149.21875 C 165.441406 139.75 176.230469 136.9375 188.480469 140.546875 C 202.109375 144.558594 213.015625 152.730469 222.003906 163.53125 C 236.183594 180.566406 248.265625 199.054688 250.953125 221.433594 C 252.648438 235.53125 255.609375 249.894531 253.171875 264.203125 C 251.710938 272.773438 246.914062 280.054688 241.398438 286.796875 C 228.171875 302.976562 210.886719 312.824219 191.425781 319.460938 C 182.3125 322.570312 173.242188 325.832031 164.273438 329.324219 C 158.851562 331.433594 153.332031 331.15625 147.761719 331.070312 C 146.195312 331.046875 144.355469 330.824219 144.148438 329.140625 C 143.886719 327.015625 145.703125 326.535156 147.566406 326.179688 C 152.1875 325.304688 156.96875 324.730469 161.316406 323.066406 C 166.914062 320.925781 173.015625 320.539062 176.980469 313.84375 C 179.980469 308.765625 186.21875 305.09375 191.839844 301.808594 C 207.003906 292.9375 220.257812 281.855469 230.917969 267.773438 C 233.351562 264.5625 234.699219 260.859375 234.886719 257.074219 C 235.761719 239.632812 235.785156 222.101562 227.6875 206.058594 C 219.050781 188.949219 205.953125 175.605469 188.953125 166.8125 C 174.957031 159.570312 161.824219 168.363281 158.859375 185.980469 C 157.75 192.5625 157.785156 199.03125 158.511719 205.773438 C 160.335938 222.65625 154.738281 236.894531 139.789062 246.015625 C 124.640625 255.261719 110.109375 265.730469 93.191406 271.753906 C 88.386719 273.46875 83.328125 274.449219 78.398438 275.824219 C 76.296875 276.40625 74.347656 276.324219 73.796875 273.910156 C 73.230469 271.429688 75.753906 271.34375 77.140625 270.84375 C 85.082031 267.980469 92.523438 263.300781 101.457031 263.917969 C 104.105469 264.101562 103.3125 261.902344 103.335938 260.753906 C 103.382812 258.375 101.746094 258.300781 99.753906 258.546875 C 91.65625 259.542969 84.277344 262.945312 76.574219 265.25 C 75.765625 265.492188 75 266.035156 74.1875 266.105469 C 72.605469 266.238281 70.566406 267.257812 69.800781 264.878906 C 69.007812 262.410156 70.523438 261.890625 72.683594 261.078125 C 80.945312 257.949219 89.558594 256.476562 98.164062 254.835938 C 112.257812 252.148438 125.230469 246.746094 137.105469 238.65625 C 148.011719 231.230469 151.613281 220.578125 150.9375 207.984375 C 150.671875 203.085938 149.953125 198.191406 149.988281 193.304688 C 150.089844 178.664062 157.628906 167.652344 168.148438 158.484375 C 171.40625 155.640625 175.867188 154.992188 180.378906 155.726562 C 189.890625 157.273438 198.535156 160.652344 206.058594 166.828125 C 236.242188 191.59375 245.992188 224.011719 241.546875 261.679688 C 240.957031 266.664062 238.003906 270.808594 235.15625 274.890625 C 224.179688 290.636719 208.382812 299.960938 191.453125 307.75 C 187.960938 309.351562 185.144531 311.746094 182.402344 314.414062 Z M 182.402344 314.414062 " fill-opacity="1" fill-rule="nonzero"/><path fill="#20b2ab" d="M 74.390625 284.828125 C 76.980469 281.5 80.609375 280.722656 83.554688 279.9375 C 105.496094 274.089844 123.8125 261.355469 142.753906 249.703125 C 155.925781 241.601562 161.246094 229.296875 162.425781 214.742188 C 162.960938 208.144531 162.472656 201.480469 162.078125 194.820312 C 161.558594 186.109375 164.539062 177.886719 171.496094 171.867188 C 176.132812 167.859375 181.492188 167.871094 186.488281 170.851562 C 208.253906 183.820312 227.191406 199.3125 230.738281 226.574219 C 231.828125 234.957031 233.460938 243.523438 231.21875 252.089844 C 229.679688 257.988281 226.753906 262.90625 223.125 267.902344 C 208.875 287.523438 188.773438 300.023438 169.46875 313.546875 C 162.40625 318.492188 154.535156 320.703125 145.855469 320.796875 C 131.316406 320.953125 116.785156 321.558594 102.253906 321.945312 C 101.011719 321.976562 99.765625 321.78125 98.179688 321.664062 C 98.902344 317.742188 101.847656 318.335938 104.171875 318.140625 C 112.972656 317.402344 121.78125 316.230469 130.589844 316.199219 C 148.277344 316.140625 162.664062 308.828125 177.5625 299.773438 C 196.0625 288.53125 209.160156 272.878906 221.515625 256.1875 C 226.878906 248.9375 225.558594 239.449219 224.234375 231.121094 C 221.152344 211.710938 210.90625 196.527344 194.28125 185.808594 C 191.578125 184.070312 188.773438 182.449219 186.269531 180.453125 C 177.433594 173.40625 170.980469 176.753906 169.621094 188.765625 C 168.984375 194.390625 169.492188 200.488281 172.28125 206.214844 C 174.277344 210.3125 174.664062 215.296875 175.238281 219.949219 C 176.023438 226.332031 176.238281 232.789062 176.824219 239.199219 C 177.484375 246.398438 173.875 251.210938 168.765625 255.785156 C 144.449219 277.550781 114.257812 286.679688 84.015625 295.785156 C 82.226562 296.324219 80.324219 296.554688 79.601562 294.554688 C 78.71875 292.121094 81.179688 292.023438 82.5625 291.46875 C 99.765625 284.546875 118.15625 280.324219 134.175781 270.804688 C 145.671875 263.976562 156.917969 256.3125 165.628906 245.820312 C 169.265625 241.441406 171.332031 236.332031 170.320312 230.285156 C 169.519531 225.511719 169.234375 220.65625 168.484375 215.816406 C 168.246094 225.796875 167.0625 235.378906 161.09375 243.914062 C 156.355469 250.691406 149.578125 254.921875 142.945312 259.128906 C 125.160156 270.410156 106.050781 279.035156 85.929688 285.320312 C 82.363281 286.433594 78.589844 286.769531 74.390625 284.828125 Z M 74.390625 284.828125 " fill-opacity="1" fill-rule="nonzero"/><path fill="#20b2ab" d="M 148.363281 353.574219 C 148.199219 351.585938 149.644531 351.179688 150.320312 350.980469 C 174.332031 343.953125 195.949219 331.042969 219.960938 323.609375 C 239.851562 317.449219 256.582031 304.636719 265.722656 284.5625 C 270.433594 274.222656 270.140625 263.179688 268.625 252.242188 C 266.542969 237.160156 264.320312 222.085938 261.648438 207.101562 C 258.125 187.316406 247.761719 170.839844 235.574219 155.328125 C 232.390625 151.285156 229.746094 146.804688 226.429688 142.886719 C 204.554688 117.027344 175.691406 110.460938 147.601562 131.625 C 136.167969 140.242188 129.722656 152.949219 125.390625 166.484375 C 122.019531 177.023438 118.933594 187.390625 120.703125 199.015625 C 122.445312 210.488281 117.195312 219.226562 105.996094 224.195312 C 93.429688 229.769531 80.550781 234.355469 67.417969 238.3125 C 65.53125 238.878906 63.417969 240.042969 62.554688 237.414062 C 61.773438 235.03125 64.449219 234.910156 65.757812 234.335938 C 78.898438 228.582031 92.140625 223.070312 105.269531 217.292969 C 112.730469 214.007812 114.914062 209.738281 112.652344 201.820312 C 110.355469 193.78125 111.316406 186.0625 113.679688 178.394531 C 117.148438 167.136719 120.542969 155.890625 126.316406 145.433594 C 136.789062 126.46875 152.769531 115.960938 173.679688 111.242188 C 193.503906 106.769531 209.847656 114.027344 223.105469 126.726562 C 241.492188 144.34375 256.125 165.382812 263.804688 189.976562 C 271.148438 213.5 275.449219 237.949219 276.210938 262.558594 C 277.046875 289.535156 263.722656 309.3125 239.621094 321.113281 C 230.285156 325.683594 220.839844 330.394531 210.488281 332.753906 C 197.863281 335.632812 186.242188 341.136719 175.171875 347.726562 C 166.804688 352.710938 157.484375 352.175781 148.363281 353.574219 Z M 148.363281 353.574219 " fill-opacity="1" fill-rule="nonzero"/><path fill="#20b2ab" d="M 186.894531 346.878906 C 196.210938 341.707031 205.4375 339.175781 214.484375 336.765625 C 226.589844 333.535156 238.398438 329.285156 248.835938 322.855469 C 269.839844 309.925781 281.519531 291.082031 281.53125 265.464844 C 281.542969 236.351562 274.0625 208.910156 265.144531 181.613281 C 262.539062 173.632812 257.691406 167.144531 253.175781 160.40625 C 245.546875 149.019531 239.261719 136.789062 229.546875 126.71875 C 195.75 91.707031 140.207031 102.324219 120.371094 147.203125 C 113.484375 162.78125 108.285156 178.792969 105.539062 195.601562 C 105.109375 198.226562 104.222656 200.804688 101.492188 201.769531 C 88.816406 206.269531 77.769531 214.390625 64.800781 218.195312 C 63.4375 218.597656 61.53125 220.402344 60.527344 217.71875 C 59.851562 215.925781 61.132812 215.042969 62.589844 214.296875 C 69.53125 210.746094 77.34375 208.027344 83.242188 203.582031 C 88.632812 199.523438 96.1875 196.917969 98.535156 188.332031 C 101.964844 175.816406 103.769531 162.683594 109.675781 150.964844 C 117.421875 135.589844 125.605469 120.527344 140.730469 110.640625 C 169.0625 92.121094 209.117188 91.789062 234.445312 118.738281 C 240.214844 124.882812 245.609375 131.105469 250.265625 138.117188 C 268.191406 165.140625 279.175781 194.65625 284.46875 226.664062 C 286.652344 239.859375 288.082031 252.898438 288.257812 266.253906 C 288.542969 287.375 279.363281 304.421875 265.535156 318.917969 C 260.042969 324.675781 251.667969 328.011719 244.140625 331.433594 C 228.699219 338.445312 212.296875 342.789062 196.03125 347.449219 C 193.417969 348.195312 190.691406 348.398438 186.894531 346.878906 Z M 186.894531 346.878906 " fill-opacity="1" fill-rule="nonzero"/><path fill="#20b2ab" d="M 132.144531 205.355469 C 134.757812 217.425781 126.773438 225.15625 115.195312 230.828125 C 100.316406 238.121094 84.675781 243.121094 68.550781 246.714844 C 67.132812 247.03125 65.296875 247.824219 64.59375 246.035156 C 63.621094 243.554688 66.066406 243.332031 67.53125 242.828125 C 80.695312 238.292969 93.652344 233.257812 106.542969 227.972656 C 122.269531 221.519531 125.894531 212.628906 125.3125 200.679688 C 124.320312 180.21875 129.652344 161.570312 142.230469 145.292969 C 159.941406 122.371094 184.710938 118.1875 209.347656 133.570312 C 217.859375 138.882812 225.046875 145.390625 230.328125 154.042969 C 237.683594 166.105469 247.066406 176.808594 253.25 189.710938 C 260.539062 204.921875 260.863281 221.183594 262.1875 237.402344 C 262.671875 243.363281 263.882812 249.277344 264.875 255.191406 C 268.203125 275.09375 258.5 289.660156 245.125 302.441406 C 233.914062 313.15625 220.472656 320.324219 205.5625 324.515625 C 192.480469 328.195312 180.394531 334.132812 168.015625 339.542969 C 157.882812 343.976562 147.601562 349.667969 135.664062 347.726562 C 134.710938 347.570312 133.285156 348.0625 133.117188 346.542969 C 132.941406 344.933594 134.097656 344.257812 135.519531 344.203125 C 149.734375 343.671875 161.132812 335.40625 173.632812 330.214844 C 179.960938 327.582031 186.347656 325.273438 192.90625 323.25 C 211.109375 317.632812 227.933594 309.523438 240.972656 294.964844 C 243.671875 291.953125 246.84375 289.351562 249.992188 286.722656 C 257.234375 280.683594 256.953125 271.511719 258.421875 263.234375 C 259.289062 258.355469 258.148438 253.390625 257.03125 248.554688 C 254.457031 237.398438 256.765625 225.84375 253.871094 214.636719 C 248.46875 193.710938 236.085938 176.769531 223.972656 159.527344 C 213.558594 144.707031 199.398438 136.324219 181.746094 134.269531 C 170.296875 132.9375 160.660156 137.078125 152.53125 145.910156 C 137.511719 162.226562 131.082031 181.269531 132.144531 205.355469 Z M 132.144531 205.355469 " fill-opacity="1" fill-rule="nonzero"/><path fill="#20b2ab" d="M 260.886719 85.75 C 275.257812 105.917969 287.390625 127.765625 305.296875 145.375 C 309.121094 149.132812 312.285156 154.0625 313.753906 159.550781 C 314.15625 161.0625 314.765625 163.246094 312.945312 164.242188 C 311.128906 165.234375 309.949219 163.675781 308.671875 162.382812 C 286.519531 139.929688 268.585938 114.316406 252.347656 87.429688 C 249.511719 82.734375 245.746094 79.152344 240.898438 76.429688 C 208.910156 58.464844 175.941406 58.785156 142.128906 70.464844 C 117.460938 78.988281 103.847656 98.429688 92.699219 120.125 C 86.34375 132.496094 78.710938 143.753906 68.859375 153.507812 C 67.449219 154.902344 65.648438 157.140625 63.472656 155.808594 C 61.613281 154.667969 63.019531 152.273438 63.027344 150.402344 C 63.035156 146.941406 65.117188 144.875 67.445312 142.914062 C 75.15625 136.40625 79.816406 128.074219 84.308594 119.046875 C 89.1875 109.238281 95.71875 99.976562 101.566406 90.652344 C 106.566406 82.675781 114.769531 78.496094 119.210938 70.527344 C 120.464844 68.277344 125.035156 68.234375 128.015625 66.730469 C 153.113281 54.097656 179.714844 50.289062 207.417969 54.507812 C 220.410156 56.488281 232.714844 60.714844 244.179688 67.273438 C 253.902344 72.835938 265.308594 75.316406 273.523438 83.699219 C 281.285156 91.625 289.332031 99.277344 297.273438 107.023438 C 298.691406 108.40625 300.277344 109.644531 298.800781 111.917969 C 297.300781 114.230469 295.3125 112.921875 293.570312 112.542969 C 287.757812 111.285156 283.171875 108.464844 279.273438 103.601562 C 273.964844 96.984375 268.714844 90.082031 260.886719 85.75 Z M 260.886719 85.75 " fill-opacity="1" fill-rule="nonzero"/><g clip-path="url(#f5d5c1d040)"><path fill="#20b2ab" d="M 58.253906 182.378906 C 60.871094 174.636719 63.539062 168.695312 68.339844 163.972656 C 78.105469 154.363281 85.542969 143.085938 91.96875 131.121094 C 101.171875 113.960938 111.527344 97.609375 126.9375 85.351562 C 141.441406 73.808594 158.976562 70.316406 176.933594 68.769531 C 198.304688 66.925781 218.890625 68.992188 237.578125 81.011719 C 247.765625 87.5625 254.261719 97.246094 259.984375 107.257812 C 273.882812 131.578125 293.472656 151.308594 311.179688 172.5625 C 312.582031 174.246094 313.902344 175.792969 314.105469 178.125 C 314.292969 180.253906 316.847656 183.105469 314.035156 184.242188 C 311.558594 185.246094 308.402344 184.792969 306.136719 181.777344 C 300.335938 174.0625 294.675781 166.125 287.992188 159.210938 C 271.15625 141.777344 259.964844 120.132812 244.476562 101.824219 C 231.359375 86.3125 213.882812 78.484375 193.09375 77.453125 C 175.269531 76.5625 158.464844 79.28125 142.53125 87.054688 C 133.59375 91.414062 125.558594 97.242188 119.257812 105.050781 C 110.890625 115.417969 102.714844 125.847656 96.980469 138.113281 C 90.066406 152.910156 78.605469 164.535156 67.71875 176.429688 C 65.621094 178.71875 62.308594 179.890625 58.253906 182.378906 Z M 58.253906 182.378906 " fill-opacity="1" fill-rule="nonzero"/></g><path fill="#20b2ab" d="M 187.136719 92.0625 C 164.53125 91.609375 144.765625 98.566406 128.476562 114.390625 C 120.859375 121.792969 114.460938 130.476562 110.257812 140.003906 C 101.863281 159.015625 88.574219 173.910156 73.867188 187.925781 C 70.914062 190.738281 68.089844 193.703125 65.28125 196.664062 C 63.839844 198.183594 62.292969 198.277344 60.652344 197.246094 C 58.738281 196.050781 58.972656 194.421875 60.085938 192.8125 C 61.183594 191.222656 62.117188 189.375 63.578125 188.203125 C 73.707031 180.058594 79.734375 168.253906 89.308594 159.617188 C 94.691406 154.761719 97.511719 148.179688 100.757812 141.847656 C 109.671875 124.464844 120.796875 108.78125 136.875 97.164062 C 148.820312 88.527344 162.359375 84.691406 176.882812 82.71875 C 201.703125 79.351562 222.585938 86.996094 240.441406 103.714844 C 248.148438 110.933594 253.652344 120.105469 259.34375 128.929688 C 272.761719 149.742188 289.605469 167.894531 304.199219 187.757812 C 309.339844 194.75 315.085938 202.140625 314.738281 211.929688 C 314.679688 213.566406 314.921875 215.097656 313.296875 215.589844 C 311.558594 216.113281 311.582031 214.265625 311.015625 213.183594 C 302.601562 197.113281 292.015625 182.066406 279.5 169.503906 C 263.613281 153.550781 253.652344 133.644531 239.199219 116.929688 C 225.367188 100.941406 208.433594 91.96875 187.136719 92.0625 Z M 187.136719 92.0625 " fill-opacity="1" fill-rule="nonzero"/><path fill="#20b2ab" d="M 102.898438 305.722656 C 114.371094 300.609375 126.601562 298.484375 138.082031 293.984375 C 157.007812 286.566406 172.609375 274.101562 188.296875 261.871094 C 198.328125 254.046875 199.285156 241.996094 199.441406 230.175781 C 199.589844 218.875 195.933594 208.269531 193.230469 197.503906 C 192.855469 196.003906 192.023438 193.550781 189.894531 194.449219 C 187.179688 195.589844 188.566406 197.957031 189.324219 199.898438 C 193.621094 210.9375 197.085938 222.238281 196.257812 234.207031 C 195.578125 244.035156 192.515625 252.832031 183.960938 259.234375 C 170.746094 269.121094 158.367188 280.359375 142.875 286.613281 C 127.011719 293.011719 111.03125 299.382812 93.886719 301.59375 C 91.667969 301.878906 88.453125 306.851562 87.289062 301.972656 C 86.554688 298.902344 91.707031 298.96875 94.261719 298.023438 C 113.484375 290.90625 133.386719 285.367188 150.875 274.238281 C 160.273438 268.257812 169.300781 261.679688 178.363281 255.1875 C 190.566406 246.441406 192.046875 234.089844 189.316406 220.609375 C 188.085938 214.539062 186.253906 208.589844 184.71875 202.578125 C 184.292969 200.917969 183.566406 199.21875 183.632812 197.5625 C 183.796875 193.308594 185.070312 189.148438 189.546875 187.867188 C 193.703125 186.675781 197.320312 189.675781 198.238281 193.011719 C 203.511719 212.242188 211.554688 231.324219 203.117188 251.765625 C 199.890625 259.589844 194.132812 265.390625 188.140625 270.882812 C 174.402344 283.472656 158.804688 293.347656 141.390625 299.980469 C 131.402344 303.785156 120.597656 304.515625 110.050781 305.734375 C 108.015625 305.972656 105.691406 307.796875 102.898438 305.722656 Z M 102.898438 305.722656 " fill-opacity="1" fill-rule="nonzero"/><path fill="#20b2ab" d="M 286.894531 81.730469 C 286.984375 83.519531 286.355469 84.316406 285.386719 84.929688 C 283.972656 85.820312 282.972656 85.019531 281.984375 84.140625 C 259.050781 63.738281 231.160156 53.8125 201.910156 47.582031 C 186.191406 44.230469 170.1875 47.304688 154.753906 51.09375 C 143.855469 53.773438 132.546875 55.929688 122.929688 62.339844 C 116.191406 66.828125 109.632812 71.59375 103.132812 76.425781 C 100.328125 78.511719 97.296875 80.054688 94.101562 81.304688 C 92.429688 81.960938 90.238281 83.292969 89.339844 80.398438 C 88.71875 78.390625 88.257812 76.167969 90.460938 74.527344 C 97.714844 69.125 104.839844 63.539062 112.238281 58.34375 C 114.984375 56.414062 118.027344 53.90625 121.925781 56.796875 C 122.984375 57.582031 124.824219 57.628906 125.511719 55.5 C 127.289062 49.976562 132.589844 48.8125 136.988281 47.046875 C 174.050781 32.179688 210.515625 33.832031 246.453125 51.191406 C 255.664062 55.640625 264.804688 60.25 274.21875 64.34375 C 281.074219 67.320312 283.488281 75.691406 286.894531 81.730469 Z M 286.894531 81.730469 " fill-opacity="1" fill-rule="nonzero"/><path fill="#20b2ab" d="M 204.574219 201.652344 C 220.28125 212.1875 225.949219 237.667969 216.539062 253.914062 C 208.683594 267.488281 198.890625 279.324219 185.554688 287.921875 C 177.433594 293.160156 169.425781 298.582031 161.175781 303.609375 C 155.109375 307.308594 148.632812 310.148438 141.367188 310.769531 C 132.632812 311.511719 123.921875 312.496094 115.1875 313.179688 C 114.015625 313.269531 111.796875 314.171875 111.511719 311.96875 C 111.253906 309.960938 113.28125 309.796875 114.703125 309.53125 C 121.40625 308.277344 128.164062 307.289062 134.832031 305.867188 C 155.222656 301.527344 171.402344 289.640625 186.980469 276.625 C 196.421875 268.730469 205.375 260.800781 210.386719 248.914062 C 213.242188 242.144531 214.089844 235.738281 212.597656 228.921875 C 211.003906 221.628906 209.414062 214.296875 205.679688 207.640625 C 204.8125 206.09375 203.882812 204.179688 204.574219 201.652344 Z M 204.574219 201.652344 " fill-opacity="1" fill-rule="nonzero"/><path fill="#20b2ab" d="M 106.613281 54.796875 C 108.332031 45.445312 116.101562 42.910156 121.660156 39.167969 C 141.726562 25.671875 164.097656 18.894531 188.449219 20.070312 C 199.304688 20.597656 210.285156 21.136719 220.359375 26.082031 C 222.195312 26.984375 225.957031 26.421875 224.699219 30.011719 C 223.617188 33.097656 222.058594 36.664062 217.371094 35.425781 C 214.28125 34.605469 211.191406 33.761719 208.074219 33.074219 C 182.917969 27.542969 158.722656 30.421875 135.445312 41.410156 C 126.203125 45.769531 116.910156 50.019531 106.613281 54.796875 Z M 106.613281 54.796875 " fill-opacity="1" fill-rule="nonzero"/><path fill="#20b2ab" d="M 273.691406 165.640625 C 279.730469 175.394531 285.574219 184.078125 287.882812 194.433594 C 291.648438 211.34375 296.242188 228.109375 298.046875 245.402344 C 298.976562 254.320312 300.542969 263.28125 298 272.242188 C 296.949219 275.945312 298.160156 280.070312 297.589844 283.421875 C 296.339844 290.789062 295.90625 299.105469 288.800781 304.226562 C 287.949219 304.84375 286.875 305.789062 286.054688 304.769531 C 284.996094 303.457031 285.546875 301.878906 286.519531 300.613281 C 289.53125 296.710938 291.898438 292.691406 292.277344 287.476562 C 293.355469 272.761719 293.5625 258.089844 291.347656 243.46875 C 287.617188 218.871094 281.960938 194.746094 273.222656 171.402344 C 272.6875 169.960938 272.320312 168.546875 273.691406 165.640625 Z M 273.691406 165.640625 " fill-opacity="1" fill-rule="nonzero"/><path fill="#20b2ab" d="M 179.398438 181.304688 C 180.824219 182.03125 184.097656 181.859375 182.632812 185.003906 C 179.210938 192.359375 180.527344 199.726562 182.453125 206.898438 C 184.980469 216.308594 186.960938 225.683594 185.988281 235.476562 C 185.800781 237.378906 185.550781 239.300781 185.078125 241.148438 C 184.644531 242.835938 184.894531 245.484375 181.984375 245.003906 C 179.386719 244.570312 179.964844 242.242188 179.699219 240.367188 C 177.480469 224.679688 177.710938 208.691406 173.472656 193.238281 C 171.882812 187.449219 175.21875 181.296875 179.398438 181.304688 Z M 179.398438 181.304688 " fill-opacity="1" fill-rule="nonzero"/><path fill="#20b2ab" d="M 276.949219 322.589844 C 271.273438 328.3125 266.046875 332.722656 260.058594 335.859375 C 248.460938 341.929688 235.890625 345.421875 223.273438 348.753906 C 217.117188 350.382812 211.117188 352.625 205.09375 354.730469 C 203.1875 355.394531 200.824219 356.417969 200.058594 354.167969 C 199.171875 351.554688 201.832031 351.078125 203.886719 350.394531 C 215.015625 346.691406 226.039062 342.671875 237.21875 339.140625 C 247.105469 336.023438 256.296875 331.644531 264.875 325.863281 C 268.054688 323.71875 271.386719 321.722656 276.949219 322.589844 Z M 276.949219 322.589844 " fill-opacity="1" fill-rule="nonzero"/><g clip-path="url(#f4d9e5e277)"><path fill="#20b2ab" d="M 99.605469 169.488281 C 97.847656 177.824219 95.304688 185.289062 89.375 191.246094 C 81.902344 198.757812 73 204.207031 63.621094 208.949219 C 62.390625 209.570312 61.070312 211.3125 59.800781 209.550781 C 58.636719 207.933594 58.359375 205.203125 60.070312 204.25 C 75.230469 195.808594 85.046875 181.714844 97 169.886719 C 97.355469 169.539062 98.203125 169.683594 99.605469 169.488281 Z M 99.605469 169.488281 " fill-opacity="1" fill-rule="nonzero"/></g><path fill="#20b2ab" d="M 109.679688 206.71875 C 109.8125 209.566406 107.820312 210.8125 105.746094 212.0625 C 93.066406 219.710938 78.890625 223.941406 65.414062 229.765625 C 64.207031 230.289062 62.5 231.316406 61.886719 228.882812 C 61.222656 226.246094 61.910156 224.308594 64.636719 223.261719 C 72.8125 220.128906 80.636719 216.246094 88.527344 212.460938 C 93.757812 209.957031 98.789062 207.167969 103.851562 204.398438 C 107.460938 202.421875 109.574219 203.34375 109.679688 206.71875 Z M 109.679688 206.71875 " fill-opacity="1" fill-rule="nonzero"/><path fill="#20b2ab" d="M 291.6875 198.910156 C 291.816406 196.664062 291.257812 195.023438 292.742188 194.496094 C 294.890625 193.726562 295.910156 195.527344 296.574219 197.074219 C 299.601562 204.191406 303.074219 211.070312 307.246094 217.582031 C 310.429688 222.554688 312.859375 227.785156 313.929688 233.644531 C 314.238281 235.324219 315.390625 237.054688 313.449219 238.25 C 311.308594 239.574219 309.722656 237.960938 308.511719 236.53125 C 303.304688 230.375 300.191406 223.027344 297.28125 215.652344 C 295.007812 209.894531 293.332031 203.898438 291.6875 198.910156 Z M 291.6875 198.910156 " fill-opacity="1" fill-rule="nonzero"/><path fill="#20b2ab" d="M 257.570312 44.078125 C 252.671875 48.875 247.964844 47.542969 242.890625 44.777344 C 238.804688 42.550781 234.335938 41.023438 230.050781 39.15625 C 228.882812 38.644531 227.523438 38.046875 227.902344 36.480469 C 228.234375 35.113281 229.578125 34.480469 230.867188 34.4375 C 241.035156 34.09375 250.269531 36.335938 257.570312 44.078125 Z M 257.570312 44.078125 " fill-opacity="1" fill-rule="nonzero"/><path fill="#20b2ab" d="M 95.0625 86.898438 C 96.65625 87.003906 99.183594 87.621094 97.191406 89.660156 C 91.457031 95.53125 87.421875 103.199219 79.402344 106.769531 C 76.734375 107.957031 75.941406 107.632812 76.269531 104.652344 C 76.976562 98.222656 88.492188 87.132812 95.0625 86.898438 Z M 95.0625 86.898438 " fill-opacity="1" fill-rule="nonzero"/><path fill="#20b2ab" d="M 307.300781 134.042969 C 307.039062 136.292969 305.1875 136.988281 303.347656 135.617188 C 297.445312 131.226562 293.433594 125 288.601562 119.566406 C 287.875 118.746094 287.960938 117.441406 288.875 116.65625 C 289.859375 115.808594 291.003906 115.574219 292.445312 115.898438 C 297.050781 116.933594 307.183594 128.828125 307.300781 134.042969 Z M 307.300781 134.042969 " fill-opacity="1" fill-rule="nonzero"/><path fill="#20b2ab" d="M 67.042969 134.59375 C 69.480469 127.550781 69.027344 120.277344 74.484375 115.1875 C 75.878906 113.886719 77.128906 112.398438 78.65625 111.285156 C 79.59375 110.601562 80.9375 109.582031 82.128906 110.601562 C 83.234375 111.546875 83.011719 113.210938 82.304688 114.167969 C 77.4375 120.769531 75.824219 129.714844 67.042969 134.59375 Z M 67.042969 134.59375 " fill-opacity="1" fill-rule="nonzero"/><path fill="#20b2ab" d="M 301.421875 237.285156 C 306.847656 241.675781 308.929688 246.582031 308.929688 252.101562 C 308.929688 254.675781 307.175781 257.132812 308.652344 260 C 309.511719 261.667969 307.964844 262.800781 306.40625 263.136719 C 304.222656 263.605469 304.964844 261.6875 304.683594 260.679688 C 302.671875 253.433594 300.542969 246.203125 301.421875 237.285156 Z M 301.421875 237.285156 " fill-opacity="1" fill-rule="nonzero"/><path fill="#20b2ab" d="M 119.105469 331.019531 C 117.242188 330.417969 114.179688 332.761719 113.917969 329.261719 C 113.683594 326.128906 116.460938 325.632812 118.917969 326.078125 C 121.132812 326.480469 124.953125 324.269531 125.253906 327.96875 C 125.636719 332.628906 121.070312 329.726562 119.105469 331.019531 Z M 119.105469 331.019531 " fill-opacity="1" fill-rule="nonzero"/><path fill="#20b2ab" d="M 98.511719 313.71875 C 97.019531 308.734375 91.113281 317.484375 91.039062 311.855469 C 90.988281 308.175781 97.199219 310.371094 100.277344 308.730469 C 100.929688 308.382812 103.339844 308.808594 103.183594 311.125 C 102.980469 314.175781 100.664062 313.269531 98.511719 313.71875 Z M 98.511719 313.71875 " fill-opacity="1" fill-rule="nonzero"/><path fill="#20b2ab" d="M 132.335938 330.238281 C 130.539062 329.996094 127.453125 331.804688 127.453125 329.222656 C 127.449219 326.328125 130.703125 325.898438 133.363281 326.226562 C 135.523438 326.492188 139.25 325.855469 138.738281 328.925781 C 138.125 332.625 134.484375 329.75 132.335938 330.238281 Z M 132.335938 330.238281 " fill-opacity="1" fill-rule="nonzero"/><path fill="#20b2ab" d="M 285.335938 312.234375 C 284.664062 315.699219 282.640625 316.746094 281.128906 318.152344 C 279.851562 319.339844 278.03125 320.496094 276.847656 318.410156 C 275.949219 316.828125 276.714844 314.964844 278.652344 314.242188 C 280.59375 313.519531 282.617188 313.039062 285.335938 312.234375 Z M 285.335938 312.234375 " fill-opacity="1" fill-rule="nonzero"/><path fill="#20b2ab" d="M 137.90625 337.757812 C 134.1875 338.660156 130.316406 340.34375 126.601562 335.777344 C 131.132812 335.125 134.648438 335.394531 137.90625 337.757812 Z M 137.90625 337.757812 " fill-opacity="1" fill-rule="nonzero"/><g clip-path="url(#d3902b1f75)"><path fill="#20b2ab" d="M 316.480469 196.523438 C 312.78125 195.300781 310.714844 193.292969 310.285156 190.054688 C 310.085938 188.5625 311.4375 188.542969 312.523438 188.855469 C 316.140625 189.890625 316.609375 192.664062 316.480469 196.523438 Z M 316.480469 196.523438 " fill-opacity="1" fill-rule="nonzero"/></g></svg>