<svg xmlns="http://www.w3.org/2000/svg" xmlns:xlink="http://www.w3.org/1999/xlink" width="500" zoomAndPan="magnify" viewBox="0 0 375 374.999991" height="500" preserveAspectRatio="xMidYMid meet" version="1.0"><defs><clipPath id="9b319b4afd"><path d="M 67.96875 81 L 306 81 L 306 201 L 67.96875 201 Z M 67.96875 81 " clip-rule="nonzero"/></clipPath><clipPath id="d2d81293f1"><path d="M 67.96875 213 L 88 213 L 88 247 L 67.96875 247 Z M 67.96875 213 " clip-rule="nonzero"/></clipPath></defs><path fill="#20b2ab" d="M 247.78125 314.585938 C 246.355469 314.585938 244.902344 314.125 243.6875 313.160156 C 203.863281 281.644531 160.382812 244.558594 148.496094 203.230469 C 143.464844 185.730469 153.609375 167.410156 171.109375 162.367188 C 188.609375 157.359375 206.941406 167.488281 211.972656 184.976562 C 219 209.398438 266.707031 247.160156 284.671875 261.371094 C 287.535156 263.628906 288.011719 267.789062 285.753906 270.644531 C 283.496094 273.507812 279.359375 274 276.480469 271.726562 C 242.367188 244.730469 206.507812 213.730469 199.28125 188.621094 C 196.257812 178.121094 185.242188 172.058594 174.753906 175.058594 C 164.265625 178.082031 158.179688 189.085938 161.191406 199.570312 C 171.992188 237.136719 213.664062 272.546875 251.875 302.792969 C 254.742188 305.050781 255.21875 309.210938 252.957031 312.0625 C 251.664062 313.726562 249.734375 314.585938 247.78125 314.585938 Z M 247.78125 314.585938 " fill-opacity="1" fill-rule="nonzero"/><path fill="#20b2ab" d="M 79.894531 281.15625 C 77.082031 281.15625 74.46875 279.347656 73.59375 276.519531 C 72.5 273.035156 74.441406 269.335938 77.925781 268.253906 C 85.3125 265.941406 108.554688 255.492188 97.726562 217.839844 C 91.398438 195.792969 94.015625 172.601562 105.121094 152.550781 C 116.230469 132.476562 134.484375 117.933594 156.539062 111.59375 C 200.972656 98.941406 248.003906 124.167969 262.003906 167.964844 C 265.292969 171.054688 287.839844 189.679688 303.265625 202.199219 C 306.09375 204.5 306.53125 208.660156 304.230469 211.484375 C 301.945312 214.324219 297.773438 214.761719 294.945312 212.449219 C 252.484375 177.992188 251.070312 175.601562 250.382812 174.464844 C 250.105469 174 249.894531 173.511719 249.734375 173.011719 C 238.285156 135.328125 198.09375 113.484375 160.171875 124.300781 C 141.523438 129.648438 126.070312 141.960938 116.667969 158.929688 C 107.273438 175.902344 105.054688 195.53125 110.40625 214.179688 C 121.660156 253.289062 102.058594 274.539062 81.851562 280.851562 C 81.214844 281.050781 80.554688 281.15625 79.894531 281.15625 Z M 79.894531 281.15625 " fill-opacity="1" fill-rule="nonzero"/><path fill="#20b2ab" d="M 100.988281 306.371094 C 98.175781 306.371094 95.574219 304.5625 94.6875 301.734375 C 93.59375 298.261719 95.535156 294.550781 99.019531 293.464844 C 126.386719 284.90625 136.347656 270.855469 123.007812 210.125 C 115.78125 177.183594 133.320312 145.75 163.804688 136.980469 C 195.28125 127.972656 228.300781 146.210938 237.347656 177.671875 C 239.183594 184.054688 247.570312 196.347656 296.582031 235.152344 C 299.449219 237.414062 299.925781 241.574219 297.667969 244.4375 C 295.410156 247.292969 291.273438 247.808594 288.394531 245.523438 C 234.28125 202.703125 227.230469 190.328125 224.652344 181.34375 C 217.613281 156.882812 191.992188 142.671875 167.4375 149.699219 C 143.742188 156.515625 130.179688 181.277344 135.898438 207.3125 C 149.488281 269.230469 141.179688 294.152344 102.941406 306.09375 C 102.308594 306.277344 101.636719 306.371094 100.988281 306.371094 Z M 100.988281 306.371094 " fill-opacity="1" fill-rule="nonzero"/><path fill="#20b2ab" d="M 266.085938 293.164062 C 264.394531 293.164062 262.707031 292.515625 261.410156 291.234375 C 258.996094 288.816406 253.683594 284.789062 247.542969 280.125 C 223.886719 262.175781 184.289062 232.144531 173.882812 195.925781 C 172.878906 192.414062 174.898438 188.769531 178.398438 187.75 C 181.953125 186.746094 185.558594 188.769531 186.574219 192.269531 C 195.769531 224.257812 233.171875 252.628906 255.519531 269.585938 C 262.324219 274.75 267.699219 278.832031 270.75 281.882812 C 273.324219 284.457031 273.324219 288.644531 270.75 291.222656 C 269.46875 292.515625 267.777344 293.164062 266.085938 293.164062 Z M 266.085938 293.164062 " fill-opacity="1" fill-rule="nonzero"/><path fill="#20b2ab" d="M 167.027344 345.996094 C 166.882812 345.996094 166.75 345.996094 166.605469 345.980469 C 162.972656 345.757812 160.199219 342.625 160.425781 338.980469 C 160.914062 331.332031 164.4375 293.164062 186.839844 293.164062 C 203.308594 293.164062 213.230469 306.636719 219.792969 315.550781 C 221.550781 317.925781 223.082031 320.066406 224.523438 321.519531 C 227.097656 324.097656 227.097656 328.28125 224.523438 330.859375 C 221.945312 333.433594 217.757812 333.433594 215.183594 330.859375 C 213.359375 329.035156 211.367188 326.394531 209.148438 323.394531 C 203.574219 315.800781 196.640625 306.371094 186.839844 306.371094 C 179.679688 306.371094 174.464844 326.144531 173.617188 339.800781 C 173.394531 343.300781 170.488281 345.996094 167.027344 345.996094 Z M 167.027344 345.996094 " fill-opacity="1" fill-rule="nonzero"/><path fill="#20b2ab" d="M 127.402344 332.785156 C 124.617188 332.785156 122.027344 331.015625 121.117188 328.214844 C 119.996094 324.742188 121.898438 321.03125 125.355469 319.894531 C 142.050781 314.46875 153.160156 279.808594 147.519531 262.152344 C 146.410156 258.675781 148.324219 254.964844 151.800781 253.855469 C 155.273438 252.695312 158.984375 254.660156 160.09375 258.136719 C 167.105469 280.074219 154.851562 324.214844 129.425781 332.46875 C 128.765625 332.679688 128.078125 332.785156 127.402344 332.785156 Z M 127.402344 332.785156 " fill-opacity="1" fill-rule="nonzero"/><g clip-path="url(#9b319b4afd)"><path fill="#20b2ab" d="M 74.574219 200.707031 C 70.925781 200.707031 67.96875 197.75 67.96875 194.105469 C 67.96875 132.199219 118.332031 81.835938 180.234375 81.835938 C 241.175781 81.835938 262.984375 117.035156 278.898438 142.738281 C 286.414062 154.851562 292.898438 165.324219 301.152344 168.003906 C 304.628906 169.128906 306.53125 172.851562 305.394531 176.324219 C 304.285156 179.785156 300.574219 181.714844 297.074219 180.566406 C 284.207031 176.390625 276.546875 164.015625 267.671875 149.6875 C 252.589844 125.34375 233.820312 95.042969 180.234375 95.042969 C 125.609375 95.042969 81.175781 139.476562 81.175781 194.105469 C 81.175781 197.75 78.21875 200.707031 74.574219 200.707031 Z M 74.574219 200.707031 " fill-opacity="1" fill-rule="nonzero"/></g><g clip-path="url(#d2d81293f1)"><path fill="#20b2ab" d="M 81.175781 246.933594 C 78.746094 246.933594 76.421875 245.601562 75.257812 243.289062 C 74.042969 240.847656 67.96875 228.285156 67.96875 220.519531 C 67.96875 216.875 70.925781 213.914062 74.574219 213.914062 C 78.21875 213.914062 81.175781 216.875 81.175781 220.519531 C 81.175781 223.96875 84.703125 232.617188 87.082031 237.371094 C 88.71875 240.636719 87.382812 244.597656 84.121094 246.234375 C 83.183594 246.710938 82.179688 246.933594 81.175781 246.933594 Z M 81.175781 246.933594 " fill-opacity="1" fill-rule="nonzero"/></g><path fill="#20b2ab" d="M 272.691406 108.253906 C 270.457031 108.253906 268.28125 107.128906 267.039062 105.070312 C 260.527344 94.34375 224.402344 68.628906 173.632812 68.628906 C 120.828125 68.628906 92.5625 95.613281 86.816406 105.070312 C 84.941406 108.199219 80.871094 109.175781 77.753906 107.289062 C 74.640625 105.398438 73.636719 101.34375 75.535156 98.226562 C 82.761719 86.316406 114.472656 55.421875 173.632812 55.421875 C 229.261719 55.421875 269.269531 83.289062 278.332031 98.226562 C 280.234375 101.34375 279.230469 105.398438 276.113281 107.300781 C 275.042969 107.949219 273.867188 108.253906 272.691406 108.253906 Z M 272.691406 108.253906 " fill-opacity="1" fill-rule="nonzero"/><path fill="#20b2ab" d="M 246.273438 55.421875 C 245.5625 55.421875 244.835938 55.300781 244.121094 55.066406 C 241.453125 54.152344 238.917969 53.203125 236.394531 52.277344 C 222.488281 47.101562 209.347656 42.214844 173.632812 42.214844 C 141.917969 42.214844 134.773438 45.871094 124.921875 50.929688 C 122.492188 52.171875 119.914062 53.492188 116.890625 54.839844 C 113.574219 56.347656 109.652344 54.839844 108.160156 51.523438 C 106.667969 48.195312 108.160156 44.285156 111.476562 42.792969 C 114.261719 41.539062 116.625 40.324219 118.871094 39.175781 C 129.964844 33.496094 138.722656 29.003906 173.632812 29.003906 C 211.722656 29.003906 226.609375 34.539062 241.003906 39.890625 C 243.433594 40.785156 245.867188 41.699219 248.429688 42.582031 C 251.875 43.773438 253.710938 47.523438 252.523438 50.96875 C 251.570312 53.703125 249.007812 55.421875 246.273438 55.421875 Z M 246.273438 55.421875 " fill-opacity="1" fill-rule="nonzero"/><path fill="#20b2ab" d="M 299.105469 147.875 C 296.304688 147.875 293.71875 146.09375 292.820312 143.28125 C 289.796875 133.863281 280.378906 118.460938 280.273438 118.316406 C 278.355469 115.214844 279.335938 111.144531 282.4375 109.230469 C 285.542969 107.300781 289.609375 108.277344 291.523438 111.394531 C 291.949219 112.082031 301.894531 128.300781 305.394531 139.265625 C 306.503906 142.738281 304.585938 146.449219 301.113281 147.558594 C 300.441406 147.769531 299.765625 147.875 299.105469 147.875 Z M 299.105469 147.875 " fill-opacity="1" fill-rule="nonzero"/></svg>